<svg xmlns="http://www.w3.org/2000/svg">
<defs>
<font id="PTSerifProBook?" horiz-adv-x="530" >
  <font-face 
    font-family="PTSerifProBook?"
    font-weight="400"
    font-stretch="normal"
    units-per-em="1000"
    panose-1="2 10 5 3 4 5 5 2 2 4"
    ascent="778"
    descent="-222"
    x-height="500"
    cap-height="700"
    bbox="-526 -271 1138 1018"
    underline-thickness="50"
    underline-position="-50"
    unicode-range="U+0020-FB04"
  />
<missing-glyph horiz-adv-x="709" 
d="M50 0v700h650v-700h-650zM620 600l-50 50l-195 -217l-195 217l-50 -50l197 -220l-197 -220l50 -50l195 217l195 -217l50 50l-198 220zM162 61v7h-35v-7h13v-35h9v35h13zM270 50l1 8q-3 1 -4 1q-4 0 -9 -5v4h-7v-32h8v20q3 5 7 5q2 0 4 -1zM276 65q0 -5 4 -5q5 0 5 4
q0 5 -5 5q-4 0 -4 -4zM276 58v-32h9v32h-9zM291 58v-7h5v-25h8v25h8v7h-8q0 2 1 3t3 1h3h3l1 6q0 1 -4 1h-5h-4q-5 0 -5 -4q-1 -2 -1 -5v-2h-5zM331 45q0 -25 23 -25q24 0 24 25q0 23 -24 23q-10 0 -16.5 -6.5t-6.5 -16.5zM338 45q0 17 16 17q17 0 17 -17q0 -18 -17 -18
q-16 0 -16 18zM363 34l-2 6q-2 -1 -4 -1q-5 0 -5 6q0 4 5 4h3l3 5q-4 2 -9 2q-10 0 -10 -11q0 -13 10 -13q5 0 9 2zM402 69v-42h9v14h5q18 0 18 14t-19 14h-13zM411 62h5q9 0 9 -6q0 -7 -10 -7h-4v13zM438 56l2 -5q8 2 11 2q5 0 5 -5v-2h-2q-1 1 -3 1q-15 0 -15 -12
q0 -9 10 -9q7 0 10 6l3 -5h7q-1 1 -1 8v13q0 12 -12 12q-3 0 -15 -4zM450 33q-5 0 -5 5q0 4 6 4h3l2 -1v-3q-1 -5 -6 -5zM492 51l2 8q-2 1 -5 1q-5 0 -7 -6h-1l-1 5h-7v-32h9v20q0 5 7 5zM498 56l1 -5q10 2 11 2q6 0 6 -5v-2q-1 0 -2.5 0.5t-3.5 0.5q-15 0 -15 -12
q0 -9 10 -9q8 0 11 6h1l1 -5h7q-1 1 -1 8v13q0 12 -12 12q-2 0 -4 -0.5t-3.5 -1t-3.5 -1.5t-3 -1zM509 33q-5 0 -5 5q0 4 6 4q2 0 3.5 -0.5t2.5 -0.5v-3q-2 -5 -7 -5zM557 62v7h-36v-7h14v-35h8v35h14zM574 41l-7 18h-10l14 -32q-2 -5 -5 -5l-2 1l-2 -7q1 -1 6 -1q7 0 11 15
l12 29h-9l-6 -18v-6h-1zM595 59v-44h9v13q2 -2 6 -2q16 0 16 18q0 16 -13 16q-6 0 -10 -5h-2l-1 4h-5zM611 53q6 0 6 -9q0 -11 -9 -11q-2 0 -4 2v12q0 6 7 6zM659 30l-3 5q-2 -2 -8 -2q-8 0 -8 7h21v7q0 13 -14 13q-16 0 -16 -18q0 -16 16 -16q8 0 12 4zM647 53q7 0 6 -7

<glyph glyph-name="IJ" unicode="IJ" horiz-adv-x="658" 
d="M300 28v-28h-250v28q39 18 80 24v596q-39 7 -80 24v28h250v-28q-32 -15 -80 -24v-596q42 -8 80 -24zM360 672v28h248v-28q-35 -16 -76 -24v-566q0 -206 -148 -242l-10 14q34 29 51 75.5t17 141.5v577q-54 11 -82 24z" />
    <glyph glyph-name="ij" unicode="ij" horiz-adv-x="582" 
d="M258 24v-24h-216v24q26 14 66 24v396l-66 8v24q58 24 126 36h24v-464q43 -10 66 -24zM89 671q0 26 17 41.5t44 15.5q28 0 44.5 -15.5t16.5 -41.5t-16.5 -41.5t-44.5 -15.5q-27 0 -44 15.5t-17 41.5zM404 24v420l-66 8v24q53 24 126 36h24v-469q0 -66 -16 -117t-42 -78.5
t-46 -40.5t-40 -19l-11 18q28 14 49.5 68.5t21.5 149.5zM385 671q0 26 17 41.5t44 15.5q28 0 44.5 -15.5t16.5 -41.5t-16.5 -41.5t-44.5 -15.5q-27 0 -44 15.5t-17 41.5z" />
    <glyph glyph-name="uniF374.var.accented" unicode="&#xf374;`" horiz-adv-x="570" 
d="M435 48l40 99h24q13 -55 10 -125q-47 -31 -151 -31q-304 0 -304 279q0 72 23 127t63.5 87t91 48t109.5 16q104 0 164 -26q0 -72 -14 -138h-24l-45 113q-16 8 -72 8q-84 0 -140.5 -54.5t-62.5 -160.5l272 12q11 -34 3 -67q-120 12 -275 14q6 -101 63.5 -158t154.5 -57
q56 0 70 14zM289 614l118 174q16 2 46.5 -5.5t41.5 -16.5v-19l-186 -150z" />
    <glyph glyph-name="uniF376.var.accented" unicode="&#xf376;`" horiz-adv-x="325" 
d="M275 25v-25h-225v25q30 14 68 20v449q-35 6 -68 21v24h225v-24q-27 -14 -68 -21v-449q40 -7 68 -20zM125 614l118 174q16 2 46.5 -5.5t41.5 -16.5v-19l-186 -150z" />
    <glyph glyph-name="uniF377.var.accented" unicode="&#xf377;`" horiz-adv-x="325" 
d="M30 682q0 23 14.5 37t37.5 14t37.5 -14t14.5 -37q0 -22 -14.5 -35.5t-37.5 -13.5t-37.5 13.5t-14.5 35.5zM190 682q0 23 14.5 37t37.5 14t37.5 -14t14.5 -37q0 -22 -14.5 -35.5t-37.5 -13.5t-37.5 13.5t-14.5 35.5zM135 789l147 124q17 2 49.5 -8.5t43.5 -23.5v-20
l-224 -91zM275 25v-25h-225v25q30 14 68 20v449q-35 6 -68 21v24h225v-24q-27 -14 -68 -21v-449q40 -7 68 -20z" />
    <glyph glyph-name="uniF350.var.accented" unicode="&#xf350;`" horiz-adv-x="587" 
d="M192 25v-25h-192v25q31 14 61 20l214 503h31l216 -503q41 -7 65 -20v-25h-225v25q42 15 69 20l-56 134h-201l-56 -134q37 -4 74 -20zM255 379l-65 -157h170l-67 158l-16 67h-2zM243 614l118 174q16 2 46.5 -5.5t41.5 -16.5v-19l-186 -150z" />
    <glyph glyph-name="uniF355.var.accented" unicode="&#xf355;`" horiz-adv-x="516" 
d="M30 539h409q-2 -72 -10 -130h-24l-36 87h-181v-199h133l34 58h22q6 -79 0 -161h-22l-34 60h-133v-211h191l42 95h24q13 -76 10 -138h-425v25q37 15 69 20v449q-35 6 -69 20v25zM181 614l118 174q16 2 46.5 -5.5t41.5 -16.5v-19l-186 -150z" />
    <glyph glyph-name="uniF358.var.accented" unicode="&#xf358;`" horiz-adv-x="648" 
d="M252 25v-25h-222v25q39 16 69 20v449q-43 9 -69 20v25h222v-25q-34 -15 -64 -20v-320l-9 -59l41 62l244 299v18q-37 8 -69 20v25h223v-25q-25 -11 -70 -20v-449q37 -6 70 -20v-25h-223v25q33 13 64 20v319l9 59l-38 -59l-247 -302v-17q33 -5 69 -20zM265 614l118 174
q16 2 46.5 -5.5t41.5 -16.5v-19l-186 -150z" />
    <glyph glyph-name="uniF35E.var.accented" unicode="&#xf35e;`" horiz-adv-x="653" 
d="M54 270q0 123 72.5 200.5t199.5 77.5t200 -77.5t73 -200.5q0 -124 -73 -201.5t-200 -77.5t-199.5 77.5t-72.5 201.5zM153 270q0 -104 46.5 -170t134.5 -66q81 0 123.5 66t42.5 170t-45.5 169.5t-135.5 65.5q-85 0 -125.5 -64.5t-40.5 -170.5zM262 614l118 174
q16 2 46.5 -5.5t41.5 -16.5v-19l-186 -150z" />
    <glyph glyph-name="uniF363.var.accented" unicode="&#xf363;`" horiz-adv-x="564" 
d="M336 256l107 238q-38 7 -71 20v25h192v-25q-22 -10 -61 -20l-166 -339q-39 -89 -76.5 -128t-85.5 -31q-23 32 -28 88l13 23l90 -23q14 12 27 47l-214 363q-32 8 -63 20v25h231v-25q-31 -12 -68 -20l137 -239l18 -49h1zM236 614l118 174q16 2 46.5 -5.5t41.5 -16.5v-19
l-186 -150z" />
    <glyph glyph-name="uniF36B.var.accented" unicode="&#xf36b;`" horiz-adv-x="741" 
d="M711 25v-25h-222v25q26 11 65 20v449q-36 7 -66 20v25h223v-25q-32 -14 -68 -20v-449q31 -4 68 -20zM143 0h-113v25q32 14 69 20v449q-35 6 -69 20v25h233v-25q-42 -15 -75 -20v-172q50 5 76 5q211 0 211 -159q0 -84 -65.5 -127t-159.5 -43q-2 0 -44 1t-63 1zM244 284
q-37 0 -56 -4v-236q15 -3 58 -3q60 0 95 32t35 95q0 116 -132 116zM288 614l118 174q16 2 46.5 -5.5t41.5 -16.5v-19l-186 -150z" />
    <glyph glyph-name="uniF36D.var.accented" unicode="&#xf36d;`" horiz-adv-x="563" 
d="M415 262l-242 -23q-10 32 0 66l242 -1q-5 98 -58.5 149.5t-146.5 51.5q-51 0 -67 -14l-44 -97h-24q-12 51 -10 122q46 32 151 32q293 0 293 -277q0 -72 -23.5 -127.5t-64.5 -88t-91 -48.5t-107 -16q-105 0 -163 27q5 84 13 138h24l45 -114q15 -8 73 -8q81 0 140 60
t60 168zM174 614l118 174q16 2 46.5 -5.5t41.5 -16.5v-19l-186 -150z" />
    <glyph glyph-name="uniF36E.var.accented" unicode="&#xf36e;`" horiz-adv-x="847" 
d="M252 25v-25h-222v25q41 15 69 20v449q-35 5 -69 20v25h222v-25q-38 -15 -64 -20v-196h100q7 111 71.5 180.5t178.5 69.5q123 0 189 -76.5t66 -201.5t-66 -202t-189 -77q-121 0 -184 71.5t-67 192.5h-99v-210q31 -6 64 -20zM382 270q0 -236 163 -236q149 0 149 236
q0 235 -163 235q-83 0 -116 -62.5t-33 -172.5zM370 614l118 174q16 2 46.5 -5.5t41.5 -16.5v-19l-186 -150z" />
    <glyph glyph-name="uniF36F.var.accented" unicode="&#xf36f;`" horiz-adv-x="557" 
d="M413 539h114v-25q-31 -13 -70 -20v-449q41 -7 70 -20v-25h-232v25q33 14 73 20v180h-84q-16 -25 -40 -68t-45 -76t-47 -60l-30 -21h-112v22l40 18q32 32 59 64.5t55 70.5t41 54q-55 15 -90.5 52.5t-35.5 99.5q0 81 69.5 120.5t168.5 39.5q10 0 43.5 -1t52.5 -1zM310 263
q39 0 58 4v227q-15 4 -51 4q-139 0 -139 -116q0 -119 132 -119zM241 614l118 174q16 2 46.5 -5.5t41.5 -16.5v-19l-186 -150z" />
    <glyph glyph-name="uniF371.var.accented" unicode="&#xf371;`" horiz-adv-x="516" 
d="M30 539h409q-2 -72 -10 -130h-24l-36 87h-181v-199h133l34 58h22q6 -79 0 -161h-22l-34 60h-133v-211h191l42 95h24q13 -76 10 -138h-425v25q37 15 69 20v449q-35 6 -69 20v25zM86 682q0 20 12.5 32t32.5 12t32.5 -12t12.5 -32q0 -19 -12.5 -30.5t-32.5 -11.5t-32.5 11.5
t-12.5 30.5zM320 682q0 20 12.5 32t32.5 12t32.5 -12t12.5 -32q0 -19 -12.5 -30.5t-32.5 -11.5t-32.5 11.5t-12.5 30.5zM188 637l76 171q14 2 40.5 -6.5t40.5 -18.5v-16l-133 -140z" />
    <glyph glyph-name="uniF38A.var.accented" unicode="&#xf38a;`" horiz-adv-x="596" 
d="M563 548q18 -6 34.5 -39t17.5 -58l-15 -22l-83 22q-56 -72 -115 -205.5t-83 -254.5h-39l-215 503q-31 8 -65 20v25h234v-25q-31 -11 -69 -20l128 -317l18 -65h2l12 66q31 109 82.5 205.5t95.5 138.5q26 24 60 26zM271 614l118 174q16 2 46.5 -5.5t41.5 -16.5v-19
l-186 -150z" />
    <glyph glyph-name="afii10053.var.accented" unicode="&#x404;`" horiz-adv-x="643" 
d="M501 57l47 122h24q13 -67 10 -150q-53 -41 -172 -41q-172 0 -264 89t-92 273q0 95 26.5 166.5t74 113t106 62t127.5 20.5q118 0 188 -34q2 -81 -14 -170h-24l-52 144q-19 10 -89 10q-103 0 -174 -74t-77 -214l335 14q11 -38 4 -75q-172 14 -339 16q6 -135 77.5 -213
t192.5 -78q68 0 85 19zM335 769l147 124q17 2 49.5 -8.5t43.5 -23.5v-20l-224 -91z" />
    <glyph glyph-name="afii10055.var.accented" unicode="&#x406;`" horiz-adv-x="350" 
d="M300 28v-28h-250v28q39 18 80 24v596q-39 7 -80 24v28h250v-28q-32 -15 -80 -24v-596q42 -8 80 -24zM136 769l147 124q17 2 49.5 -8.5t43.5 -23.5v-20l-224 -91z" />
    <glyph glyph-name="afii10056.var.accented" unicode="&#x407;`" horiz-adv-x="350" 
d="M34 788q0 23 15 35t39 12t39 -12t15 -35q0 -21 -15 -33t-39 -12t-39 12t-15 33zM208 788q0 23 15 35t39 12t39 -12t15 -35q0 -21 -15 -33t-39 -12t-39 12t-15 33zM141 839l147 124q17 2 49.5 -8.5t43.5 -23.5v-20l-224 -91zM300 28v-28h-250v28q39 18 80 24v596
q-39 7 -80 24v28h250v-28q-32 -15 -80 -24v-596q42 -8 80 -24z" />
    <glyph glyph-name="afii10017.var.accented" unicode="&#x410;`" horiz-adv-x="678" 
d="M219 28v-28h-219v28q36 16 72 24l253 660h24l253 -660q51 -10 76 -24v-28h-250v28q48 18 82 24l-69 185h-241l-67 -185q42 -6 86 -24zM298 500l-78 -213h204l-80 215l-19 86h-2zM285 769l147 124q17 2 49.5 -8.5t43.5 -23.5v-20l-224 -91z" />
    <glyph glyph-name="afii10022.var.accented" unicode="&#x415;`" horiz-adv-x="579" 
d="M30 700h468q-2 -97 -10 -160h-24l-41 110h-221v-268h167l39 74h24q6 -99 0 -200h-24l-39 76h-167v-282h234l48 120h24q14 -97 10 -170h-488v28q35 16 82 24v596q-42 8 -82 24v28zM245 769l147 124q17 2 49.5 -8.5t43.5 -23.5v-20l-224 -91z" />
    <glyph glyph-name="afii10026.var.accented" unicode="&#x418;`" horiz-adv-x="734" 
d="M278 28v-28h-248v28q40 18 82 24v596q-51 11 -82 24v28h248v-28q-39 -18 -76 -24v-440l-10 -75l48 79l297 412v24q-47 10 -81 24v28h248v-28q-28 -13 -82 -24v-596q47 -8 82 -24v-28h-248v28q43 18 76 24v439l10 74l-44 -74l-301 -417v-22q41 -7 81 -24zM315 769l147 124
q17 2 49.5 -8.5t43.5 -23.5v-20l-224 -91z" />
    <glyph glyph-name="afii10032.var.accented" unicode="&#x41e;`" horiz-adv-x="738" 
d="M54 350q0 160 84.5 261t230.5 101t230.5 -101t84.5 -261t-84.5 -261t-230.5 -101t-230.5 101t-84.5 261zM154 350q0 -135 58 -223.5t166 -88.5q100 0 153 88t53 224t-57 224t-166 88q-105 0 -156 -87t-51 -225zM325 769l147 124q17 2 49.5 -8.5t43.5 -23.5v-20l-224 -91z
" />
    <glyph glyph-name="afii10037.var.accented" unicode="&#x423;`" horiz-adv-x="657" 
d="M388 312l134 336q-48 7 -86 24v28h221v-28q-25 -12 -72 -24l-196 -447q-46 -117 -87 -167t-97 -39q-22 35 -29 106l13 24l101 -26q19 17 33 69l-247 480q-47 11 -76 24v28h258v-28q-33 -13 -82 -24l169 -338l21 -64h2zM285 769l147 124q17 2 49.5 -8.5t43.5 -23.5v-20
l-224 -91z" />
    <glyph glyph-name="afii10045.var.accented" unicode="&#x42b;`" horiz-adv-x="834" 
d="M804 28v-28h-248v28q29 15 78 24v596q-46 9 -78 24v28h248v-28q-35 -17 -80 -24v-596q41 -6 80 -24zM155 0h-125v28q39 18 82 24v596q-42 8 -82 24v28h260v-28q-43 -17 -88 -24v-231q56 7 90 7q247 0 247 -206q0 -75 -39.5 -126.5t-96.5 -73t-124 -21.5q-3 0 -51.5 1.5
t-72.5 1.5zM272 374q-48 0 -70 -6v-316q16 -5 73 -5q74 0 119 44.5t45 127.5q0 76 -42 115.5t-125 39.5zM345 769l147 124q17 2 49.5 -8.5t43.5 -23.5v-20l-224 -91z" />
    <glyph glyph-name="afii10047.var.accented" unicode="&#x42d;`" horiz-adv-x="631" 
d="M484 345l-295 -30q-10 36 0 75h295q-7 134 -73 203t-180 69q-63 0 -80 -19l-52 -122h-24q-12 69 -10 150q53 41 172 41q166 0 253 -86.5t87 -275.5q0 -91 -27.5 -162.5t-74.5 -114t-104.5 -64t-122.5 -21.5q-118 0 -188 34q4 90 14 170h24l52 -144q19 -10 89 -10
q98 0 171 81.5t74 225.5zM195 769l147 124q17 2 49.5 -8.5t43.5 -23.5v-20l-224 -91z" />
    <glyph glyph-name="afii10048.var.accented" unicode="&#x42e;`" horiz-adv-x="961" 
d="M278 28v-28h-248v28q44 18 82 24v596q-42 6 -82 24v28h248v-28q-36 -16 -76 -24v-264h120q8 146 82 237t207 91q144 0 220 -99.5t76 -262.5q0 -161 -77 -261.5t-219 -100.5q-140 0 -213.5 94t-76.5 252h-119v-282q41 -7 76 -24zM417 350q0 -90 18.5 -157.5t65.5 -111
t119 -43.5q98 0 142.5 86t44.5 226q0 67 -10.5 121.5t-33.5 98.5t-63.5 68t-96.5 24q-54 0 -91.5 -24t-57.5 -68.5t-28.5 -97.5t-8.5 -122zM395 769l147 124q17 2 49.5 -8.5t43.5 -23.5v-20l-224 -91z" />
    <glyph glyph-name="afii10049.var.accented" unicode="&#x42f;`" horiz-adv-x="630" 
d="M475 700h125v-28q-36 -16 -82 -24v-596q50 -7 82 -24v-28h-260v28q37 18 88 24v243h-103q-13 -21 -66.5 -121.5t-95.5 -149.5l-33 -24h-120v24l48 24q38 41 69 83.5t65.5 95.5t49.5 74q-65 19 -106.5 68t-41.5 128q0 70 41.5 118t101 68t131.5 20q12 0 48.5 -1.5
t58.5 -1.5zM358 337q45 0 70 7v304q-16 5 -62 5q-172 0 -172 -157q0 -76 41 -117.5t123 -41.5zM315 769l147 124q17 2 49.5 -8.5t43.5 -23.5v-20l-224 -91z" />
    <glyph glyph-name="afii10023.var.accented" unicode="&#x401;`" horiz-adv-x="579" 
d="M30 700h468q-2 -97 -10 -160h-24l-41 110h-221v-268h167l39 74h24q6 -99 0 -200h-24l-39 76h-167v-282h234l48 120h24q14 -97 10 -170h-488v28q35 16 82 24v596q-42 8 -82 24v28zM113 787q0 22 13 34.5t33 12.5q21 0 33.5 -12t12.5 -35q0 -21 -12.5 -32.5t-33.5 -11.5
q-20 0 -33 12t-13 32zM389 787q0 23 12.5 35t33.5 12q20 0 33 -12.5t13 -34.5q0 -20 -13 -32t-33 -12q-21 0 -33.5 11.5t-12.5 32.5zM221 759l106 142q14 2 41.5 -8.5t37.5 -23.5v-19l-171 -110z" />
    <glyph glyph-name="afii10065.var.accented" unicode="&#x430;`" horiz-adv-x="499" 
d="M403 130q0 -13 0.5 -25t1.5 -25.5t1 -21.5l69 -10v-20q-52 -27 -109 -38h-24q-13 31 -15 112h-5q-8 -45 -47 -79.5t-98 -34.5q-61 0 -99 37t-38 96q0 37 12.5 63.5t34 43t59 27.5t77.5 16t100 8q9 92 -10 141.5t-76 49.5q-41 0 -67 -10l-47 -120h-24q-21 65 -25 124
q80 48 184 48q48 0 79.5 -14t46 -39.5t19.5 -49.5t5 -56q0 -41 -2.5 -115.5t-2.5 -107.5zM214 48q44 0 71 29t38 60v105q-113 1 -153 -23.5t-40 -79.5q0 -43 22.5 -67t61.5 -24zM204 594l118 174q16 2 46.5 -5.5t41.5 -16.5v-19l-186 -150z" />
    <glyph glyph-name="afii10070.var.accented" unicode="&#x435;`" horiz-adv-x="499" 
d="M428 84l14 -15q-16 -34 -63.5 -57.5t-98.5 -23.5q-115 0 -176.5 70t-61.5 192q0 126 58.5 194t164.5 68q42 0 77 -12.5t65 -42.5t39 -80.5t-2 -125.5h-312q1 -91 44 -147t127 -56q35 0 71.5 10.5t53.5 25.5zM261 470q-59 0 -89.5 -41t-36.5 -136h226q7 81 -18.5 129
t-81.5 48zM214 594l118 174q16 2 46.5 -5.5t41.5 -16.5v-19l-186 -150z" />
    <glyph glyph-name="afii10074.var.accented" unicode="&#x438;`" horiz-adv-x="606" 
d="M40 476v24h206v-24q-23 -13 -60 -24v-280l-11 -93h5l39 75l218 346h129v-24q-32 -18 -66 -24v-404q48 -13 66 -24v-24h-206v24q28 16 60 24v291l10 79h-5l-38 -75l-216 -343h-131v24q26 13 66 24v404q-39 6 -66 24zM254 594l118 174q16 2 46.5 -5.5t41.5 -16.5v-19
l-186 -150z" />
    <glyph glyph-name="afii10080.var.accented" unicode="&#x43e;`" horiz-adv-x="548" 
d="M42 250q0 124 62.5 193t169.5 69q118 0 175 -69t57 -193t-62.5 -193t-169.5 -69q-115 0 -173.5 70t-58.5 192zM132 250q0 -98 39 -159t120 -61q56 0 90.5 56t34.5 164q0 98 -37 159t-113 61q-62 0 -98 -55.5t-36 -164.5zM214 594l118 174q16 2 46.5 -5.5t41.5 -16.5v-19
l-186 -150z" />
    <glyph glyph-name="afii10085.var.accented" unicode="&#x443;`" horiz-adv-x="503" 
d="M250 0l-207 452q-21 5 -53 24v24h203v-23q-21 -14 -57 -25l130 -301l20 -62h2l15 63l97 300q-30 6 -55 24v24h168v-24q-21 -14 -57 -24l-155 -452q-31 -83 -60.5 -128.5t-55 -62t-64.5 -24.5q-16 28 -32 83l13 24h102q13 16 21 35.5t25 72.5zM224 594l118 174
q16 2 46.5 -5.5t41.5 -16.5v-19l-186 -150z" />
    <glyph glyph-name="afii10093.var.accented" unicode="&#x44b;`" horiz-adv-x="737" 
d="M190 452v-156q59 8 98 8q78 0 121.5 -36t43.5 -109q0 -78 -53.5 -120.5t-141.5 -42.5q-16 0 -57 2t-68 2h-93v24q25 15 66 24v404q-29 3 -66 24v24h210v-24q-22 -14 -60 -24zM190 257v-215q6 0 25 -2t29 -2q117 0 117 122q0 53 -30.5 77.5t-78.5 24.5q-36 0 -62 -5z
M697 24v-24h-210v24q35 17 60 24v404q-37 8 -60 24v24h210v-24q-20 -14 -66 -24v-404q40 -11 66 -24zM304 594l118 174q16 2 46.5 -5.5t41.5 -16.5v-19l-186 -150z" />
    <glyph glyph-name="afii10095.var.accented" unicode="&#x44d;`" horiz-adv-x="489" 
d="M219 -12q-106 0 -171 60l17 64h19l60 -71q21 -8 62 -8q67 0 108.5 55t42.5 148l-200 -15q-11 26 0 52h199q-8 197 -148 197q-41 0 -51 -7l-44 -123h-24q-17 56 -25 133q74 39 161 39q222 0 222 -252q0 -134 -66 -203t-162 -69zM174 594l118 174q16 2 46.5 -5.5
t41.5 -16.5v-19l-186 -150z" />
    <glyph glyph-name="afii10096.var.accented" unicode="&#x44e;`" horiz-adv-x="777" 
d="M250 24v-24h-210v24q23 13 66 24v404q-40 11 -66 24v24h210v-24q-24 -14 -60 -24v-178h101q5 112 64.5 175t155.5 63q111 0 167.5 -67.5t56.5 -197.5q0 -121 -58.5 -190t-165.5 -69q-97 0 -156.5 61.5t-63.5 182.5h-101v-184q34 -6 60 -24zM379 250q0 -103 40.5 -161.5
t99.5 -58.5q126 0 126 220t-138 220q-59 0 -93.5 -59.5t-34.5 -160.5zM314 594l118 174q16 2 46.5 -5.5t41.5 -16.5v-19l-186 -150z" />
    <glyph glyph-name="afii10097.var.accented" unicode="&#x44f;`" horiz-adv-x="524" 
d="M65 354q0 71 46.5 111.5t145.5 40.5q16 0 79.5 -3t81.5 -3h66v-24q-21 -17 -66 -24v-404q38 -10 66 -24v-24h-210v24q20 13 60 24v171l-74 -10q-7 -11 -28 -50t-43 -72.5t-49 -63.5l-31 -23h-109v24l57 24q36 37 83 102.5t51 70.5q-52 10 -89 43t-37 90zM334 243v215
q-36 6 -70 6q-111 3 -111 -108q0 -51 39 -82t115 -31h27zM224 594l118 174q16 2 46.5 -5.5t41.5 -16.5v-19l-186 -150z" />
    <glyph glyph-name="afii10071.var.accented" unicode="&#x451;`" horiz-adv-x="499" 
d="M428 84l14 -15q-16 -34 -63.5 -57.5t-98.5 -23.5q-115 0 -176.5 70t-61.5 192q0 126 58.5 194t164.5 68q42 0 77 -12.5t65 -42.5t39 -80.5t-2 -125.5h-312q1 -91 44 -147t127 -56q35 0 71.5 10.5t53.5 25.5zM261 470q-59 0 -89.5 -41t-36.5 -136h226q7 81 -18.5 129
t-81.5 48zM100 662q0 20 12.5 32t32.5 12t32.5 -12t12.5 -32q0 -19 -12.5 -30.5t-32.5 -11.5t-32.5 11.5t-12.5 30.5zM334 662q0 20 12.5 32t32.5 12t32.5 -12t12.5 -32q0 -19 -12.5 -30.5t-32.5 -11.5t-32.5 11.5t-12.5 30.5zM202 617l76 171q14 2 40.5 -6.5t40.5 -18.5
v-16l-133 -140z" />
    <glyph glyph-name="afii10101.var.accented" unicode="&#x454;`" horiz-adv-x="474" 
d="M421 82l13 -13q-20 -36 -60 -58.5t-91 -22.5q-114 0 -177.5 71t-63.5 191q0 123 65 192.5t172 69.5q96 0 153 -30q-8 -90 -31 -141h-24l-42 119q-15 10 -47 10q-150 0 -156 -205l197 15q11 -26 0 -52h-196q7 -74 56.5 -127t126.5 -53q62 0 105 34zM204 594l118 174
q16 2 46.5 -5.5t41.5 -16.5v-19l-186 -150z" />
    <glyph glyph-name="afii10103.var.accented" unicode="&#x456;`" horiz-adv-x="298" 
d="M258 24v-24h-216v24q26 14 66 24v396l-66 8v24q58 24 126 36h24v-464q43 -10 66 -24zM96 594l118 174q16 2 46.5 -5.5t41.5 -16.5v-19l-186 -150z" />
    <glyph glyph-name="afii10104.var.accented" unicode="&#x457;`" horiz-adv-x="344" 
d="M40 662q0 23 14.5 37t37.5 14t37.5 -14t14.5 -37q0 -22 -14.5 -35.5t-37.5 -13.5t-37.5 13.5t-14.5 35.5zM200 662q0 23 14.5 37t37.5 14t37.5 -14t14.5 -37q0 -22 -14.5 -35.5t-37.5 -13.5t-37.5 13.5t-14.5 35.5zM145 769l147 124q17 2 49.5 -8.5t43.5 -23.5v-20
l-224 -91zM281 24v-24h-216v24q26 14 66 24v396l-66 8v24q59 24 126 36h24v-464q43 -10 66 -24z" />
    <glyph glyph-name="afii10062.var.accented" unicode="&#x40e;`" horiz-adv-x="657" 
d="M388 312l134 336q-48 7 -86 24v28h221v-28q-25 -12 -72 -24l-196 -447q-46 -117 -87 -167t-97 -39q-22 35 -29 106l13 24l101 -26q19 17 33 69l-247 480q-47 11 -76 24v28h258v-28q-33 -13 -82 -24l169 -338l21 -64h2zM355 731q-87 0 -130.5 35t-43.5 92q17 18 72 22
l24 -13v-86q28 -14 79 -14t79 11v59l24 13q39 0 68 -22q0 -42 -42 -69.5t-130 -27.5zM297 809l107 144q17 2 49.5 -8.5t43.5 -23.5v-20l-184 -111z" />
    <glyph glyph-name="afii10110.var.accented" unicode="&#x45e;`" horiz-adv-x="503" 
d="M250 0l-207 452q-21 5 -53 24v24h203v-23q-21 -14 -57 -25l130 -301l20 -62h2l15 63l97 300q-30 6 -55 24v24h168v-24q-21 -14 -57 -24l-155 -452q-31 -83 -60.5 -128.5t-55 -62t-64.5 -24.5q-16 28 -32 83l13 24h102q13 16 21 35.5t25 72.5zM273 561q-164 0 -164 122
q29 22 72 27l24 -13v-89q25 -11 69 -11q40 0 69 8v72l24 13q43 -6 68 -27q0 -38 -38.5 -70t-123.5 -32zM224 644l100 161q16 2 46.5 -5.5t41.5 -16.5v-19l-168 -137z" />
    <glyph glyph-name="afii10148.var.accented" unicode="&#x474;`" horiz-adv-x="693" 
d="M658 712q19 -8 36 -48t18 -68l-14 -23l-95 27q-69 -100 -141 -277t-100 -335h-34l-252 660q-43 11 -76 24v28h258v-28q-34 -13 -82 -24l158 -437l21 -78h2l13 78q37 137 100 272t116 194q27 30 72 35zM315 769l147 124q17 2 49.5 -8.5t43.5 -23.5v-20l-224 -91z" />
    <glyph glyph-name="afii10196.var.accented" unicode="&#x475;`" horiz-adv-x="506" 
d="M332 174l-53 -174l-41 -12l-195 464q-29 10 -53 24v24h203v-23q-32 -17 -57 -25l119 -306l13 -52h2l10 59q50 204 117 308q18 27 42.5 39.5t44.5 8.5q15 -13 27.5 -41t14.5 -52l-13 -24l-84 20q-49 -79 -97 -238zM224 594l118 174q16 2 46.5 -5.5t41.5 -16.5v-19
l-186 -150z" />
    <glyph glyph-name="uni04AE.var.accented" unicode="&#x4ae;`" horiz-adv-x="638" 
d="M421 672v28h217v-28q-37 -18 -76 -24l-189 -350v-246q39 -5 76 -24v-28h-248v28q36 18 82 24v245l-202 351q-36 6 -81 24v28h258v-28q-32 -13 -77 -24l166 -297l156 297q-48 11 -82 24zM315 769l147 124q17 2 49.5 -8.5t43.5 -23.5v-20l-224 -91z" />
    <glyph glyph-name="uni04AF.var.accented" unicode="&#x4af;`" horiz-adv-x="504" 
d="M364 -176v-24h-216v24q26 14 66 24v197l-171 407q-29 10 -53 24v24h203v-23q-32 -17 -57 -25l119 -306l20 -62h2l15 63l109 305q-27 6 -55 24v24h168v-24q-18 -13 -57 -24l-159 -404v-200q43 -10 66 -24zM224 594l118 174q16 2 46.5 -5.5t41.5 -16.5v-19l-186 -150z" />
    <glyph glyph-name="uni04B0.var.accented" unicode="&#x4b0;`" horiz-adv-x="638" 
d="M421 672v28h217v-28q-37 -18 -76 -24l-189 -350h146v-50h-146v-196q39 -5 76 -24v-28h-248v28q36 18 82 24v196h-146v50h145l-201 350q-36 6 -81 24v28h258v-28q-32 -13 -77 -24l166 -297l156 297q-48 11 -82 24zM315 769l147 124q17 2 49.5 -8.5t43.5 -23.5v-20
l-224 -91z" />
    <glyph glyph-name="uni04B1.var.accented" unicode="&#x4b1;`" horiz-adv-x="504" 
d="M90 0v50h122l-169 402q-29 10 -53 24v24h203v-23q-32 -17 -57 -25l92 -238l45 -130h2l41 131l85 237q-27 6 -55 24v24h168v-24q-18 -13 -57 -24l-158 -402h123v-50h-123l-1 -152q43 -10 66 -24v-24h-216v24q26 14 66 24v152h-124zM224 594l118 174q16 2 46.5 -5.5
t41.5 -16.5v-19l-186 -150z" />
    <glyph glyph-name="uni04D0.var.accented" unicode="&#x4d0;`" horiz-adv-x="678" 
d="M219 28v-28h-219v28q36 16 72 24l253 660h24l253 -660q51 -10 76 -24v-28h-250v28q48 18 82 24l-69 185h-241l-67 -185q42 -6 86 -24zM298 500l-78 -213h204l-80 215l-19 86h-2zM342 731q-87 0 -130.5 35t-43.5 92q17 18 72 22l24 -13v-86q28 -14 79 -14t79 11v59l24 13
q39 0 68 -22q0 -42 -42 -69.5t-130 -27.5zM284 809l107 144q17 2 49.5 -8.5t43.5 -23.5v-20l-184 -111z" />
    <glyph glyph-name="uni04D1.var.accented" unicode="&#x4d1;`" horiz-adv-x="499" 
d="M403 130q0 -13 0.5 -25t1.5 -25.5t1 -21.5l69 -10v-20q-52 -27 -109 -38h-24q-13 31 -15 112h-5q-8 -45 -47 -79.5t-98 -34.5q-61 0 -99 37t-38 96q0 37 12.5 63.5t34 43t59 27.5t77.5 16t100 8q9 92 -10 141.5t-76 49.5q-41 0 -67 -10l-47 -120h-24q-21 65 -25 124
q80 48 184 48q48 0 79.5 -14t46 -39.5t19.5 -49.5t5 -56q0 -41 -2.5 -115.5t-2.5 -107.5zM214 48q44 0 71 29t38 60v105q-113 1 -153 -23.5t-40 -79.5q0 -43 22.5 -67t61.5 -24zM253 561q-164 0 -164 122q29 22 72 27l24 -13v-89q25 -11 69 -11q40 0 69 8v72l24 13
q43 -6 68 -27q0 -38 -38.5 -70t-123.5 -32zM204 644l100 161q16 2 46.5 -5.5t41.5 -16.5v-19l-168 -137z" />
    <glyph glyph-name="uni04D2.var.accented" unicode="&#x4d2;`" horiz-adv-x="678" 
d="M219 28v-28h-219v28q36 16 72 24l253 660h24l253 -660q51 -10 76 -24v-28h-250v28q48 18 82 24l-69 185h-241l-67 -185q42 -6 86 -24zM298 500l-78 -213h204l-80 215l-19 86h-2zM156 787q0 22 13 34.5t33 12.5q21 0 33.5 -12t12.5 -35q0 -21 -12.5 -32.5t-33.5 -11.5
q-20 0 -33 12t-13 32zM432 787q0 23 12.5 35t33.5 12q20 0 33 -12.5t13 -34.5q0 -20 -13 -32t-33 -12q-21 0 -33.5 11.5t-12.5 32.5zM264 759l106 142q14 2 41.5 -8.5t37.5 -23.5v-19l-171 -110z" />
    <glyph glyph-name="uni04D3.var.accented" unicode="&#x4d3;`" horiz-adv-x="499" 
d="M403 130q0 -13 0.5 -25t1.5 -25.5t1 -21.5l69 -10v-20q-52 -27 -109 -38h-24q-13 31 -15 112h-5q-8 -45 -47 -79.5t-98 -34.5q-61 0 -99 37t-38 96q0 37 12.5 63.5t34 43t59 27.5t77.5 16t100 8q9 92 -10 141.5t-76 49.5q-41 0 -67 -10l-47 -120h-24q-21 65 -25 124
q80 48 184 48q48 0 79.5 -14t46 -39.5t19.5 -49.5t5 -56q0 -41 -2.5 -115.5t-2.5 -107.5zM214 48q44 0 71 29t38 60v105q-113 1 -153 -23.5t-40 -79.5q0 -43 22.5 -67t61.5 -24zM80 662q0 20 12.5 32t32.5 12t32.5 -12t12.5 -32q0 -19 -12.5 -30.5t-32.5 -11.5t-32.5 11.5
t-12.5 30.5zM314 662q0 20 12.5 32t32.5 12t32.5 -12t12.5 -32q0 -19 -12.5 -30.5t-32.5 -11.5t-32.5 11.5t-12.5 30.5zM182 617l76 171q14 2 40.5 -6.5t40.5 -18.5v-16l-133 -140z" />
    <glyph glyph-name="uni04D4.var.accented" unicode="&#x4d4;`" horiz-adv-x="917" 
d="M836 700q-2 -97 -10 -160h-24l-41 110h-221v-268h167l39 74h24q6 -99 0 -200h-24l-39 76h-167v-282h234l48 120h24q14 -97 10 -170h-488v28q35 16 82 24v205h-197l-118 -205q42 -6 86 -24v-28h-221v28q36 16 72 24l354 601q-34 9 -58 19v28h468zM406 520l-124 -213h168
v306h-2zM465 769l147 124q17 2 49.5 -8.5t43.5 -23.5v-20l-224 -91z" />
    <glyph glyph-name="uni04D5.var.accented" unicode="&#x4d5;`" horiz-adv-x="773" 
d="M386 452q27 30 59.5 45t93.5 15q42 0 77 -12.5t65 -42.5t39 -80.5t-2 -125.5h-312q1 -91 44 -147t127 -56q35 0 71.5 10.5t53.5 25.5l14 -15q-16 -34 -63.5 -57.5t-98.5 -23.5q-63 0 -120.5 25.5t-84.5 85.5q-16 -48 -63 -79.5t-109 -31.5q-61 0 -99 37t-38 96
q0 37 12.5 63.5t34 43t59 27.5t77.5 16t100 8q9 92 -10 141.5t-76 49.5q-41 0 -67 -10l-47 -120h-24q-21 65 -25 124q80 48 184 48q102 0 128 -60zM214 48q45 0 72 27.5t37 57.5v109q-113 1 -153 -23.5t-40 -79.5q0 -43 22.5 -67t61.5 -24zM535 470q-59 0 -89.5 -41
t-36.5 -136h226q7 81 -18.5 129t-81.5 48zM324 594l118 174q16 2 46.5 -5.5t41.5 -16.5v-19l-186 -150z" />
    <glyph glyph-name="uni04D6.var.accented" unicode="&#x4d6;`" horiz-adv-x="579" 
d="M30 700h468q-2 -97 -10 -160h-24l-41 110h-221v-268h167l39 74h24q6 -99 0 -200h-24l-39 76h-167v-282h234l48 120h24q14 -97 10 -170h-488v28q35 16 82 24v596q-42 8 -82 24v28zM277 731q-87 0 -130.5 35t-43.5 92q17 18 72 22l24 -13v-86q28 -14 79 -14t79 11v59l24 13
q39 0 68 -22q0 -42 -42 -69.5t-130 -27.5zM219 809l107 144q17 2 49.5 -8.5t43.5 -23.5v-20l-184 -111z" />
    <glyph glyph-name="uni04D7.var.accented" unicode="&#x4d7;`" horiz-adv-x="499" 
d="M263 561q-164 0 -164 122q29 22 72 27l24 -13v-89q25 -11 69 -11q40 0 69 8v72l24 13q43 -6 68 -27q0 -38 -38.5 -70t-123.5 -32zM214 644l100 161q16 2 46.5 -5.5t41.5 -16.5v-19l-168 -137zM428 84l14 -15q-16 -34 -63.5 -57.5t-98.5 -23.5q-115 0 -176.5 70t-61.5 192
q0 126 58.5 194t164.5 68q42 0 77 -12.5t65 -42.5t39 -80.5t-2 -125.5h-312q1 -91 44 -147t127 -56q35 0 71.5 10.5t53.5 25.5zM261 470q-59 0 -89.5 -41t-36.5 -136h226q7 81 -18.5 129t-81.5 48z" />
    <glyph glyph-name="uni04D8.var.accented" unicode="&#x4d8;`" horiz-adv-x="709" 
d="M361 -12q-145 0 -226 82.5t-81 241.5q0 27 3 59h506q-5 137 -70.5 214t-189.5 77q-83 0 -109 -14l-52 -144h-24q-17 90 -13 168q82 40 201 40q173 0 261 -91.5t88 -270.5q0 -174 -80 -268t-214 -94zM358 38q94 0 147.5 71t57.5 212h-411q-2 -28 -2 -41q0 -104 57.5 -173
t150.5 -69zM245 769l147 124q17 2 49.5 -8.5t43.5 -23.5v-20l-224 -91z" />
    <glyph glyph-name="afii10846.var.accented" unicode="&#x4d9;`" horiz-adv-x="515" 
d="M253 470q-41 0 -67 -10l-47 -120h-24q-21 65 -25 124q80 48 175 48q221 0 221 -262q0 -126 -58.5 -194t-164.5 -68q-42 0 -80 15t-69.5 46t-45 86t-0.5 127h331q-1 97 -33 152.5t-113 55.5zM267 30q117 0 129 190h-245q-7 -85 25.5 -137.5t90.5 -52.5zM227 594l118 174
q16 2 46.5 -5.5t41.5 -16.5v-19l-186 -150z" />
    <glyph glyph-name="uni04DA.var.accented" unicode="&#x4da;`" horiz-adv-x="709" 
d="M361 -12q-145 0 -226 82.5t-81 241.5q0 27 3 59h506q-5 137 -70.5 214t-189.5 77q-83 0 -109 -14l-52 -144h-24q-17 90 -13 168q82 40 201 40q173 0 261 -91.5t88 -270.5q0 -174 -80 -268t-214 -94zM358 38q94 0 147.5 71t57.5 212h-411q-2 -28 -2 -41q0 -104 57.5 -173
t150.5 -69zM150 787q0 22 13 34.5t33 12.5q21 0 33.5 -12t12.5 -35q0 -21 -12.5 -32.5t-33.5 -11.5q-20 0 -33 12t-13 32zM426 787q0 23 12.5 35t33.5 12q20 0 33 -12.5t13 -34.5q0 -20 -13 -32t-33 -12q-21 0 -33.5 11.5t-12.5 32.5zM258 759l106 142q14 2 41.5 -8.5
t37.5 -23.5v-19l-171 -110z" />
    <glyph glyph-name="uni04DB.var.accented" unicode="&#x4db;`" horiz-adv-x="515" 
d="M253 470q-41 0 -67 -10l-47 -120h-24q-21 65 -25 124q80 48 175 48q221 0 221 -262q0 -126 -58.5 -194t-164.5 -68q-42 0 -80 15t-69.5 46t-45 86t-0.5 127h331q-1 97 -33 152.5t-113 55.5zM267 30q117 0 129 190h-245q-7 -85 25.5 -137.5t90.5 -52.5zM108 662
q0 20 12.5 32t32.5 12t32.5 -12t12.5 -32q0 -19 -12.5 -30.5t-32.5 -11.5t-32.5 11.5t-12.5 30.5zM342 662q0 20 12.5 32t32.5 12t32.5 -12t12.5 -32q0 -19 -12.5 -30.5t-32.5 -11.5t-32.5 11.5t-12.5 30.5zM210 617l76 171q14 2 40.5 -6.5t40.5 -18.5v-16l-133 -140z" />
    <glyph glyph-name="uni04E2.var.accented" unicode="&#x4e2;`" horiz-adv-x="734" 
d="M278 28v-28h-248v28q40 18 82 24v596q-51 11 -82 24v28h248v-28q-39 -18 -76 -24v-440l-10 -75l48 79l297 412v24q-47 10 -81 24v28h248v-28q-28 -13 -82 -24v-596q47 -8 82 -24v-28h-248v28q43 18 76 24v439l10 74l-44 -74l-301 -417v-22q41 -7 81 -24zM315 869l147 124
q17 2 49.5 -8.5t43.5 -23.5v-20l-224 -91zM521 789h-299v50h299v-50z" />
    <glyph glyph-name="uni04E3.var.accented" unicode="&#x4e3;`" horiz-adv-x="606" 
d="M40 476v24h206v-24q-23 -13 -60 -24v-280l-11 -93h5l39 75l218 346h129v-24q-32 -18 -66 -24v-404q48 -13 66 -24v-24h-206v24q28 16 60 24v291l10 79h-5l-38 -75l-216 -343h-131v24q26 13 66 24v404q-39 6 -66 24zM441 599h-249v50h249v-50zM264 687l118 174
q16 2 46.5 -5.5t41.5 -16.5v-19l-186 -150z" />
    <glyph glyph-name="uni04E4.var.accented" unicode="&#x4e4;`" horiz-adv-x="734" 
d="M278 28v-28h-248v28q40 18 82 24v596q-51 11 -82 24v28h248v-28q-39 -18 -76 -24v-440l-10 -75l48 79l297 412v24q-47 10 -81 24v28h248v-28q-28 -13 -82 -24v-596q47 -8 82 -24v-28h-248v28q43 18 76 24v439l10 74l-44 -74l-301 -417v-22q41 -7 81 -24zM185 787
q0 22 13 34.5t33 12.5q21 0 33.5 -12t12.5 -35q0 -21 -12.5 -32.5t-33.5 -11.5q-20 0 -33 12t-13 32zM461 787q0 23 12.5 35t33.5 12q20 0 33 -12.5t13 -34.5q0 -20 -13 -32t-33 -12q-21 0 -33.5 11.5t-12.5 32.5zM293 759l106 142q14 2 41.5 -8.5t37.5 -23.5v-19l-171 -110
z" />
    <glyph glyph-name="uni04E5.var.accented" unicode="&#x4e5;`" horiz-adv-x="606" 
d="M40 476v24h206v-24q-23 -13 -60 -24v-280l-11 -93h5l39 75l218 346h129v-24q-32 -18 -66 -24v-404q48 -13 66 -24v-24h-206v24q28 16 60 24v291l10 79h-5l-38 -75l-216 -343h-131v24q26 13 66 24v404q-39 6 -66 24zM143 662q0 20 12.5 32t32.5 12t32.5 -12t12.5 -32
q0 -19 -12.5 -30.5t-32.5 -11.5t-32.5 11.5t-12.5 30.5zM377 662q0 20 12.5 32t32.5 12t32.5 -12t12.5 -32q0 -19 -12.5 -30.5t-32.5 -11.5t-32.5 11.5t-12.5 30.5zM245 617l76 171q14 2 40.5 -6.5t40.5 -18.5v-16l-133 -140z" />
    <glyph glyph-name="uni04E6.var.accented" unicode="&#x4e6;`" horiz-adv-x="738" 
d="M185 787q0 22 13 34.5t33 12.5q21 0 33.5 -12t12.5 -35q0 -21 -12.5 -32.5t-33.5 -11.5q-20 0 -33 12t-13 32zM461 787q0 23 12.5 35t33.5 12q20 0 33 -12.5t13 -34.5q0 -20 -13 -32t-33 -12q-21 0 -33.5 11.5t-12.5 32.5zM293 759l106 142q14 2 41.5 -8.5t37.5 -23.5
v-19l-171 -110zM54 350q0 160 84.5 261t230.5 101t230.5 -101t84.5 -261t-84.5 -261t-230.5 -101t-230.5 101t-84.5 261zM154 350q0 -135 58 -223.5t166 -88.5q100 0 153 88t53 224t-57 224t-166 88q-105 0 -156 -87t-51 -225z" />
    <glyph glyph-name="uni04E7.var.accented" unicode="&#x4e7;`" horiz-adv-x="548" 
d="M112 662q0 20 12.5 32t32.5 12t32.5 -12t12.5 -32q0 -19 -12.5 -30.5t-32.5 -11.5t-32.5 11.5t-12.5 30.5zM346 662q0 20 12.5 32t32.5 12t32.5 -12t12.5 -32q0 -19 -12.5 -30.5t-32.5 -11.5t-32.5 11.5t-12.5 30.5zM214 617l76 171q14 2 40.5 -6.5t40.5 -18.5v-16
l-133 -140zM42 250q0 124 62.5 193t169.5 69q118 0 175 -69t57 -193t-62.5 -193t-169.5 -69q-115 0 -173.5 70t-58.5 192zM132 250q0 -98 39 -159t120 -61q56 0 90.5 56t34.5 164q0 98 -37 159t-113 61q-62 0 -98 -55.5t-36 -164.5z" />
    <glyph glyph-name="uni04E8.var.accented" unicode="&#x4e8;`" horiz-adv-x="738" 
d="M54 350q0 160 84.5 261t230.5 101t230.5 -101t84.5 -261t-84.5 -261t-230.5 -101t-230.5 101t-84.5 261zM378 38q96 0 148.5 81t56.5 209h-429q5 -127 62.5 -208.5t161.5 -81.5zM361 662q-98 0 -149 -76t-57 -200h428q-8 123 -64 199.5t-158 76.5zM319 769l147 124
q17 2 49.5 -8.5t43.5 -23.5v-20l-224 -91z" />
    <glyph glyph-name="uni04E9.var.accented" unicode="&#x4e9;`" horiz-adv-x="548" 
d="M42 250q0 124 62.5 193t169.5 69q118 0 175 -69t57 -193t-62.5 -193t-169.5 -69q-115 0 -173.5 70t-58.5 192zM266 470q-58 0 -93.5 -48.5t-39.5 -142.5h282q-6 86 -43 138.5t-106 52.5zM291 30q53 0 87 50.5t37 148.5h-283q4 -90 43 -144.5t116 -54.5zM224 594l118 174
q16 2 46.5 -5.5t41.5 -16.5v-19l-186 -150z" />
    <glyph glyph-name="uni04EA.var.accented" unicode="&#x4ea;`" horiz-adv-x="738" 
d="M54 350q0 160 84.5 261t230.5 101t230.5 -101t84.5 -261t-84.5 -261t-230.5 -101t-230.5 101t-84.5 261zM378 38q96 0 148.5 81t56.5 209h-429q5 -127 62.5 -208.5t161.5 -81.5zM361 662q-98 0 -149 -76t-57 -200h428q-8 123 -64 199.5t-158 76.5zM185 787q0 22 13 34.5
t33 12.5q21 0 33.5 -12t12.5 -35q0 -21 -12.5 -32.5t-33.5 -11.5q-20 0 -33 12t-13 32zM461 787q0 23 12.5 35t33.5 12q20 0 33 -12.5t13 -34.5q0 -20 -13 -32t-33 -12q-21 0 -33.5 11.5t-12.5 32.5zM293 759l106 142q14 2 41.5 -8.5t37.5 -23.5v-19l-171 -110z" />
    <glyph glyph-name="uni04EB.var.accented" unicode="&#x4eb;`" horiz-adv-x="548" 
d="M42 250q0 124 62.5 193t169.5 69q118 0 175 -69t57 -193t-62.5 -193t-169.5 -69q-115 0 -173.5 70t-58.5 192zM266 470q-58 0 -93.5 -48.5t-39.5 -142.5h282q-6 86 -43 138.5t-106 52.5zM291 30q53 0 87 50.5t37 148.5h-283q4 -90 43 -144.5t116 -54.5zM118 662
q0 20 12.5 32t32.5 12t32.5 -12t12.5 -32q0 -19 -12.5 -30.5t-32.5 -11.5t-32.5 11.5t-12.5 30.5zM352 662q0 20 12.5 32t32.5 12t32.5 -12t12.5 -32q0 -19 -12.5 -30.5t-32.5 -11.5t-32.5 11.5t-12.5 30.5zM220 617l76 171q14 2 40.5 -6.5t40.5 -18.5v-16l-133 -140z" />
    <glyph glyph-name="uni04EC.var.accented" unicode="&#x4ec;`" horiz-adv-x="631" 
d="M484 345l-295 -30q-10 36 0 75h295q-7 134 -73 203t-180 69q-63 0 -80 -19l-52 -122h-24q-12 69 -10 150q53 41 172 41q166 0 253 -86.5t87 -275.5q0 -91 -27.5 -162.5t-74.5 -114t-104.5 -64t-122.5 -21.5q-118 0 -188 34q4 90 14 170h24l52 -144q19 -10 89 -10
q98 0 171 81.5t74 225.5zM90 787q0 22 13 34.5t33 12.5q21 0 33.5 -12t12.5 -35q0 -21 -12.5 -32.5t-33.5 -11.5q-20 0 -33 12t-13 32zM366 787q0 23 12.5 35t33.5 12q20 0 33 -12.5t13 -34.5q0 -20 -13 -32t-33 -12q-21 0 -33.5 11.5t-12.5 32.5zM198 759l106 142
q14 2 41.5 -8.5t37.5 -23.5v-19l-171 -110z" />
    <glyph glyph-name="uni04ED.var.accented" unicode="&#x4ed;`" horiz-adv-x="489" 
d="M219 -12q-106 0 -171 60l17 64h19l60 -71q21 -8 62 -8q67 0 108.5 55t42.5 148l-200 -15q-11 26 0 52h199q-8 197 -148 197q-41 0 -51 -7l-44 -123h-24q-17 56 -25 133q74 39 161 39q222 0 222 -252q0 -134 -66 -203t-162 -69zM80 662q0 20 12.5 32t32.5 12t32.5 -12
t12.5 -32q0 -19 -12.5 -30.5t-32.5 -11.5t-32.5 11.5t-12.5 30.5zM314 662q0 20 12.5 32t32.5 12t32.5 -12t12.5 -32q0 -19 -12.5 -30.5t-32.5 -11.5t-32.5 11.5t-12.5 30.5zM182 617l76 171q14 2 40.5 -6.5t40.5 -18.5v-16l-133 -140z" />
    <glyph glyph-name="uni04EE.var.accented" unicode="&#x4ee;`" horiz-adv-x="657" 
d="M388 312l134 336q-48 7 -86 24v28h221v-28q-25 -12 -72 -24l-196 -447q-46 -117 -87 -167t-97 -39q-22 35 -29 106l13 24l101 -26q19 17 33 69l-247 480q-47 11 -76 24v28h258v-28q-33 -13 -82 -24l169 -338l21 -64h2zM281 869l147 124q17 2 49.5 -8.5t43.5 -23.5v-20
l-224 -91zM497 789h-299v50h299v-50z" />
    <glyph glyph-name="uni04EF.var.accented" unicode="&#x4ef;`" horiz-adv-x="503" 
d="M250 0l-207 452q-21 5 -53 24v24h203v-23q-21 -14 -57 -25l130 -301l20 -62h2l15 63l97 300q-30 6 -55 24v24h168v-24q-21 -14 -57 -24l-155 -452q-31 -83 -60.5 -128.5t-55 -62t-64.5 -24.5q-16 28 -32 83l13 24h102q13 16 21 35.5t25 72.5zM391 599h-249v50h249v-50z
M214 687l118 174q16 2 46.5 -5.5t41.5 -16.5v-19l-186 -150z" />
    <glyph glyph-name="uni04F0.var.accented" unicode="&#x4f0;`" horiz-adv-x="657" 
d="M388 312l134 336q-48 7 -86 24v28h221v-28q-25 -12 -72 -24l-196 -447q-46 -117 -87 -167t-97 -39q-22 35 -29 106l13 24l101 -26q19 17 33 69l-247 480q-47 11 -76 24v28h258v-28q-33 -13 -82 -24l169 -338l21 -64h2zM161 787q0 22 13 34.5t33 12.5q21 0 33.5 -12
t12.5 -35q0 -21 -12.5 -32.5t-33.5 -11.5q-20 0 -33 12t-13 32zM437 787q0 23 12.5 35t33.5 12q20 0 33 -12.5t13 -34.5q0 -20 -13 -32t-33 -12q-21 0 -33.5 11.5t-12.5 32.5zM269 759l106 142q14 2 41.5 -8.5t37.5 -23.5v-19l-171 -110z" />
    <glyph glyph-name="uni04F1.var.accented" unicode="&#x4f1;`" horiz-adv-x="503" 
d="M250 0l-207 452q-21 5 -53 24v24h203v-23q-21 -14 -57 -25l130 -301l20 -62h2l15 63l97 300q-30 6 -55 24v24h168v-24q-21 -14 -57 -24l-155 -452q-31 -83 -60.5 -128.5t-55 -62t-64.5 -24.5q-16 28 -32 83l13 24h102q13 16 21 35.5t25 72.5zM109 662q0 20 12.5 32
t32.5 12t32.5 -12t12.5 -32q0 -19 -12.5 -30.5t-32.5 -11.5t-32.5 11.5t-12.5 30.5zM343 662q0 20 12.5 32t32.5 12t32.5 -12t12.5 -32q0 -19 -12.5 -30.5t-32.5 -11.5t-32.5 11.5t-12.5 30.5zM211 617l76 171q14 2 40.5 -6.5t40.5 -18.5v-16l-133 -140z" />
    <glyph glyph-name="uni04F2.var.accented" unicode="&#x4f2;`" horiz-adv-x="657" 
d="M388 312l134 336q-48 7 -86 24v28h221v-28q-25 -12 -72 -24l-196 -447q-46 -117 -87 -167t-97 -39q-22 35 -29 106l13 24l101 -26q19 17 33 69l-247 480q-47 11 -76 24v28h258v-28q-33 -13 -82 -24l169 -338l21 -64h2zM190 777l70 111q14 2 42.5 -5.5t34.5 -17.5v-14
l-130 -92zM376 775l135 102q15 2 44 -6.5t38 -19.5l-1 -10l-197 -84zM318 804l119 150q15 1 36 -5.5t32 -16.5v-19l-167 -126z" />
    <glyph glyph-name="uni04F3.var.accented" unicode="&#x4f3;`" horiz-adv-x="503" 
d="M250 0l-207 452q-21 5 -53 24v24h203v-23q-21 -14 -57 -25l130 -301l20 -62h2l15 63l97 300q-30 6 -55 24v24h168v-24q-21 -14 -57 -24l-155 -452q-31 -83 -60.5 -128.5t-55 -62t-64.5 -24.5q-16 28 -32 83l13 24h102q13 16 21 35.5t25 72.5zM129 615l78 153
q14 2 44.5 -5.5t36.5 -15.5v-14l-138 -133zM305 617l133 151q16 2 44 -6.5t38 -21.5v-12l-198 -128zM271 662l79 176q16 2 46.5 -5.5t41.5 -16.5v-19l-147 -152z" />
    <glyph glyph-name="uni04F8.var.accented" unicode="&#x4f8;`" horiz-adv-x="834" 
d="M804 28v-28h-248v28q29 15 78 24v596q-46 9 -78 24v28h248v-28q-35 -17 -80 -24v-596q41 -6 80 -24zM155 0h-125v28q39 18 82 24v596q-42 8 -82 24v28h260v-28q-43 -17 -88 -24v-231q56 7 90 7q247 0 247 -206q0 -75 -39.5 -126.5t-96.5 -73t-124 -21.5q-3 0 -51.5 1.5
t-72.5 1.5zM272 374q-48 0 -70 -6v-316q16 -5 73 -5q74 0 119 44.5t45 127.5q0 76 -42 115.5t-125 39.5zM233 787q0 22 13 34.5t33 12.5q21 0 33.5 -12t12.5 -35q0 -21 -12.5 -32.5t-33.5 -11.5q-20 0 -33 12t-13 32zM509 787q0 23 12.5 35t33.5 12q20 0 33 -12.5t13 -34.5
q0 -20 -13 -32t-33 -12q-21 0 -33.5 11.5t-12.5 32.5zM341 759l106 142q14 2 41.5 -8.5t37.5 -23.5v-19l-171 -110z" />
    <glyph glyph-name="uni04F9.var.accented" unicode="&#x4f9;`" horiz-adv-x="737" 
d="M190 452v-156q59 8 98 8q78 0 121.5 -36t43.5 -109q0 -78 -53.5 -120.5t-141.5 -42.5q-16 0 -57 2t-68 2h-93v24q25 15 66 24v404q-29 3 -66 24v24h210v-24q-22 -14 -60 -24zM190 257v-215q6 0 25 -2t29 -2q117 0 117 122q0 53 -30.5 77.5t-78.5 24.5q-36 0 -62 -5z
M697 24v-24h-210v24q35 17 60 24v404q-37 8 -60 24v24h210v-24q-20 -14 -66 -24v-404q40 -11 66 -24zM206 662q0 20 12.5 32t32.5 12t32.5 -12t12.5 -32q0 -19 -12.5 -30.5t-32.5 -11.5t-32.5 11.5t-12.5 30.5zM440 662q0 20 12.5 32t32.5 12t32.5 -12t12.5 -32
q0 -19 -12.5 -30.5t-32.5 -11.5t-32.5 11.5t-12.5 30.5zM308 617l76 171q14 2 40.5 -6.5t40.5 -18.5v-16l-133 -140z" />
    <glyph glyph-name="uniF37E.var.accented" unicode="&#xf37e;`" horiz-adv-x="564" 
d="M336 256l107 238q-38 7 -71 20v25h192v-25q-22 -10 -61 -20l-166 -339q-39 -89 -76.5 -128t-85.5 -31q-23 32 -28 88l13 23l90 -23q14 12 27 47l-214 363q-32 8 -63 20v25h231v-25q-31 -12 -68 -20l137 -239l18 -49h1zM306 581q-164 0 -164 122q29 22 72 27l24 -13v-89
q25 -11 69 -11q40 0 69 8v72l24 13q43 -6 68 -27q0 -38 -38.5 -70t-123.5 -32zM257 664l100 161q16 2 46.5 -5.5t41.5 -16.5v-19l-168 -137z" />
    <glyph glyph-name="uniF3A2.var.accented" unicode="&#xf3a2;`" horiz-adv-x="554" 
d="M364 514v25h190v-25q-36 -16 -63 -20l-161 -266v-183q32 -4 65 -20v-25h-224v25q31 14 70 20v182l-172 267q-28 4 -69 20v25h233v-25q-38 -14 -65 -20l137 -219l129 219q-38 9 -70 20zM274 614l118 174q16 2 46.5 -5.5t41.5 -16.5v-19l-186 -150z" />
    <glyph glyph-name="uniF3A3.accented" unicode="&#xf3a3;`" horiz-adv-x="554" 
d="M364 514v25h190v-25q-36 -16 -63 -20l-161 -266h122v-43h-122v-140q32 -4 65 -20v-25h-224v25q31 14 70 20v140h-122v43h121l-171 266q-28 4 -69 20v25h233v-25q-38 -14 -65 -20l137 -219l129 219q-38 9 -70 20zM274 614l118 174q16 2 46.5 -5.5t41.5 -16.5v-19
l-186 -150z" />
    <glyph glyph-name="uniF3B2.var.accented" unicode="&#xf3b2;`" horiz-adv-x="587" 
d="M192 25v-25h-192v25q31 14 61 20l214 503h31l216 -503q41 -7 65 -20v-25h-225v25q42 15 69 20l-56 134h-201l-56 -134q37 -4 74 -20zM255 379l-65 -157h170l-67 158l-16 67h-2zM293 581q-164 0 -164 122q29 22 72 27l24 -13v-89q25 -11 69 -11q40 0 69 8v72l24 13
q43 -6 68 -27q0 -38 -38.5 -70t-123.5 -32zM244 664l100 161q16 2 46.5 -5.5t41.5 -16.5v-19l-168 -137z" />
    <glyph glyph-name="uniF3B3.var.accented" unicode="&#xf3b3;`" horiz-adv-x="587" 
d="M192 25v-25h-192v25q31 14 61 20l214 503h31l216 -503q41 -7 65 -20v-25h-225v25q42 15 69 20l-56 134h-201l-56 -134q37 -4 74 -20zM255 379l-65 -157h170l-67 158l-16 67h-2zM137 682q0 20 12.5 32t32.5 12t32.5 -12t12.5 -32q0 -19 -12.5 -30.5t-32.5 -11.5
t-32.5 11.5t-12.5 30.5zM371 682q0 20 12.5 32t32.5 12t32.5 -12t12.5 -32q0 -19 -12.5 -30.5t-32.5 -11.5t-32.5 11.5t-12.5 30.5zM239 637l76 171q14 2 40.5 -6.5t40.5 -18.5v-16l-133 -140z" />
    <glyph glyph-name="uniF3B4.var.accented" unicode="&#xf3b4;`" horiz-adv-x="800" 
d="M723 539q-2 -75 -11 -130h-24l-36 87h-180v-199h132l35 58h21q6 -79 0 -161h-21l-35 60h-132v-211h190l42 95h24q14 -81 11 -138h-425v25q37 15 69 20v149h-166l-96 -149q38 -6 71 -20v-25h-192v25q31 14 61 20l298 453q-16 4 -48 16v25h412zM347 395l-102 -158h138v229
h-2zM380 614l118 174q16 2 46.5 -5.5t41.5 -16.5v-19l-186 -150z" />
    <glyph glyph-name="uniF3B5.var.accented" unicode="&#xf3b5;`" horiz-adv-x="516" 
d="M30 539h409q-2 -72 -10 -130h-24l-36 87h-181v-199h133l34 58h22q6 -79 0 -161h-22l-34 60h-133v-211h191l42 95h24q13 -76 10 -138h-425v25q37 15 69 20v449q-35 6 -69 20v25zM250 581q-164 0 -164 122q29 22 72 27l24 -13v-89q25 -11 69 -11q40 0 69 8v72l24 13
q43 -6 68 -27q0 -38 -38.5 -70t-123.5 -32zM201 664l100 161q16 2 46.5 -5.5t41.5 -16.5v-19l-168 -137z" />
    <glyph glyph-name="uniF3B6.var.accented" unicode="&#xf3b6;`" horiz-adv-x="626" 
d="M316 -9q-124 0 -193 63t-69 185q0 23 3 49h420q-3 105 -55 161t-154 56q-67 0 -89 -11l-45 -114h-24q-16 78 -12 136q71 32 175 32q147 0 223 -70.5t76 -207.5q0 -135 -69 -207t-187 -72zM316 34q75 0 116 54t45 157h-326q-2 -22 -2 -34q0 -76 45.5 -126.5t121.5 -50.5z
M240 614l118 174q16 2 46.5 -5.5t41.5 -16.5v-19l-186 -150z" />
    <glyph glyph-name="uniF3B7.accented" unicode="&#xf3b7;`" horiz-adv-x="626" 
d="M316 -9q-124 0 -193 63t-69 185q0 23 3 49h420q-3 105 -55 161t-154 56q-67 0 -89 -11l-45 -114h-24q-16 78 -12 136q71 32 175 32q147 0 223 -70.5t76 -207.5q0 -135 -69 -207t-187 -72zM316 34q75 0 116 54t45 157h-326q-2 -22 -2 -34q0 -76 45.5 -126.5t121.5 -50.5z
M136 682q0 20 12.5 32t32.5 12t32.5 -12t12.5 -32q0 -19 -12.5 -30.5t-32.5 -11.5t-32.5 11.5t-12.5 30.5zM370 682q0 20 12.5 32t32.5 12t32.5 -12t12.5 -32q0 -19 -12.5 -30.5t-32.5 -11.5t-32.5 11.5t-12.5 30.5zM238 637l76 171q14 2 40.5 -6.5t40.5 -18.5v-16
l-133 -140z" />
    <glyph glyph-name="uniF3BB.var.accented" unicode="&#xf3bb;`" horiz-adv-x="648" 
d="M252 25v-25h-222v25q39 16 69 20v449q-43 9 -69 20v25h222v-25q-34 -15 -64 -20v-320l-9 -59l41 62l244 299v18q-37 8 -69 20v25h223v-25q-25 -11 -70 -20v-449q37 -6 70 -20v-25h-223v25q33 13 64 20v319l9 59l-38 -59l-247 -302v-17q33 -5 69 -20zM448 619h-249v50h249
v-50zM271 707l118 174q16 2 46.5 -5.5t41.5 -16.5v-19l-186 -150z" />
    <glyph glyph-name="uniF3BC.var.accented" unicode="&#xf3bc;`" horiz-adv-x="648" 
d="M252 25v-25h-222v25q39 16 69 20v449q-43 9 -69 20v25h222v-25q-34 -15 -64 -20v-320l-9 -59l41 62l244 299v18q-37 8 -69 20v25h223v-25q-25 -11 -70 -20v-449q37 -6 70 -20v-25h-223v25q33 13 64 20v319l9 59l-38 -59l-247 -302v-17q33 -5 69 -20zM162 682
q0 20 12.5 32t32.5 12t32.5 -12t12.5 -32q0 -19 -12.5 -30.5t-32.5 -11.5t-32.5 11.5t-12.5 30.5zM396 682q0 20 12.5 32t32.5 12t32.5 -12t12.5 -32q0 -19 -12.5 -30.5t-32.5 -11.5t-32.5 11.5t-12.5 30.5zM264 637l76 171q14 2 40.5 -6.5t40.5 -18.5v-16l-133 -140z" />
    <glyph glyph-name="uniF3BD.var.accented" unicode="&#xf3bd;`" horiz-adv-x="653" 
d="M165 682q0 20 12.5 32t32.5 12t32.5 -12t12.5 -32q0 -19 -12.5 -30.5t-32.5 -11.5t-32.5 11.5t-12.5 30.5zM399 682q0 20 12.5 32t32.5 12t32.5 -12t12.5 -32q0 -19 -12.5 -30.5t-32.5 -11.5t-32.5 11.5t-12.5 30.5zM267 637l76 171q14 2 40.5 -6.5t40.5 -18.5v-16
l-133 -140zM54 270q0 123 72.5 200.5t199.5 77.5t200 -77.5t73 -200.5q0 -124 -73 -201.5t-200 -77.5t-199.5 77.5t-72.5 201.5zM153 270q0 -104 46.5 -170t134.5 -66q81 0 123.5 66t42.5 170t-45.5 169.5t-135.5 65.5q-85 0 -125.5 -64.5t-40.5 -170.5z" />
    <glyph glyph-name="uniF3BE.var.accented" unicode="&#xf3be;`" horiz-adv-x="653" 
d="M54 270q0 123 72.5 200.5t199.5 77.5t200 -77.5t73 -200.5q0 -124 -73 -201.5t-200 -77.5t-199.5 77.5t-72.5 201.5zM334 34q76 0 118 58.5t47 154.5h-346q6 -96 52 -154.5t129 -58.5zM319 505q-80 0 -120 -56.5t-45 -151.5h345q-6 94 -51 151t-129 57zM285 614l118 174
q16 2 46.5 -5.5t41.5 -16.5v-19l-186 -150z" />
    <glyph glyph-name="uniF3BF.accented" unicode="&#xf3bf;`" horiz-adv-x="653" 
d="M54 270q0 123 72.5 200.5t199.5 77.5t200 -77.5t73 -200.5q0 -124 -73 -201.5t-200 -77.5t-199.5 77.5t-72.5 201.5zM334 34q76 0 118 58.5t47 154.5h-346q6 -96 52 -154.5t129 -58.5zM319 505q-80 0 -120 -56.5t-45 -151.5h345q-6 94 -51 151t-129 57zM166 682
q0 20 12.5 32t32.5 12t32.5 -12t12.5 -32q0 -19 -12.5 -30.5t-32.5 -11.5t-32.5 11.5t-12.5 30.5zM400 682q0 20 12.5 32t32.5 12t32.5 -12t12.5 -32q0 -19 -12.5 -30.5t-32.5 -11.5t-32.5 11.5t-12.5 30.5zM268 637l76 171q14 2 40.5 -6.5t40.5 -18.5v-16l-133 -140z" />
    <glyph glyph-name="uniF3C0.var.accented" unicode="&#xf3c0;`" horiz-adv-x="563" 
d="M415 262l-242 -23q-10 32 0 66l242 -1q-5 98 -58.5 149.5t-146.5 51.5q-51 0 -67 -14l-44 -97h-24q-12 51 -10 122q46 32 151 32q293 0 293 -277q0 -72 -23.5 -127.5t-64.5 -88t-91 -48.5t-107 -16q-105 0 -163 27q5 84 13 138h24l45 -114q15 -8 73 -8q81 0 140 60
t60 168zM85 682q0 20 12.5 32t32.5 12t32.5 -12t12.5 -32q0 -19 -12.5 -30.5t-32.5 -11.5t-32.5 11.5t-12.5 30.5zM319 682q0 20 12.5 32t32.5 12t32.5 -12t12.5 -32q0 -19 -12.5 -30.5t-32.5 -11.5t-32.5 11.5t-12.5 30.5zM187 637l76 171q14 2 40.5 -6.5t40.5 -18.5v-16
l-133 -140z" />
    <glyph glyph-name="uniF3C1.var.accented" unicode="&#xf3c1;`" horiz-adv-x="564" 
d="M336 256l107 238q-38 7 -71 20v25h192v-25q-22 -10 -61 -20l-166 -339q-39 -89 -76.5 -128t-85.5 -31q-23 32 -28 88l13 23l90 -23q14 12 27 47l-214 363q-32 8 -63 20v25h231v-25q-31 -12 -68 -20l137 -239l18 -49h1zM429 619h-249v50h249v-50zM252 707l118 174
q16 2 46.5 -5.5t41.5 -16.5v-19l-186 -150z" />
    <glyph glyph-name="uniF3C2.var.accented" unicode="&#xf3c2;`" horiz-adv-x="564" 
d="M336 256l107 238q-38 7 -71 20v25h192v-25q-22 -10 -61 -20l-166 -339q-39 -89 -76.5 -128t-85.5 -31q-23 32 -28 88l13 23l90 -23q14 12 27 47l-214 363q-32 8 -63 20v25h231v-25q-31 -12 -68 -20l137 -239l18 -49h1zM142 682q0 20 12.5 32t32.5 12t32.5 -12t12.5 -32
q0 -19 -12.5 -30.5t-32.5 -11.5t-32.5 11.5t-12.5 30.5zM376 682q0 20 12.5 32t32.5 12t32.5 -12t12.5 -32q0 -19 -12.5 -30.5t-32.5 -11.5t-32.5 11.5t-12.5 30.5zM244 637l76 171q14 2 40.5 -6.5t40.5 -18.5v-16l-133 -140z" />
    <glyph glyph-name="uniF3C3.var.accented" unicode="&#xf3c3;`" horiz-adv-x="564" 
d="M336 256l107 238q-38 7 -71 20v25h192v-25q-22 -10 -61 -20l-166 -339q-39 -89 -76.5 -128t-85.5 -31q-23 32 -28 88l13 23l90 -23q14 12 27 47l-214 363q-32 8 -63 20v25h231v-25q-31 -12 -68 -20l137 -239l18 -49h1zM151 635l78 153q14 2 44.5 -5.5t36.5 -15.5v-14
l-138 -133zM327 637l133 151q16 2 44 -6.5t38 -21.5v-12l-198 -128zM293 682l79 176q16 2 46.5 -5.5t41.5 -16.5v-19l-147 -152z" />
    <glyph glyph-name="uniF3C6.accented" unicode="&#xf3c6;`" horiz-adv-x="741" 
d="M711 25v-25h-222v25q26 11 65 20v449q-36 7 -66 20v25h223v-25q-32 -14 -68 -20v-449q31 -4 68 -20zM143 0h-113v25q32 14 69 20v449q-35 6 -69 20v25h233v-25q-42 -15 -75 -20v-172q50 5 76 5q211 0 211 -159q0 -84 -65.5 -127t-159.5 -43q-2 0 -44 1t-63 1zM244 284
q-37 0 -56 -4v-236q15 -3 58 -3q60 0 95 32t35 95q0 116 -132 116zM216 682q0 20 12.5 32t32.5 12t32.5 -12t12.5 -32q0 -19 -12.5 -30.5t-32.5 -11.5t-32.5 11.5t-12.5 30.5zM450 682q0 20 12.5 32t32.5 12t32.5 -12t12.5 -32q0 -19 -12.5 -30.5t-32.5 -11.5t-32.5 11.5
t-12.5 30.5zM318 637l76 171q14 2 40.5 -6.5t40.5 -18.5v-16l-133 -140z" />
    <glyph glyph-name="uniF684" unicode="&#xf769;&#xf76a;" horiz-adv-x="599" 
d="M275 25v-25h-225v25q30 14 68 20v449q-35 6 -68 21v24h225v-24q-27 -14 -68 -21v-449q40 -7 68 -20zM326 514v25h223v-25q-29 -14 -64 -20v-419q0 -167 -138 -198l-10 14q29 22 44 61t15 116v426q-44 9 -70 20z" />
    <glyph glyph-name="f_f" unicode="ff" horiz-adv-x="648" 
d="M613 752q58 0 89 -12q-6 -66 -21 -111h-24l-44 85q-62 0 -87 -32t-25 -132v-50h116v-48h-116v-404q53 -6 96 -24v-24h-246v24q31 18 66 24v404h-225v-404q39 -4 86 -24v-24h-236v24q32 18 66 24v404h-76v24q35 22 76 33v28q0 85 54 130t142 45q96 0 141 -36q45 76 168 76
zM192 525v-25h225v44q0 56 12 95q-52 31 -116 31q-58 0 -89.5 -39t-31.5 -106z" />
    <glyph glyph-name="fi" unicode="fi" horiz-adv-x="594" 
d="M554 24v-24h-216v24q26 14 66 24v404h-212v-404q52 -6 96 -24v-24h-246v24q32 18 66 24v404h-76v24q35 22 76 33v35q0 60 19 102.5t52.5 64.5t71.5 31.5t83 9.5q42 0 91.5 -9.5t67.5 -22.5q-3 -38 -21 -91h-24l-84 85q-172 0 -172 -164v-50h106q100 0 166 12h24v-464
q43 -10 66 -24z" />
    <glyph glyph-name="fl" unicode="fl" horiz-adv-x="607" 
d="M407 48v636q-54 30 -94 30q-62 0 -91.5 -33t-29.5 -131v-50h116v-48h-116v-404q52 -6 96 -24v-24h-246v24q32 18 66 24v404h-76v24q35 22 76 33v35q0 116 51.5 162t144.5 46q43 0 89 -18q70 18 74 18h24v-704q51 -12 76 -24v-24h-226v24q33 16 66 24z" />
    <glyph glyph-name="f_f_i" unicode="ffi" horiz-adv-x="902" 
d="M862 24v-24h-216v24q26 14 66 24v404h-212v-404q52 -6 96 -24v-24h-246v24q32 18 66 24v404h-224v-404q39 -4 86 -24v-24h-236v24q32 18 66 24v404h-76v24q35 22 76 33v28q0 85 54 130t142 45q102 0 146 -40q55 80 192 80q42 0 91.5 -9.5t67.5 -22.5q-3 -39 -21 -91h-24
l-84 85q-172 0 -172 -164v-50h106q100 0 166 12h24v-464q43 -10 66 -24zM192 525v-25h224v44q0 53 16 93q-54 33 -119 33q-58 0 -89.5 -39t-31.5 -106z" />
    <glyph glyph-name="f_f_l" unicode="ffl" horiz-adv-x="915" 
d="M715 48v636q-54 30 -94 30q-62 0 -91.5 -33t-29.5 -131v-50h116v-48h-116v-404q52 -6 96 -24v-24h-246v24q32 18 66 24v404h-224v-404q39 -4 86 -24v-24h-236v24q32 18 66 24v404h-76v24q35 22 76 33v28q0 85 54 130t142 45q97 0 141 -36q45 76 167 76q43 0 89 -18
q70 18 74 18h24v-704q51 -12 76 -24v-24h-226v24q33 16 66 24zM192 525v-25h224v44q0 56 12 95q-52 31 -115 31q-58 0 -89.5 -39t-31.5 -106z" />
    <glyph glyph-name=".notdef" horiz-adv-x="709" 
d="M50 0v700h650v-700h-650zM620 600l-50 50l-195 -217l-195 217l-50 -50l197 -220l-197 -220l50 -50l195 217l195 -217l50 50l-198 220zM162 61v7h-35v-7h13v-35h9v35h13zM270 50l1 8q-3 1 -4 1q-4 0 -9 -5v4h-7v-32h8v20q3 5 7 5q2 0 4 -1zM276 65q0 -5 4 -5q5 0 5 4
q0 5 -5 5q-4 0 -4 -4zM276 58v-32h9v32h-9zM291 58v-7h5v-25h8v25h8v7h-8q0 2 1 3t3 1h3h3l1 6q0 1 -4 1h-5h-4q-5 0 -5 -4q-1 -2 -1 -5v-2h-5zM331 45q0 -25 23 -25q24 0 24 25q0 23 -24 23q-10 0 -16.5 -6.5t-6.5 -16.5zM338 45q0 17 16 17q17 0 17 -17q0 -18 -17 -18
q-16 0 -16 18zM363 34l-2 6q-2 -1 -4 -1q-5 0 -5 6q0 4 5 4h3l3 5q-4 2 -9 2q-10 0 -10 -11q0 -13 10 -13q5 0 9 2zM402 69v-42h9v14h5q18 0 18 14t-19 14h-13zM411 62h5q9 0 9 -6q0 -7 -10 -7h-4v13zM438 56l2 -5q8 2 11 2q5 0 5 -5v-2h-2q-1 1 -3 1q-15 0 -15 -12
q0 -9 10 -9q7 0 10 6l3 -5h7q-1 1 -1 8v13q0 12 -12 12q-3 0 -15 -4zM450 33q-5 0 -5 5q0 4 6 4h3l2 -1v-3q-1 -5 -6 -5zM492 51l2 8q-2 1 -5 1q-5 0 -7 -6h-1l-1 5h-7v-32h9v20q0 5 7 5zM498 56l1 -5q10 2 11 2q6 0 6 -5v-2q-1 0 -2.5 0.5t-3.5 0.5q-15 0 -15 -12
q0 -9 10 -9q8 0 11 6h1l1 -5h7q-1 1 -1 8v13q0 12 -12 12q-2 0 -4 -0.5t-3.5 -1t-3.5 -1.5t-3 -1zM509 33q-5 0 -5 5q0 4 6 4q2 0 3.5 -0.5t2.5 -0.5v-3q-2 -5 -7 -5zM557 62v7h-36v-7h14v-35h8v35h14zM574 41l-7 18h-10l14 -32q-2 -5 -5 -5l-2 1l-2 -7q1 -1 6 -1q7 0 11 15
l12 29h-9l-6 -18v-6h-1zM595 59v-44h9v13q2 -2 6 -2q16 0 16 18q0 16 -13 16q-6 0 -10 -5h-2l-1 4h-5zM611 53q6 0 6 -9q0 -11 -9 -11q-2 0 -4 2v12q0 6 7 6zM659 30l-3 5q-2 -2 -8 -2q-8 0 -8 7h21v7q0 13 -14 13q-16 0 -16 -18q0 -16 16 -16q8 0 12 4zM647 53q7 0 6 -7
h-13q0 7 7 7zM92 69v-42h9v14h5q18 0 18 14t-19 14h-13zM101 62h5q9 0 9 -6q0 -7 -10 -7h-4v13zM200 38q0 -5 -8 -5q-6 0 -11 3l-3 -9q10 -2 15 -2q16 0 16 14q0 8 -10.5 12t-10.5 7t7 3q3 0 11 -2l2 8q-10 2 -13 2q-16 0 -16 -13q0 -7 10.5 -11.5t10.5 -6.5zM242 29l-3 5
q-2 -2 -8 -2q-8 0 -8 7h21v7q0 13 -14 13q-16 0 -16 -18q0 -16 16 -16q8 0 12 4zM230 52q7 0 6 -7h-13q0 7 7 7z" />
    <glyph glyph-name=".null" horiz-adv-x="0" 
 />
    <glyph glyph-name="nonmarkingreturn" horiz-adv-x="333" 
 />
    <glyph glyph-name="space" unicode=" " horiz-adv-x="240" 
 />
    <glyph glyph-name="exclam" unicode="!" horiz-adv-x="325" 
d="M198 218h-24l-30 174v298q42 22 84 0v-298zM120 56q0 29 18.5 46.5t47.5 17.5q30 0 48.5 -17.5t18.5 -46.5t-18.5 -46.5t-48.5 -17.5q-29 0 -47.5 17.5t-18.5 46.5z" />
    <glyph glyph-name="quotedbl" unicode="&#x22;" horiz-adv-x="376" 
d="M237 506l-31 164q11 30 40 30q30 0 40 -30l-31 -164h-18zM121 506l-31 164q11 30 40 30q30 0 40 -30l-31 -164h-18z" />
    <glyph glyph-name="numbersign" unicode="#" 
d="M265 58l42 177h-144l-42 -177h-51l42 177h-80l14 44h76l36 152h-76l14 44h73l40 167h50l-39 -167h144l40 167h50l-40 -167h80l-17 -44h-74l-36 -152h77l-17 -44h-70l-42 -177h-50zM209 431l-36 -152h144l36 152h-144z" />
    <glyph glyph-name="dollar" unicode="$" 
d="M238 -70v58q-57 0 -106 15.5t-72 35.5q4 92 14 116h24l61 -97q31 -20 79 -20v289q-5 0 -5 2l-33 15q-70 32 -109 73.5t-39 116.5q0 71 52.5 121t133.5 56v49h50v-49q82 -5 144 -35q-2 -41 -24 -87h-24l-50 67q-25 5 -46 5v-271l28 -12q81 -41 109 -66q55 -51 55 -138
q0 -72 -51.5 -122t-140.5 -61v-61h-50zM393 168q0 50 -27.5 81t-77.5 55v-260q48 12 76.5 44.5t28.5 79.5zM139 551q0 -50 25.5 -81.5t73.5 -56.5v248q-45 -5 -72 -36t-27 -74z" />
    <glyph glyph-name="percent" unicode="%" horiz-adv-x="802" 
d="M54 542q0 76 48.5 123t123.5 47q78 0 125 -43.5t47 -126.5q0 -78 -48 -124t-124 -46q-78 0 -125 43.5t-47 126.5zM134 542q0 -61 24 -97.5t68 -36.5q92 0 92 134t-92 134t-92 -134zM404 158q0 76 48.5 123t123.5 47q78 0 125 -43.5t47 -126.5q0 -78 -48 -124t-124 -46
q-78 0 -125 43.5t-47 126.5zM484 158q0 -61 24 -97.5t68 -36.5q92 0 92 134t-92 134t-92 -134zM90 24l584 685l33 -29l-585 -686z" />
    <glyph glyph-name="ampersand" unicode="&#x26;" horiz-adv-x="866" 
d="M541 124q-57 51 -132.5 136t-108.5 134q-45 -43 -64.5 -84t-19.5 -94q0 -77 47.5 -127.5t120.5 -50.5q95 0 157 86zM277 583q0 -33 24 -76.5t55 -77.5q85 72 77 166q-2 35 -21 56t-57 21q-41 0 -59.5 -26t-18.5 -63zM699 0q-82 53 -125 94q-31 -43 -90 -74.5t-135 -31.5
q-100 0 -164.5 57.5t-64.5 135.5q0 46 16 86.5t46.5 72.5t48 46.5t46.5 35.5q-30 33 -50 77t-20 80q0 54 41 93.5t109 39.5q67 0 106.5 -29t39.5 -81q0 -60 -34.5 -105.5t-92.5 -90.5q71 -88 211 -214q22 31 46.5 108t19.5 152q-31 6 -60 24v24h200v-24q-27 -16 -66 -24
q-29 -180 -102 -293q95 -77 157 -111l56 -24v-24h-139z" />
    <glyph glyph-name="quotesingle" unicode="'" horiz-adv-x="220" 
d="M121 506l-31 164q11 30 40 30q30 0 40 -30l-31 -164h-18z" />
    <glyph glyph-name="parenleft" unicode="(" horiz-adv-x="340" 
d="M320 -192l-23 -18q-113 83 -175 191t-62 262q0 79 17.5 146t52.5 123t74.5 99t95.5 91l20 -16q-89 -95 -134.5 -196.5t-45.5 -246.5q0 -259 180 -435z" />
    <glyph glyph-name="parenright" unicode=")" horiz-adv-x="340" 
d="M43 -210l-23 18q81 79 130.5 192t49.5 253q0 144 -44.5 240t-135.5 193l20 16q115 -89 177.5 -193.5t62.5 -255.5q0 -288 -237 -463z" />
    <glyph glyph-name="asterisk" unicode="*" horiz-adv-x="465" 
d="M191 570l-124 48q-6 14 7.5 37t29.5 27l102 -86q0 -19 -15 -26zM206 529l-103 -83q-15 1 -28.5 24t-8.5 39l124 45q16 -9 16 -25zM255 517l19 -129q-8 -11 -35 -11t-37 11l21 129q16 8 32 0zM285 553l122 -44q7 -14 -6.5 -37t-29.5 -27l-100 83q0 16 14 25zM271 594
l101 87q15 -2 28 -25t8 -39l-123 -49q-14 10 -14 26zM222 608l-21 130q8 12 34.5 12t37.5 -12l-20 -130q-15 -10 -31 0z" />
    <glyph glyph-name="plus" unicode="+" 
d="M40 319v50h200v211h50v-211h200v-50h-200v-217h-50v217h-200z" />
    <glyph glyph-name="comma" unicode="," horiz-adv-x="281" 
d="M70 -180l-19 29q40 16 66.5 56t22.5 83q-25 22 -66 37q-8 35 12 66t43 32q37 -5 61 -32.5t24 -74.5q0 -59 -40 -117.5t-104 -78.5z" />
    <glyph glyph-name="hyphen" unicode="-" horiz-adv-x="426" 
d="M72 252v60h282v-60h-282z" />
    <glyph glyph-name="period" unicode="." horiz-adv-x="277" 
d="M72 56q0 29 18.5 46.5t47.5 17.5q30 0 48.5 -17.5t18.5 -46.5t-18.5 -46.5t-48.5 -17.5q-29 0 -47.5 17.5t-18.5 46.5z" />
    <glyph glyph-name="slash" unicode="/" horiz-adv-x="344" 
d="M-36 -111l364 823l40 -18l-365 -824z" />
    <glyph glyph-name="zero" unicode="0" 
d="M36 350q0 179 58.5 270.5t170.5 91.5q119 0 174.5 -89.5t55.5 -272.5q0 -362 -236 -362q-118 0 -170.5 91.5t-52.5 270.5zM126 350q0 -322 132 -322q80 0 113.5 77t33.5 245q0 102 -11.5 170t-43.5 110t-85 42q-74 0 -106.5 -77.5t-32.5 -244.5z" />
    <glyph glyph-name="one" unicode="1" 
d="M420 28v-28h-286v28q55 23 102 34v494l4 59q-50 -21 -120 -19l-5 22q114 38 181 94h24v-650q46 -11 100 -34z" />
    <glyph glyph-name="two" unicode="2" 
d="M164 650l-32 -142h-24q-18 48 -40 140q75 64 186 64q93 0 141 -49t48 -123q0 -172 -256 -425l-41 -39v-4l56 6h172l49 112h24q10 -116 10 -190h-408v29q304 314 304 489q0 61 -31 102.5t-85 41.5q-35 0 -73 -12z" />
    <glyph glyph-name="three" unicode="3" 
d="M256 33q55 0 95 47.5t40 109.5q0 72 -42 111.5t-108 39.5h-65v25l170 229l34 35v4l-54 -6h-171l-39 -102h-24q-20 112 -20 174h386v-29l-167 -224l-43 -44v-2l34 7q92 -4 145.5 -60t53.5 -141q0 -97 -70.5 -158t-168.5 -61q-47 0 -100 14t-81 36l27 89h19q5 -6 36.5 -39
t43.5 -47q35 -8 69 -8z" />
    <glyph glyph-name="four" unicode="4" 
d="M473 28v-28h-254v28q49 17 92 24v143h-306v20l368 497h24v-467h128v-50h-128v-143q39 -8 76 -24zM311 245v262l11 72h-3l-39 -72l-171 -236l-40 -33l71 7h171z" />
    <glyph glyph-name="five" unicode="5" 
d="M386 700l42 55h24q-4 -82 -20 -130h-243l-24 -198h63q100 0 161.5 -54.5t61.5 -150.5q0 -110 -68.5 -172t-161.5 -62q-40 0 -87.5 14t-75.5 36l27 89h19q9 -10 35 -43t35 -43q35 -8 46 -8q66 0 108.5 49t42.5 120q0 78 -54.5 117t-137.5 37l-69 -1l40 345h236z" />
    <glyph glyph-name="six" unicode="6" 
d="M498 211q0 -94 -60.5 -158.5t-158.5 -64.5q-108 0 -168.5 72.5t-60.5 189.5q0 120 53 221.5t135 163t178 83.5l10 -28q-110 -40 -189 -132.5t-91 -213.5q17 29 59.5 50.5t93.5 21.5q89 0 144 -55t55 -150zM408 203q0 72 -36.5 117.5t-97.5 45.5q-46 0 -81 -23t-51 -56
q-2 -18 -2 -62t15.5 -86.5t49.5 -74t79 -31.5q61 0 92.5 50.5t31.5 119.5z" />
    <glyph glyph-name="seven" unicode="7" 
d="M149 628l-39 -102h-24q-20 112 -20 174h408v-27q-93 -168 -133.5 -302.5t-79.5 -370.5h-95q72 286 218 585l29 48l-52 -5h-212z" />
    <glyph glyph-name="eight" unicode="8" 
d="M51 157q0 67 44 118.5t116 76.5q-134 70 -134 185q0 78 53 126.5t141 48.5q85 0 134 -44t49 -115q0 -109 -136 -173q162 -85 162 -210q0 -78 -58.5 -130t-161.5 -52q-102 0 -155.5 49t-53.5 120zM398 154q0 63 -43.5 105.5t-119.5 78.5q-55 -31 -79.5 -78.5t-24.5 -92.5
q0 -55 34 -94.5t103 -39.5q61 0 95.5 36.5t34.5 84.5zM158 549q0 -30 10.5 -54t33 -43.5t41.5 -31t52 -28.5q79 62 79 144q0 62 -27.5 96.5t-77.5 34.5q-51 0 -81 -35.5t-30 -82.5z" />
    <glyph glyph-name="nine" unicode="9" 
d="M48 488q0 100 58.5 162t162.5 62q113 0 167.5 -71.5t54.5 -199.5q0 -182 -98 -308.5t-244 -144.5l-18 28q114 30 180.5 117.5t83.5 207.5q-55 -57 -141 -57q-93 0 -149.5 54t-56.5 150zM138 488q0 -61 37.5 -107.5t95.5 -46.5q95 0 130 60q2 17 2 62q0 83 -35 147
t-104 64q-60 0 -93 -48t-33 -131z" />
    <glyph glyph-name="colon" unicode=":" horiz-adv-x="325" 
d="M120 444q0 29 18.5 46.5t47.5 17.5q30 0 48.5 -17.5t18.5 -46.5t-18.5 -46.5t-48.5 -17.5q-29 0 -47.5 17.5t-18.5 46.5zM120 56q0 29 18.5 46.5t47.5 17.5q30 0 48.5 -17.5t18.5 -46.5t-18.5 -46.5t-48.5 -17.5q-29 0 -47.5 17.5t-18.5 46.5z" />
    <glyph glyph-name="semicolon" unicode=";" horiz-adv-x="330" 
d="M123 -180l-19 29q40 16 66.5 56t22.5 83q-25 22 -66 37q-8 35 12 66t43 32q37 -5 61 -32.5t24 -74.5q0 -59 -40 -117.5t-104 -78.5zM125 444q0 29 18.5 46.5t47.5 17.5q30 0 48.5 -17.5t18.5 -46.5t-18.5 -46.5t-48.5 -17.5q-29 0 -47.5 17.5t-18.5 46.5z" />
    <glyph glyph-name="less" unicode="&#x3c;" 
d="M426 103l-384 221v31l385 235l23 -42l-254 -153l-86 -41l85 -31l269 -158z" />
    <glyph glyph-name="equal" unicode="=" 
d="M40 399v50h450v-50h-450zM40 239v50h450v-50h-450z" />
    <glyph glyph-name="greater" unicode="&#x3e;" 
d="M104 590l384 -221v-31l-385 -235l-23 42l254 153l86 41l-85 31l-269 158z" />
    <glyph glyph-name="question" unicode="?" horiz-adv-x="472" 
d="M148 643l-22 -122h-24q-24 86 -30 150q66 41 185 41q86 0 132.5 -45t46.5 -118q0 -50 -23 -91t-56 -70l-65 -58q-33 -29 -56 -67.5t-23 -84.5h-18q-12 61 -2 98t35 71.5t51.5 58.5t46.5 59t20 73q0 50 -29.5 87t-86.5 37q-61 0 -82 -19zM143 56q0 29 18.5 46.5t47.5 17.5
q30 0 48.5 -17.5t18.5 -46.5t-18.5 -46.5t-48.5 -17.5q-29 0 -47.5 17.5t-18.5 46.5z" />
    <glyph glyph-name="at" unicode="@" horiz-adv-x="1064" 
d="M671 475q32 16 70 16l-51 -287q-14 -66 -8.5 -108t37.5 -42q73 0 138 77.5t65 194.5q0 150 -107 243t-265 93q-180 0 -289.5 -120.5t-109.5 -299.5q0 -174 109 -273t286 -99q71 0 133 28l16 -42q-65 -36 -170 -36q-117 0 -212.5 45t-156 141.5t-60.5 229.5
q0 213 132 344.5t327 131.5q184 0 303 -104.5t119 -281.5q0 -128 -82.5 -225t-192.5 -97q-63 0 -83.5 41.5t1.5 139.5h-4q-25 -70 -79 -125.5t-109 -55.5q-58 0 -90.5 41t-32.5 111q0 130 80.5 236t184.5 106q50 0 101 -23zM630 280l25 147q-33 21 -78 21q-49 0 -93.5 -45
t-69.5 -109t-25 -125q0 -52 17 -78.5t57 -26.5q37 0 84 64.5t83 151.5z" />
    <glyph glyph-name="A" unicode="A" horiz-adv-x="678" 
d="M219 28v-28h-219v28q36 16 72 24l253 660h24l253 -660q51 -10 76 -24v-28h-250v28q48 18 82 24l-69 185h-241l-67 -185q42 -6 86 -24zM298 500l-78 -213h204l-80 215l-19 86h-2z" />
    <glyph glyph-name="B" unicode="B" horiz-adv-x="611" 
d="M124 0h-94v28q40 19 82 24v596q-42 8 -82 24v28h100q22 0 73 3t93 3q230 0 230 -166q0 -55 -34 -102t-98 -63v-4q69 -12 116 -54t47 -118q0 -69 -41.5 -117t-101 -68t-129.5 -20q-21 0 -76.5 3t-84.5 3zM293 44q75 0 124.5 42.5t49.5 107.5q0 137 -193 137h-78v-278
q32 -9 97 -9zM196 381h52q46 0 81 5q48 16 77.5 52.5t29.5 83.5q0 65 -40 99.5t-108 34.5q-60 0 -92 -5v-270z" />
    <glyph glyph-name="C" unicode="C" horiz-adv-x="643" 
d="M501 57l47 122h24q13 -67 10 -150q-53 -41 -172 -41q-172 0 -264 89t-92 273q0 95 26.5 166.5t74 113t106 62t127.5 20.5q118 0 188 -34q2 -81 -14 -170h-24l-52 144q-19 10 -89 10q-108 0 -179.5 -80.5t-71.5 -231.5q0 -143 72 -227.5t198 -84.5q68 0 85 19z" />
    <glyph glyph-name="D" unicode="D" horiz-adv-x="705" 
d="M124 0h-94v28q35 16 82 24v596q-49 11 -82 24v28h100q23 0 87 4t83 4q168 0 259.5 -91.5t91.5 -257.5t-94 -267t-278 -101q-18 0 -73.5 4.5t-81.5 4.5zM286 658q-68 0 -90 -5v-608q26 -4 97 -4q89 0 149 46t84.5 115t24.5 157q0 41 -8.5 81t-28 80t-49 70t-76 49
t-103.5 19z" />
    <glyph glyph-name="E" unicode="E" horiz-adv-x="579" 
d="M30 700h468q-2 -97 -10 -160h-24l-41 110h-221v-268h167l39 74h24q6 -99 0 -200h-24l-39 76h-167v-282h234l48 120h24q14 -97 10 -170h-488v28q35 16 82 24v596q-42 8 -82 24v28z" />
    <glyph glyph-name="F" unicode="F" horiz-adv-x="541" 
d="M192 312v-260q44 -6 86 -24v-28h-248v28q41 18 72 24v596q-44 10 -72 24v28h463q-2 -97 -10 -160h-24l-41 110h-226v-288h182l35 64h24q7 -88 0 -180h-24l-35 66h-182z" />
    <glyph glyph-name="G" unicode="G" horiz-adv-x="686" 
d="M606 278v-229q-42 -24 -100.5 -42.5t-105.5 -18.5q-164 0 -255 89.5t-91 272.5q0 95 28 166.5t76.5 113t106 62t123.5 20.5q118 0 188 -34q2 -86 -14 -170h-24l-52 144q-19 10 -89 10q-108 0 -179.5 -80.5t-71.5 -231.5q0 -140 74 -226t186 -86q36 0 71 13t45 23v204
q-38 3 -96 24v28h242v-28q-25 -17 -62 -24z" />
    <glyph glyph-name="H" unicode="H" horiz-adv-x="724" 
d="M278 28v-28h-248v28q40 16 82 24v596q-49 8 -82 24v28h248v-28q-36 -18 -76 -24v-264h320v264q-35 6 -76 24v28h248v-28q-27 -14 -82 -24v-596q48 -8 82 -24v-28h-248v28q35 16 76 24v282h-320v-282q41 -8 76 -24z" />
    <glyph glyph-name="I" unicode="I" horiz-adv-x="350" 
d="M300 28v-28h-250v28q39 18 80 24v596q-39 7 -80 24v28h250v-28q-32 -15 -80 -24v-596q42 -8 80 -24z" />
    <glyph glyph-name="J" unicode="J" horiz-adv-x="338" 
d="M40 672v28h248v-28q-35 -16 -76 -24v-566q0 -206 -148 -242l-10 14q34 29 51 75.5t17 141.5v577q-54 11 -82 24z" />
    <glyph glyph-name="K" unicode="K" horiz-adv-x="639" 
d="M380 672v28h216v-28q-38 -18 -76 -24l-202 -269q184 -235 273 -331l48 -24v-24h-120l-33 24q-107 122 -234 312h-50v-284q45 -8 76 -24v-28h-248v28q40 16 82 24v596q-48 6 -82 24v28h248v-28q-31 -13 -76 -24v-280l60 14l190 266q-32 6 -72 24z" />
    <glyph glyph-name="L" unicode="L" horiz-adv-x="545" 
d="M30 672v28h268v-28q-48 -18 -96 -24v-598h234l58 160h24q15 -107 10 -210h-498v28q34 16 82 24v596q-48 8 -82 24z" />
    <glyph glyph-name="M" unicode="M" horiz-adv-x="860" 
d="M829 28v-28h-242v28q32 13 81 24v453l4 117h-8l-33 -107l-207 -515h-24l-195 516l-36 117h-9l1 -127v-455q35 -7 75 -23v-28h-205v28q39 16 81 24v596q-44 8 -82 24v28h197l177 -463l34 -103h1l35 105l182 461h174v-28q-35 -16 -76 -24v-597q45 -8 75 -23z" />
    <glyph glyph-name="N" unicode="N" horiz-adv-x="729" 
d="M487 672v28h212v-28q-40 -26 -82 -39v-645h-53l-365 556l-39 78h-3l9 -78v-481q44 -13 76 -35v-28h-212v28q32 20 82 35v576q-43 16 -76 34v27h164l318 -482l46 -86h4l-5 86v415q-40 17 -76 39z" />
    <glyph glyph-name="O" unicode="O" horiz-adv-x="738" 
d="M54 350q0 160 84.5 261t230.5 101t230.5 -101t84.5 -261t-84.5 -261t-230.5 -101t-230.5 101t-84.5 261zM154 350q0 -135 58 -223.5t166 -88.5q100 0 153 88t53 224t-57 224t-166 88q-105 0 -156 -87t-51 -225z" />
    <glyph glyph-name="P" unicode="P" horiz-adv-x="591" 
d="M202 275v-223q54 -8 96 -24v-28h-268v28q30 14 82 24v596q-38 6 -82 24v28h86q26 0 86.5 4t89.5 4q52 0 96 -11t82 -34.5t59.5 -67t21.5 -103.5q0 -110 -79 -165.5t-193 -55.5q-58 0 -77 4zM272 658q-48 0 -70 -6v-326q16 -5 73 -5q77 0 126.5 43t49.5 129q0 81 -47 123
t-132 42z" />
    <glyph glyph-name="Q" unicode="Q" horiz-adv-x="738" 
d="M754 -103l5 -12q-97 -86 -172 -85q-46 0 -109 23t-149 58.5t-157 54.5l31 18q59 7 134.5 -9t133.5 -36.5t137 -28t146 16.5zM54 350q0 160 84.5 261t230.5 101t230.5 -101t84.5 -261t-84.5 -261t-230.5 -101t-230.5 101t-84.5 261zM154 350q0 -135 58 -223.5t166 -88.5
q100 0 153 88t53 224t-57 224t-166 88q-105 0 -156 -87t-51 -225z" />
    <glyph glyph-name="R" unicode="R" horiz-adv-x="630" 
d="M202 311v-259q53 -11 86 -24v-28h-258v28q32 14 82 24v596q-50 10 -82 24v28h86q26 0 86.5 4t89.5 4q104 0 166.5 -48.5t62.5 -147.5q0 -71 -38.5 -119.5t-105.5 -70.5q73 -117 189 -269l54 -29v-24h-115l-38 28q-97 121 -169 283h-96zM272 658q-48 0 -70 -6v-301h73
q71 0 112.5 44.5t41.5 117.5q0 72 -42.5 108.5t-114.5 36.5z" />
    <glyph glyph-name="S" unicode="S" horiz-adv-x="534" 
d="M108 215l41 -147q30 -30 89 -30q67 0 111 35t44 95q0 44 -34 77t-82.5 56t-97.5 49.5t-83 73t-34 110.5q0 81 56 129.5t149 48.5q124 0 190 -33q-4 -78 -24 -170h-24l-40 137q-36 16 -106 16q-52 0 -83 -30t-31 -81q0 -34 18.5 -61t47.5 -46t64 -36.5t70.5 -37.5
t64.5 -43.5t47.5 -59.5t18.5 -81q0 -91 -64 -144.5t-175 -53.5q-59 0 -108 14t-73 33q4 91 24 180h24z" />
    <glyph glyph-name="T" unicode="T" horiz-adv-x="614" 
d="M444 28v-28h-274v28q53 18 92 24v598h-157l-51 -140h-24q-7 57 -10 190h574q-3 -133 -10 -190h-24l-51 140h-157v-598q61 -11 92 -24z" />
    <glyph glyph-name="U" unicode="U" horiz-adv-x="667" 
d="M10 672v28h248v-28q-29 -13 -76 -24v-412q0 -102 44 -145t131 -43q168 0 168 188v402q-40 13 -78 34v28h210v-28q-40 -24 -78 -34v-404q0 -123 -61.5 -183t-170.5 -60q-125 0 -190 57t-65 170v430q-42 6 -82 24z" />
    <glyph glyph-name="V" unicode="V" horiz-adv-x="678" 
d="M393 185l150 463q-45 10 -86 24v28h221v-28q-26 -14 -72 -24l-225 -648l-50 -12l-255 660q-43 11 -76 24v28h258v-28q-34 -13 -82 -24l174 -465l21 -78h2z" />
    <glyph glyph-name="W" unicode="W" horiz-adv-x="923" 
d="M695 242l93 406q-40 6 -86 24v28h221v-28q-36 -16 -72 -24l-166 -648l-57 -12l-162 551l-159 -539l-56 -12l-175 660q-33 6 -76 24v28h253v-28q-47 -17 -82 -24l100 -409l22 -130h2l35 132l135 459h31l146 -460l28 -130h2z" />
    <glyph glyph-name="X" unicode="X" horiz-adv-x="664" 
d="M391 672v28h228v-28q-33 -13 -76 -24l-176 -273l205 -323q48 -8 82 -24v-28h-259v28q36 18 76 24l-160 254l-154 -255q54 -8 81 -23v-28h-228v28q27 14 75 24l195 300l-188 296q-36 9 -80 24v28h259v-28q-36 -14 -77 -24l142 -229l138 229q-45 10 -83 24z" />
    <glyph glyph-name="Y" unicode="Y" horiz-adv-x="638" 
d="M421 672v28h217v-28q-37 -18 -76 -24l-189 -350v-246q39 -5 76 -24v-28h-248v28q36 18 82 24v245l-202 351q-36 6 -81 24v28h258v-28q-32 -13 -77 -24l166 -297l156 297q-48 11 -82 24z" />
    <glyph glyph-name="Z" unicode="Z" horiz-adv-x="607" 
d="M472 50l61 140h24q13 -103 10 -190h-527v50l418 600h-314l-61 -140h-24q-12 92 -10 190h508v-50l-417 -600h332z" />
    <glyph glyph-name="bracketleft" unicode="[" horiz-adv-x="305" 
d="M84 -230v930h184v-40h-104v-850h104v-40h-184z" />
    <glyph glyph-name="backslash" unicode="\" horiz-adv-x="382" 
d="M-6 712l414 -819l-39 -23l-415 820z" />
    <glyph glyph-name="bracketright" unicode="]" horiz-adv-x="305" 
d="M221 700v-930h-184v40h104v850h-104v40h184z" />
    <glyph glyph-name="asciicircum" unicode="^" horiz-adv-x="500" 
d="M47 434l186 277h31l170 -277h-85l-89 153l-24 68l-33 -69l-101 -152h-55z" />
    <glyph glyph-name="underscore" unicode="_" horiz-adv-x="410" 
d="M0 -196v50h410v-50h-410z" />
    <glyph glyph-name="grave" unicode="`" horiz-adv-x="282" 
d="M174 768l108 -174l-20 -17l-186 150v19q11 9 46 16.5t52 5.5z" />
    <glyph glyph-name="a" unicode="a" horiz-adv-x="499" 
d="M403 130q0 -13 0.5 -25t1.5 -25.5t1 -21.5l69 -10v-20q-52 -27 -109 -38h-24q-13 31 -15 112h-5q-8 -45 -47 -79.5t-98 -34.5q-61 0 -99 37t-38 96q0 37 12.5 63.5t34 43t59 27.5t77.5 16t100 8q9 92 -10 141.5t-76 49.5q-41 0 -67 -10l-47 -120h-24q-21 65 -25 124
q80 48 184 48q48 0 79.5 -14t46 -39.5t19.5 -49.5t5 -56q0 -41 -2.5 -115.5t-2.5 -107.5zM214 48q44 0 71 29t38 60v105q-113 1 -153 -23.5t-40 -79.5q0 -43 22.5 -67t61.5 -24z" />
    <glyph glyph-name="b" unicode="b" horiz-adv-x="540" 
d="M78 29v655l-76 8v24q37 15 136 36h24v-351h2q17 51 57.5 81t88.5 30q188 0 188 -254q0 -130 -66 -198.5t-189 -68.5q-47 0 -94 11.5t-71 26.5zM287 452q-92 0 -125 -117v-280q39 -22 101 -22q68 0 106.5 59t38.5 167q0 86 -29.5 139.5t-91.5 53.5z" />
    <glyph glyph-name="c" unicode="c" horiz-adv-x="464" 
d="M411 82l13 -13q-20 -36 -60 -58.5t-91 -22.5q-113 0 -172 70t-59 192q0 125 61 193.5t166 68.5q96 0 153 -30q-8 -90 -31 -141h-24l-42 119q-15 10 -47 10q-73 0 -109.5 -52.5t-36.5 -167.5q0 -81 46 -141.5t128 -60.5q62 0 105 34z" />
    <glyph glyph-name="d" unicode="d" horiz-adv-x="550" 
d="M377 99h-4q-11 -46 -47.5 -78.5t-86.5 -32.5q-197 0 -197 260q0 125 61 193t168 68q61 0 105 -16v191l-76 8v24q50 21 136 36h24v-696l66 -8v-20q-67 -32 -116 -38h-24zM255 48q96 0 121 117v284q-33 18 -101 18q-67 0 -105 -60t-38 -160q0 -87 31 -143t92 -56z" />
    <glyph glyph-name="e" unicode="e" horiz-adv-x="499" 
d="M428 84l14 -15q-16 -34 -63.5 -57.5t-98.5 -23.5q-115 0 -176.5 70t-61.5 192q0 126 58.5 194t164.5 68q42 0 77 -12.5t65 -42.5t39 -80.5t-2 -125.5h-312q1 -91 44 -147t127 -56q35 0 71.5 10.5t53.5 25.5zM261 470q-59 0 -89.5 -41t-36.5 -136h226q7 81 -18.5 129
t-81.5 48z" />
    <glyph glyph-name="f" unicode="f" horiz-adv-x="339" 
d="M304 752q58 0 89 -12q-6 -66 -21 -111h-24l-44 85q-62 0 -87 -32t-25 -132v-50h116v-48h-116v-404q52 -6 96 -24v-24h-246v24q32 18 66 24v404h-76v24q35 22 76 33v35q0 116 51.5 162t144.5 46z" />
    <glyph glyph-name="g" unicode="g" horiz-adv-x="522" 
d="M245 512q103 0 151 -42q59 38 125 56q12 -21 12 -55l-13 -24h-105q25 -37 25 -96q0 -73 -51.5 -117t-143.5 -44q-38 0 -58 4q-2 -4 -7.5 -13t-8.5 -16.5t-3 -15.5q0 -22 31.5 -36t77 -24.5t91.5 -24.5t78.5 -45.5t33.5 -78.5q1 -70 -63 -111t-168 -41q-103 0 -160 36
t-57 94q0 52 30 81t95 50q-47 22 -47 69q0 21 17 43.5t38 37.5q-55 15 -85 57t-30 95q0 71 51 116t144 45zM396 -81q0 24 -13.5 42.5t-39.5 30t-50 18.5t-60 15.5t-54 14.5q-63 -38 -63 -103q0 -107 151 -107q129 0 129 89zM134 351q0 -119 111 -119q56 0 83.5 33t27.5 86
q0 119 -111 119t-111 -119z" />
    <glyph glyph-name="h" unicode="h" horiz-adv-x="581" 
d="M563 24v-24h-210v24q24 14 60 24v237q0 82 -23.5 124.5t-80.5 42.5q-49 0 -84.5 -32.5t-50.5 -78.5v-293q40 -10 60 -24v-24h-210v24q32 16 66 24v636l-76 8v24q51 21 136 36h24v-353h1q23 50 62.5 81.5t92.5 31.5q86 0 126.5 -46t40.5 -164v-254q44 -9 66 -24z" />
    <glyph glyph-name="i" unicode="i" horiz-adv-x="298" 
d="M258 24v-24h-216v24q26 14 66 24v396l-66 8v24q58 24 126 36h24v-464q43 -10 66 -24zM89 671q0 26 17 41.5t44 15.5q28 0 44.5 -15.5t16.5 -41.5t-16.5 -41.5t-44.5 -15.5q-27 0 -44 15.5t-17 41.5z" />
    <glyph glyph-name="j" unicode="j" horiz-adv-x="284" 
d="M106 24v420l-66 8v24q53 24 126 36h24v-469q0 -66 -16 -117t-42 -78.5t-46 -40.5t-40 -19l-11 18q28 14 49.5 68.5t21.5 149.5zM87 671q0 26 17 41.5t44 15.5q28 0 44.5 -15.5t16.5 -41.5t-16.5 -41.5t-44.5 -15.5q-27 0 -44 15.5t-17 41.5z" />
    <glyph glyph-name="k" unicode="k" horiz-adv-x="508" 
d="M297 476v24h189v-24q-38 -17 -77 -24q-86 -109 -145 -168q96 -131 188 -236l56 -24v-24h-119l-27 24q-71 89 -155 215l-33 10v-201q34 -6 66 -24v-24h-216v24q33 16 66 24v636l-76 8v24q34 16 136 36h24v-479h26q80 86 147 179q-24 7 -50 24z" />
    <glyph glyph-name="l" unicode="l" horiz-adv-x="298" 
d="M258 24v-24h-216v24q33 16 66 24v636l-76 8v24q46 21 136 36h24v-704q33 -8 66 -24z" />
    <glyph glyph-name="m" unicode="m" horiz-adv-x="856" 
d="M543 24v-24h-210v24q19 12 60 24v234q0 88 -19 129t-74 41q-42 0 -73.5 -32t-44.5 -77v-295q37 -10 60 -24v-24h-210v24q26 12 66 24v396l-66 8v24q57 25 126 36h24v-113h1q17 49 56 81t93 32q120 0 138 -123q19 57 59 90t98 33q77 0 111 -45.5t34 -166.5v-252
q34 -6 66 -24v-24h-210v24q30 16 60 24v252q0 78 -19.5 115t-75.5 37q-88 0 -116 -119v-285q34 -9 66 -24z" />
    <glyph glyph-name="n" unicode="n" horiz-adv-x="589" 
d="M571 24v-24h-210v24q25 14 60 24v237q0 82 -23.5 124.5t-80.5 42.5q-49 0 -84.5 -32.5t-50.5 -78.5v-293q32 -6 60 -24v-24h-210v24q26 14 66 24v396l-66 8v24q51 22 126 36h24v-113h1q23 50 62.5 81.5t92.5 31.5q86 0 126.5 -46t40.5 -164v-254q40 -7 66 -24z" />
    <glyph glyph-name="o" unicode="o" horiz-adv-x="548" 
d="M42 250q0 124 62.5 193t169.5 69q118 0 175 -69t57 -193t-62.5 -193t-169.5 -69q-115 0 -173.5 70t-58.5 192zM132 250q0 -98 39 -159t120 -61q56 0 90.5 56t34.5 164q0 98 -37 159t-113 61q-62 0 -98 -55.5t-36 -164.5z" />
    <glyph glyph-name="p" unicode="p" horiz-adv-x="561" 
d="M248 -176v-24h-216v24q34 16 66 24v596l-66 8v24q57 25 126 36h24v-112h1q45 112 150 112q186 0 186 -251q0 -126 -63 -199.5t-169 -73.5q-58 0 -105 20v-160q33 -5 66 -24zM303 452q-95 0 -121 -118v-281q34 -23 101 -23t106.5 65t39.5 166q0 191 -126 191z" />
    <glyph glyph-name="q" unicode="q" horiz-adv-x="543" 
d="M377 89h-4q-16 -43 -51.5 -72t-86.5 -29q-193 0 -193 260q0 128 63.5 194.5t183.5 66.5q49 0 98 -9.5t74 -21.5v-630q33 -6 66 -24v-24h-216v24q31 16 66 24v241zM256 48q94 0 121 116v289q-50 14 -102 14q-69 0 -106 -54.5t-37 -163.5q0 -91 29.5 -146t94.5 -55z" />
    <glyph glyph-name="r" unicode="r" horiz-adv-x="379" 
d="M371 430h-132q-37 -24 -57 -81v-301q43 -5 80 -24v-24h-230v24q27 15 66 24v396l-66 8v24q58 24 126 36h24v-103h4q21 44 66.5 76.5t96.5 26.5q13 -24 22 -58v-24z" />
    <glyph glyph-name="s" unicode="s" horiz-adv-x="431" 
d="M297 114q0 31 -24.5 55.5t-59.5 43t-70.5 40t-60 56t-24.5 79.5q0 53 44.5 88.5t107.5 35.5q90 0 152 -22q-10 -80 -24 -130h-24l-37 102q-21 8 -59 8q-34 0 -55 -22.5t-21 -51.5q0 -30 24.5 -54t59.5 -43l70 -39q36 -21 60.5 -52.5t24.5 -72.5q0 -66 -53 -106.5
t-130 -40.5q-73 0 -150 28q4 71 24 134h24l44 -109q14 -11 56 -11q44 0 72.5 24.5t28.5 59.5z" />
    <glyph glyph-name="t" unicode="t" horiz-adv-x="368" 
d="M16 452v24q38 24 80 34v86q18 16 60 36h24v-132h152v-48h-152v-294q0 -59 18.5 -84.5t58.5 -25.5q59 0 92 12l7 -13q-19 -21 -58.5 -40t-79.5 -19q-122 0 -122 144v320h-80z" />
    <glyph glyph-name="u" unicode="u" horiz-adv-x="569" 
d="M78 198q0 43 3 124.5t3 121.5l-66 8v24q63 24 126 36h24q0 -50 -3 -149t-3 -148q0 -84 22.5 -125.5t82.5 -41.5q88 0 126 119v277l-65 8v24q62 24 125 36h24v-456l66 -8v-20q-70 -31 -115 -38h-24l-7 119h-4q-10 -45 -52 -83t-98 -38q-85 0 -125 46t-40 164z" />
    <glyph glyph-name="v" unicode="v" horiz-adv-x="504" 
d="M279 0l-41 -12l-195 464q-29 10 -53 24v24h203v-23q-32 -17 -57 -25l119 -306l20 -62h2l15 63l109 305q-27 6 -55 24v24h168v-24q-18 -13 -57 -24z" />
    <glyph glyph-name="w" unicode="w" horiz-adv-x="722" 
d="M248 0l-48 -12l-157 464q-33 11 -53 24v24h203v-23q-35 -20 -57 -25l89 -296l13 -72h2l15 73l108 332l28 11l115 -344l18 -72h2l15 73l78 295q-26 5 -55 24v24h168v-24q-21 -14 -57 -24l-142 -452l-49 -12l-100 287l-19 83h-3l-23 -83z" />
    <glyph glyph-name="x" unicode="x" horiz-adv-x="515" 
d="M430 452l-137 -184l158 -220q35 -11 54 -24v-24h-200v23q37 21 51 25l-113 167l-114 -167q24 -9 50 -24v-24h-169v24q27 16 57 24l149 200l-150 204q-29 10 -50 24v24h196v-23q-27 -19 -50 -25l106 -153l104 153q-34 11 -50 24v24h165v-24q-18 -13 -57 -24z" />
    <glyph glyph-name="y" unicode="y" horiz-adv-x="503" 
d="M250 0l-207 452q-21 5 -53 24v24h203v-23q-21 -14 -57 -25l130 -301l20 -62h2l15 63l97 300q-30 6 -55 24v24h168v-24q-21 -14 -57 -24l-155 -452q-31 -83 -60.5 -128.5t-55 -62t-64.5 -24.5q-16 28 -32 83l13 24h102q13 16 21 35.5t25 72.5z" />
    <glyph glyph-name="z" unicode="z" horiz-adv-x="485" 
d="M396 170h24q14 -97 10 -170h-386v24l285 434h-191l-44 -118h-24q-10 57 -10 160h370v-24l-286 -434h198z" />
    <glyph glyph-name="braceleft" unicode="{" horiz-adv-x="347" 
d="M136 -125v237q0 51 -21 80t-59 29v28q37 0 58.5 30t21.5 75v240q0 49 24.5 77.5t71.5 28.5h87v-40h-50q-27 0 -39.5 -14t-12.5 -46v-235q0 -60 -33 -89.5t-77 -35.5v-6q41 -4 75.5 -37t34.5 -92v-235q0 -31 12.5 -45.5t40.5 -14.5h49v-40h-87q-45 0 -70.5 27t-25.5 78z
" />
    <glyph glyph-name="bar" unicode="|" horiz-adv-x="237" 
d="M94 -130v830h50v-830h-50z" />
    <glyph glyph-name="braceright" unicode="}" horiz-adv-x="347" 
d="M237 595v-236q0 -51 21 -80t59 -29v-28q-37 0 -58.5 -30t-21.5 -75v-241q0 -49 -24.5 -77.5t-71.5 -28.5h-86v40h50q27 0 39.5 14t12.5 46v236q0 60 29 90t71 35v6q-40 4 -70 37t-30 92v234q0 31 -12.5 45.5t-40.5 14.5h-49v40h87q45 0 70 -27t25 -78z" />
    <glyph glyph-name="asciitilde" unicode="~" 
d="M73 300l-14 23q65 93 131 93q34 0 96 -34t95 -34q40 0 77 34l12 -21q-52 -74 -112 -74q-34 0 -98.5 34t-96.5 34q-48 0 -90 -55z" />
    <glyph glyph-name="uni00A0" unicode="&#xa0;" horiz-adv-x="240" 
 />
    <glyph glyph-name="exclamdown" unicode="&#xa1;" horiz-adv-x="325" 
d="M127 286h24l30 -174v-298q-42 -22 -84 0v298zM205 448q0 -29 -18.5 -46.5t-47.5 -17.5q-30 0 -48.5 17.5t-18.5 46.5t18.5 46.5t48.5 17.5q29 0 47.5 -17.5t18.5 -46.5z" />
    <glyph glyph-name="cent" unicode="&#xa2;" 
d="M462 82l13 -13q-20 -37 -61 -59t-94 -22v-158h-50v162q-101 15 -154 83t-53 175q0 108 57 175t150 83v152h50v-148q96 0 153 -30q-8 -90 -31 -141h-24l-42 119q-15 10 -47 10h-9v-419q18 -3 37 -3q62 0 105 34zM153 250q0 -59 30.5 -110t86.5 -75v397q-117 -36 -117 -212
z" />
    <glyph glyph-name="sterling" unicode="&#xa3;" 
d="M29 332v50h86q-36 80 -36 152q0 81 56 129.5t149 48.5q124 0 190 -33q-4 -78 -24 -170h-24l-40 137q-36 16 -106 16q-81 0 -106 -65q-8 -22 -8 -46q0 -71 36 -169h159v-50h-141q17 -54 17 -103q0 -77 -55 -125l-33 -28v-4l56 6h202l49 112h24q10 -116 10 -190h-458v29
q66 28 97 68.5t31 100.5q0 14 -2 40q-5 51 -22 94h-107z" />
    <glyph glyph-name="currency" unicode="&#xa4;" 
d="M87 118l-51 51l84 83l34 11q-26 31 -26 83q0 50 26 83l-34 11l-83 84l51 51l83 -84l12 -33q37 27 82 27q50 -2 83 -27l12 33l83 83l51 -51l-84 -83l-32 -11q24 -33 24 -83q0 -48 -24 -84l32 -10l83 -84l-51 -51l-83 83l-11 33q-35 -24 -83 -24q-44 0 -84 24l-10 -32z
M265 264q36 0 60.5 23t24.5 59t-24.5 59.5t-60.5 23.5q-36 1 -60.5 -23t-24.5 -60t24.5 -59t60.5 -23z" />
    <glyph glyph-name="yen" unicode="&#xa5;" 
d="M357 672v28h217v-28q-37 -18 -76 -24l-161 -314h147v-50h-165v-64h165v-50h-165v-118q39 -5 76 -24v-28h-248v28q36 18 82 24v118h-165v50h165v64h-165v50h145l-172 314q-36 6 -81 24v28h258v-28q-32 -13 -77 -24l156 -297l146 297q-48 11 -82 24z" />
    <glyph glyph-name="brokenbar" unicode="&#xa6;" horiz-adv-x="237" 
d="M94 -130v320h50v-320h-50zM144 700v-320h-50v320h50z" />
    <glyph glyph-name="section" unicode="&#xa7;" horiz-adv-x="523" 
d="M349 44q0 33 -30 55t-72.5 36.5t-84.5 31.5t-72 51.5t-30 86.5q0 90 130 145q-100 47 -100 138q0 54 45 89t117 35q100 0 162 -22q-3 -29 -24 -100h-24l-57 72q-21 8 -49 8q-41 0 -63.5 -22t-22.5 -52q0 -33 30 -57t72 -39.5t84.5 -33.5t72.5 -50t30 -78q0 -93 -129 -154
q47 -21 73 -47.5t26 -68.5q0 -69 -52.5 -109.5t-140.5 -40.5q-83 0 -160 28q1 17 3.5 31.5t4.5 21.5t8 25t8 26h24l64 -79q14 -11 46 -11q49 0 80 24.5t31 59.5zM379 314q0 22 -10.5 39.5t-28 29t-41 22t-47.5 19.5q-11 4 -17 6q-37 -16 -64 -44.5t-27 -59.5q0 -26 11 -45.5
t36.5 -35t43 -23t55.5 -21.5q37 22 63 54t26 59z" />
    <glyph glyph-name="dieresis" unicode="&#xa8;" horiz-adv-x="444" 
d="M60 662q0 23 14.5 37t37.5 14t37.5 -14t14.5 -37q0 -22 -14.5 -35.5t-37.5 -13.5t-37.5 13.5t-14.5 35.5zM280 662q0 23 14.5 37t37.5 14t37.5 -14t14.5 -37q0 -22 -14.5 -35.5t-37.5 -13.5t-37.5 13.5t-14.5 35.5z" />
    <glyph glyph-name="copyright" unicode="&#xa9;" horiz-adv-x="806" 
d="M51 290q0 159 104 255.5t248 96.5t248 -96.5t104 -255.5t-104 -255.5t-248 -96.5q-150 0 -251 95.5t-101 256.5zM101 290q0 -136 87 -221.5t215 -85.5t215 85.5t87 221.5q0 134 -90 220.5t-212 86.5q-133 0 -217.5 -85t-84.5 -222zM481 134l28 71h24q12 -47 5 -100
q-29 -23 -109 -23q-100 0 -161 54.5t-61 154.5q0 98 63 153.5t146 55.5q77 0 119 -20q2 -18 -0.5 -53.5t-7.5 -55.5h-24l-30 82q-11 7 -51 7q-58 0 -91.5 -45.5t-33.5 -123.5q0 -73 33.5 -121t101.5 -48q37 0 49 12z" />
    <glyph glyph-name="ordfeminine" unicode="&#xaa;" horiz-adv-x="427" 
d="M125 606h-26q-22 26 -24 71q60 31 157 31q60 0 84 -25t24 -76q0 -27 -1.5 -86.5t-1.5 -79.5l50 -10v-25q-43 -24 -81 -28h-16q-11 29 -13 68h-4q-39 -70 -119 -70q-46 0 -75 26t-29 69q0 101 195 101q5 0 14 -0.5t13 -0.5q1 8 1 32q0 69 -72 69q-29 0 -55 -10zM180 421
q62 0 92 66v52q-14 1 -42 1q-45 0 -75 -16t-30 -48q0 -21 15 -38t40 -17z" />
    <glyph glyph-name="guillemotleft" unicode="&#xab;" horiz-adv-x="467" 
d="M391 59l-175 200l168 203l23 -17l-106 -179l112 -189zM241 57l-216 202l210 205l24 -18l-139 -181l145 -189z" />
    <glyph glyph-name="logicalnot" unicode="&#xac;" 
d="M54 326v60h424v-186h-60v126h-364z" />
    <glyph glyph-name="uni00AD" unicode="&#xad;" horiz-adv-x="426" 
d="M72 252v60h282v-60h-282z" />
    <glyph glyph-name="registered" unicode="&#xae;" horiz-adv-x="700" 
d="M85 451q0 124 76 194.5t189 70.5q115 0 190 -70.5t75 -194.5t-76 -194.5t-189 -70.5q-115 0 -190 70.5t-75 194.5zM130 451q0 -101 63.5 -163t156.5 -62q96 0 158 61t62 164q0 101 -63.5 163t-156.5 62q-97 0 -158.5 -61.5t-61.5 -163.5zM316 444v-103q19 -1 37 -9v-23
h-123v23q17 6 35 9v235q-17 1 -35 11v21h37q12 0 43 2t41 2q48 0 80 -21t32 -63q0 -53 -72 -76l13 -22l16 -25q4 -7 13.5 -20t18.5 -23.5t20 -20.5l23 -12v-20h-49l-28 11q-33 40 -66 124h-36zM346 581q-18 0 -30 -3v-106h32q30 0 45 14.5t14 41.5q-1 26 -17.5 39.5
t-43.5 13.5z" />
    <glyph glyph-name="macron" unicode="&#xaf;" horiz-adv-x="369" 
d="M309 639h-249v50h249v-50z" />
    <glyph glyph-name="degree" unicode="&#xb0;" horiz-adv-x="425" 
d="M85 571q0 61 41 101t100 40q61 0 101 -37t40 -104q0 -64 -40.5 -102.5t-100.5 -38.5t-100.5 38.5t-40.5 102.5zM139 571q0 -40 26 -66.5t61 -26.5q40 0 63.5 24.5t23.5 68.5q0 42 -24 67.5t-63 25.5t-63 -25.5t-24 -67.5z" />
    <glyph glyph-name="plusminus" unicode="&#xb1;" 
d="M40 439v50h200v211h50v-211h200v-50h-200v-157h-50v157h-200zM40 179v50h450v-50h-450z" />
    <glyph glyph-name="twosuperior" unicode="&#xb2;" horiz-adv-x="430" 
d="M127 753l-19 -112h-22q-14 19 -29 60.5t-17 63.5q84 48 168 48q150 0 150 -116q0 -65 -60.5 -131t-161.5 -120v-6l31 7h139l44 67h21q9 -63 9 -128h-337v31q90 51 162.5 128t72.5 140q0 41 -19 62t-67 21q-39 0 -65 -15z" />
    <glyph glyph-name="threesuperior" unicode="&#xb3;" horiz-adv-x="430" 
d="M207 422q47 0 70 23t23 53q0 44 -24.5 62.5t-81.5 18.5h-33v25l87 111l44 42v2l-62 -4h-91l-35 -93h-21q-11 24 -19.5 71t-8.5 71h304v-35l-90 -106l-39 -41v-1l31 4q50 0 84.5 -31t34.5 -86q0 -63 -50.5 -97t-134.5 -34q-39 0 -82 13.5t-69 32.5l34 91h17q15 -16 49 -82
q30 -10 63 -10z" />
    <glyph glyph-name="acute" unicode="&#xb4;" horiz-adv-x="326" 
d="M60 594l118 174q16 2 46.5 -5.5t41.5 -16.5v-19l-186 -150z" />
    <glyph glyph-name="mu" unicode="&#xb5;" horiz-adv-x="569" 
d="M138 15h-6l34 -191v-24q-46 -14 -88 0v644l-60 8v24q63 24 126 36h24q0 -50 -3 -149t-3 -148q0 -84 22.5 -125.5t82.5 -41.5q45 0 77.5 32.5t49.5 86.5v277l-66 8v24q62 24 126 36h24v-456l66 -8v-20q-70 -31 -116 -38h-24l-7 119h-4q-10 -45 -52 -83t-98 -38
q-69 0 -105 27z" />
    <glyph glyph-name="mu" unicode="&#x3bc;" horiz-adv-x="569" 
d="M138 15h-6l34 -191v-24q-46 -14 -88 0v644l-60 8v24q63 24 126 36h24q0 -50 -3 -149t-3 -148q0 -84 22.5 -125.5t82.5 -41.5q45 0 77.5 32.5t49.5 86.5v277l-66 8v24q62 24 126 36h24v-456l66 -8v-20q-70 -31 -116 -38h-24l-7 119h-4q-10 -45 -52 -83t-98 -38
q-69 0 -105 27z" />
    <glyph glyph-name="paragraph" unicode="&#xb6;" horiz-adv-x="507" 
d="M371 648v-554q0 -86 -17 -136t-41.5 -68.5t-66.5 -27.5q-33 -54 -98 -74l-11 18q49 21 75 70.5t26 147.5v286q-72 0 -125 47t-53 143q0 88 51.5 144t149.5 56h186v-28q-39 -18 -76 -24zM257 -117q40 17 55 67.5t15 143.5v559h-44v-629q0 -94 -26 -141z" />
    <glyph glyph-name="periodcentered" unicode="&#xb7;" horiz-adv-x="240" 
d="M54 306q0 29 18.5 46.5t47.5 17.5q30 0 48.5 -17.5t18.5 -46.5t-18.5 -46.5t-48.5 -17.5q-29 0 -47.5 17.5t-18.5 46.5z" />
    <glyph glyph-name="cedilla" unicode="&#xb8;" horiz-adv-x="281" 
d="M142 1l-26 -69q101 -3 104 -71q1 -53 -50 -83.5t-110 -27.5v29q42 6 64 21.5t21 45.5q-1 24 -21 35.5t-62 14.5l36 105h44z" />
    <glyph glyph-name="onesuperior" unicode="&#xb9;" horiz-adv-x="430" 
d="M363 406v-20h-276v20q58 25 101 34v250l4 45q-45 -13 -112 -11v27q71 16 153 62h30v-373q63 -14 100 -34z" />
    <glyph glyph-name="ordmasculine" unicode="&#xba;" horiz-adv-x="432" 
d="M44 542q0 76 48.5 123t123.5 47q78 0 125 -43.5t47 -126.5q0 -78 -48 -124t-124 -46q-78 0 -125 43.5t-47 126.5zM124 542q0 -61 24 -97.5t68 -36.5q92 0 92 134t-92 134t-92 -134z" />
    <glyph glyph-name="guillemotright" unicode="&#xbb;" horiz-adv-x="467" 
d="M251 259l-175 -200l-22 18l112 184l-106 184l23 17zM442 259l-216 -202l-24 19l145 184l-139 186l24 18z" />
    <glyph glyph-name="onequarter" unicode="&#xbc;" horiz-adv-x="936" 
d="M831 20v-20h-207v20q39 18 73 24v74h-246v22l289 287h32v-264h95v-45h-95v-74q34 -7 59 -24zM697 163v133l10 43h-3l-35 -43l-114 -117l-36 -23l64 7h114zM344 302v-20h-276v20q58 25 101 34v250l4 45q-45 -13 -112 -11v27q71 16 153 62h30v-373q63 -14 100 -34zM167 24
l584 685l33 -29l-585 -686z" />
    <glyph glyph-name="onehalf" unicode="&#xbd;" horiz-adv-x="1001" 
d="M678 367l-19 -112h-22q-14 18 -29 60t-17 64q84 48 168 48q150 0 150 -116q0 -65 -60.5 -131t-161.5 -120v-6l31 7h139l44 67h21q9 -63 9 -128h-337v31q90 51 162.5 128t72.5 140q0 41 -19 62t-67 21q-39 0 -65 -15zM344 302v-20h-276v20q58 25 101 34v250l4 45
q-45 -13 -112 -11v27q71 16 153 62h30v-373q63 -14 100 -34zM167 24l584 685l33 -29l-585 -686z" />
    <glyph glyph-name="threequarters" unicode="&#xbe;" horiz-adv-x="992" 
d="M233 318q47 0 70 23t23 53q0 44 -24.5 62.5t-81.5 18.5h-33v25l87 111l44 42v2l-62 -4h-91l-35 -93h-21q-11 24 -19.5 71t-8.5 71h304v-35l-90 -106l-39 -41v-1l31 4q50 0 84.5 -31t34.5 -86q0 -63 -50.5 -97t-134.5 -34q-39 0 -82 13.5t-69 32.5l34 91h17q15 -16 49 -82
q30 -10 63 -10zM887 20v-20h-207v20q39 18 73 24v74h-246v22l289 287h32v-264h95v-45h-95v-74q34 -7 59 -24zM753 163v133l10 43h-3l-35 -43l-114 -117l-36 -23l64 7h114zM223 24l584 685l33 -29l-585 -686z" />
    <glyph glyph-name="questiondown" unicode="&#xbf;" horiz-adv-x="472" 
d="M324 -139l22 122h24q24 -86 30 -150q-66 -41 -185 -41q-86 0 -132.5 45t-46.5 118q0 50 23 91t56 70l65 58q33 29 56 67.5t23 84.5h18q12 -61 2 -98t-35 -71.5t-51.5 -58.5t-46.5 -59t-20 -73q0 -50 29.5 -87t86.5 -37q61 0 82 19zM329 448q0 -29 -18.5 -46.5
t-47.5 -17.5q-30 0 -48.5 17.5t-18.5 46.5t18.5 46.5t48.5 17.5q29 0 47.5 -17.5t18.5 -46.5z" />
    <glyph glyph-name="Agrave" unicode="&#xc0;" horiz-adv-x="678" 
d="M219 28v-28h-219v28q36 16 72 24l253 660h24l253 -660q51 -10 76 -24v-28h-250v28q48 18 82 24l-69 185h-241l-67 -185q42 -6 86 -24zM298 500l-78 -213h204l-80 215l-19 86h-2zM218 893l147 -124l-16 -19l-224 91v20q11 13 43.5 23.5t49.5 8.5z" />
    <glyph glyph-name="Aacute" unicode="&#xc1;" horiz-adv-x="678" 
d="M219 28v-28h-219v28q36 16 72 24l253 660h24l253 -660q51 -10 76 -24v-28h-250v28q48 18 82 24l-69 185h-241l-67 -185q42 -6 86 -24zM298 500l-78 -213h204l-80 215l-19 86h-2zM304 769l147 124q17 2 49.5 -8.5t43.5 -23.5v-20l-224 -91z" />
    <glyph glyph-name="Acircumflex" unicode="&#xc2;" horiz-adv-x="678" 
d="M219 28v-28h-219v28q36 16 72 24l253 660h24l253 -660q51 -10 76 -24v-28h-250v28q48 18 82 24l-69 185h-241l-67 -185q42 -6 86 -24zM298 500l-78 -213h204l-80 215l-19 86h-2zM335 810l-121 -57l-13 18l127 112q12 6 22 0l125 -109l-13 -20z" />
    <glyph glyph-name="Atilde" unicode="&#xc3;" horiz-adv-x="678" 
d="M219 28v-28h-219v28q36 16 72 24l253 660h24l253 -660q51 -10 76 -24v-28h-250v28q48 18 82 24l-69 185h-241l-67 -185q42 -6 86 -24zM298 500l-78 -213h204l-80 215l-19 86h-2zM485 849l12 -27q-56 -55 -109 -55q-26 0 -68 17t-62 17q-29 0 -58 -25l-18 27q64 58 120 58
q25 0 66 -16t61 -16q28 0 56 20z" />
    <glyph glyph-name="Adieresis" unicode="&#xc4;" horiz-adv-x="678" 
d="M219 28v-28h-219v28q36 16 72 24l253 660h24l253 -660q51 -10 76 -24v-28h-250v28q48 18 82 24l-69 185h-241l-67 -185q42 -6 86 -24zM298 500l-78 -213h204l-80 215l-19 86h-2zM175 788q0 23 15 35t39 12t39 -12t15 -35q0 -21 -15 -33t-39 -12t-39 12t-15 33zM395 788
q0 23 15 35t39 12t39 -12t15 -35q0 -21 -15 -33t-39 -12t-39 12t-15 33z" />
    <glyph glyph-name="Aring" unicode="&#xc5;" horiz-adv-x="678" 
d="M229 788q0 39 32.5 62t80.5 23q42 0 74.5 -21t32.5 -61q0 -35 -29 -57.5t-70 -24.5l252 -657q51 -10 76 -24v-28h-250v28q48 18 82 24l-69 185h-241l-67 -185q42 -6 86 -24v-28h-219v28q36 16 72 24l252 658q-43 3 -69 23.5t-26 54.5zM298 500l-78 -213h204l-80 215
l-19 86h-2zM282 788q0 -19 16.5 -29t38.5 -10q59 0 59 38q0 24 -17 35t-39 11q-58 0 -58 -45z" />
    <glyph glyph-name="AE" unicode="&#xc6;" horiz-adv-x="917" 
d="M836 700q-2 -97 -10 -160h-24l-41 110h-221v-268h167l39 74h24q6 -99 0 -200h-24l-39 76h-167v-282h234l48 120h24q14 -97 10 -170h-488v28q35 16 82 24v205h-197l-118 -205q42 -6 86 -24v-28h-221v28q36 16 72 24l354 601q-34 9 -58 19v28h468zM406 520l-124 -213h168
v306h-2z" />
    <glyph glyph-name="Ccedilla" unicode="&#xc7;" horiz-adv-x="643" 
d="M501 57l47 122h24q13 -67 10 -150q-54 -41 -191 -41l-24 -63q115 -3 115 -79q0 -54 -55.5 -85t-121.5 -31v31q43 6 69 23t25 45q-1 50 -91 56l36 107q-290 32 -290 358q0 95 26.5 166.5t74 113t106 62t127.5 20.5q118 0 188 -34q2 -81 -14 -170h-24l-52 144
q-19 10 -89 10q-108 0 -179.5 -80.5t-71.5 -231.5q0 -143 72 -227.5t198 -84.5q68 0 85 19z" />
    <glyph glyph-name="Egrave" unicode="&#xc8;" horiz-adv-x="579" 
d="M30 700h468q-2 -97 -10 -160h-24l-41 110h-221v-268h167l39 74h24q6 -99 0 -200h-24l-39 76h-167v-282h234l48 120h24q14 -97 10 -170h-488v28q35 16 82 24v596q-42 8 -82 24v28zM208 893l147 -124l-16 -19l-224 91v20q11 13 43.5 23.5t49.5 8.5z" />
    <glyph glyph-name="Eacute" unicode="&#xc9;" horiz-adv-x="579" 
d="M30 700h468q-2 -97 -10 -160h-24l-41 110h-221v-268h167l39 74h24q6 -99 0 -200h-24l-39 76h-167v-282h234l48 120h24q14 -97 10 -170h-488v28q35 16 82 24v596q-42 8 -82 24v28zM215 769l147 124q17 2 49.5 -8.5t43.5 -23.5v-20l-224 -91z" />
    <glyph glyph-name="Ecircumflex" unicode="&#xca;" horiz-adv-x="579" 
d="M30 700h468q-2 -97 -10 -160h-24l-41 110h-221v-268h167l39 74h24q6 -99 0 -200h-24l-39 76h-167v-282h234l48 120h24q14 -97 10 -170h-488v28q35 16 82 24v596q-42 8 -82 24v28zM296 810l-121 -57l-13 18l127 112q12 6 22 0l125 -109l-13 -20z" />
    <glyph glyph-name="Edieresis" unicode="&#xcb;" horiz-adv-x="579" 
d="M30 700h468q-2 -97 -10 -160h-24l-41 110h-221v-268h167l39 74h24q6 -99 0 -200h-24l-39 76h-167v-282h234l48 120h24q14 -97 10 -170h-488v28q35 16 82 24v596q-42 8 -82 24v28zM122 788q0 23 15 35t39 12t39 -12t15 -35q0 -21 -15 -33t-39 -12t-39 12t-15 33zM342 788
q0 23 15 35t39 12t39 -12t15 -35q0 -21 -15 -33t-39 -12t-39 12t-15 33z" />
    <glyph glyph-name="Igrave" unicode="&#xcc;" horiz-adv-x="350" 
d="M300 28v-28h-250v28q39 18 80 24v596q-39 7 -80 24v28h250v-28q-32 -15 -80 -24v-596q42 -8 80 -24zM129 893l147 -124l-16 -19l-224 91v20q11 13 43.5 23.5t49.5 8.5z" />
    <glyph glyph-name="Iacute" unicode="&#xcd;" horiz-adv-x="350" 
d="M300 28v-28h-250v28q39 18 80 24v596q-39 7 -80 24v28h250v-28q-32 -15 -80 -24v-596q42 -8 80 -24zM96 769l147 124q17 2 49.5 -8.5t43.5 -23.5v-20l-224 -91z" />
    <glyph glyph-name="Icircumflex" unicode="&#xce;" horiz-adv-x="350" 
d="M300 28v-28h-250v28q39 18 80 24v596q-39 7 -80 24v28h250v-28q-32 -15 -80 -24v-596q42 -8 80 -24zM172 810l-121 -57l-13 18l127 112q12 6 22 0l125 -109l-13 -20z" />
    <glyph glyph-name="Idieresis" unicode="&#xcf;" horiz-adv-x="350" 
d="M300 28v-28h-250v28q39 18 80 24v596q-39 7 -80 24v28h250v-28q-32 -15 -80 -24v-596q42 -8 80 -24zM11 788q0 23 15 35t39 12t39 -12t15 -35q0 -21 -15 -33t-39 -12t-39 12t-15 33zM231 788q0 23 15 35t39 12t39 -12t15 -35q0 -21 -15 -33t-39 -12t-39 12t-15 33z" />
    <glyph glyph-name="Eth" unicode="&#xd0;" horiz-adv-x="705" 
d="M22 332v50h90v266q-49 11 -82 24v28h100q23 0 87 4t83 4q168 0 259.5 -91.5t91.5 -257.5t-94 -267t-278 -101q-18 0 -73.5 4.5t-81.5 4.5h-94v28q35 16 82 24v280h-90zM286 658q-68 0 -90 -5v-271h168v-50h-168v-287q26 -4 97 -4q89 0 149 46t84.5 115t24.5 157
q0 41 -8.5 81t-28 80t-49 70t-76 49t-103.5 19z" />
    <glyph glyph-name="Ntilde" unicode="&#xd1;" horiz-adv-x="729" 
d="M487 672v28h212v-28q-40 -26 -82 -39v-645h-53l-365 556l-39 78h-3l9 -78v-481q44 -13 76 -35v-28h-212v28q32 20 82 35v576q-43 16 -76 34v27h164l318 -482l46 -86h4l-5 86v415q-40 17 -76 39zM510 849l12 -27q-56 -55 -109 -55q-26 0 -68 17t-62 17q-29 0 -58 -25
l-18 27q64 58 120 58q25 0 66 -16t61 -16q28 0 56 20z" />
    <glyph glyph-name="Ograve" unicode="&#xd2;" horiz-adv-x="738" 
d="M54 350q0 160 84.5 261t230.5 101t230.5 -101t84.5 -261t-84.5 -261t-230.5 -101t-230.5 101t-84.5 261zM154 350q0 -135 58 -223.5t166 -88.5q100 0 153 88t53 224t-57 224t-166 88q-105 0 -156 -87t-51 -225zM288 893l147 -124l-16 -19l-224 91v20q11 13 43.5 23.5
t49.5 8.5z" />
    <glyph glyph-name="Oacute" unicode="&#xd3;" horiz-adv-x="738" 
d="M54 350q0 160 84.5 261t230.5 101t230.5 -101t84.5 -261t-84.5 -261t-230.5 -101t-230.5 101t-84.5 261zM154 350q0 -135 58 -223.5t166 -88.5q100 0 153 88t53 224t-57 224t-166 88q-105 0 -156 -87t-51 -225zM275 769l147 124q17 2 49.5 -8.5t43.5 -23.5v-20l-224 -91z
" />
    <glyph glyph-name="Ocircumflex" unicode="&#xd4;" horiz-adv-x="738" 
d="M54 350q0 160 84.5 261t230.5 101t230.5 -101t84.5 -261t-84.5 -261t-230.5 -101t-230.5 101t-84.5 261zM154 350q0 -135 58 -223.5t166 -88.5q100 0 153 88t53 224t-57 224t-166 88q-105 0 -156 -87t-51 -225zM366 810l-121 -57l-13 18l127 112q12 6 22 0l125 -109
l-13 -20z" />
    <glyph glyph-name="Otilde" unicode="&#xd5;" horiz-adv-x="738" 
d="M54 350q0 160 84.5 261t230.5 101t230.5 -101t84.5 -261t-84.5 -261t-230.5 -101t-230.5 101t-84.5 261zM154 350q0 -135 58 -223.5t166 -88.5q100 0 153 88t53 224t-57 224t-166 88q-105 0 -156 -87t-51 -225zM515 849l12 -27q-56 -55 -109 -55q-26 0 -68 17t-62 17
q-29 0 -58 -25l-18 27q64 58 120 58q25 0 66 -16t61 -16q28 0 56 20z" />
    <glyph glyph-name="Odieresis" unicode="&#xd6;" horiz-adv-x="738" 
d="M54 350q0 160 84.5 261t230.5 101t230.5 -101t84.5 -261t-84.5 -261t-230.5 -101t-230.5 101t-84.5 261zM154 350q0 -135 58 -223.5t166 -88.5q100 0 153 88t53 224t-57 224t-166 88q-105 0 -156 -87t-51 -225zM205 788q0 23 15 35t39 12t39 -12t15 -35q0 -21 -15 -33
t-39 -12t-39 12t-15 33zM425 788q0 23 15 35t39 12t39 -12t15 -35q0 -21 -15 -33t-39 -12t-39 12t-15 33z" />
    <glyph glyph-name="multiply" unicode="&#xd7;" 
d="M122 168l-35 35l141 141l-139 140l35 35l140 -139l141 141l35 -35l-141 -141l144 -144l-36 -36l-144 144z" />
    <glyph glyph-name="Oslash" unicode="&#xd8;" horiz-adv-x="738" 
d="M54 350q0 160 84.5 261t230.5 101q94 0 167 -46l29 47l49 -28l-34 -54q104 -101 104 -281q0 -160 -84.5 -261t-230.5 -101q-94 0 -166 44l-28 -45l-46 28l31 50q-106 100 -106 285zM154 350q0 -129 51 -213l294 471q-56 54 -138 54q-105 0 -156 -87t-51 -225zM584 350
q0 128 -49 210l-294 -469q55 -53 137 -53q100 0 153 88t53 224z" />
    <glyph glyph-name="Ugrave" unicode="&#xd9;" horiz-adv-x="667" 
d="M10 672v28h248v-28q-29 -13 -76 -24v-412q0 -102 44 -145t131 -43q168 0 168 188v402q-40 13 -78 34v28h210v-28q-40 -24 -78 -34v-404q0 -123 -61.5 -183t-170.5 -60q-125 0 -190 57t-65 170v430q-42 6 -82 24zM248 893l147 -124l-16 -19l-224 91v20q11 13 43.5 23.5
t49.5 8.5z" />
    <glyph glyph-name="Uacute" unicode="&#xda;" horiz-adv-x="667" 
d="M10 672v28h248v-28q-29 -13 -76 -24v-412q0 -102 44 -145t131 -43q168 0 168 188v402q-40 13 -78 34v28h210v-28q-40 -24 -78 -34v-404q0 -123 -61.5 -183t-170.5 -60q-125 0 -190 57t-65 170v430q-42 6 -82 24zM315 769l147 124q17 2 49.5 -8.5t43.5 -23.5v-20l-224 -91
z" />
    <glyph glyph-name="Ucircumflex" unicode="&#xdb;" horiz-adv-x="667" 
d="M10 672v28h248v-28q-29 -13 -76 -24v-412q0 -102 44 -145t131 -43q168 0 168 188v402q-40 13 -78 34v28h210v-28q-40 -24 -78 -34v-404q0 -123 -61.5 -183t-170.5 -60q-125 0 -190 57t-65 170v430q-42 6 -82 24zM350 810l-121 -57l-13 18l127 112q12 6 22 0l125 -109
l-13 -20z" />
    <glyph glyph-name="Udieresis" unicode="&#xdc;" horiz-adv-x="667" 
d="M10 672v28h248v-28q-29 -13 -76 -24v-412q0 -102 44 -145t131 -43q168 0 168 188v402q-40 13 -78 34v28h210v-28q-40 -24 -78 -34v-404q0 -123 -61.5 -183t-170.5 -60q-125 0 -190 57t-65 170v430q-42 6 -82 24zM189 788q0 23 15 35t39 12t39 -12t15 -35q0 -21 -15 -33
t-39 -12t-39 12t-15 33zM409 788q0 23 15 35t39 12t39 -12t15 -35q0 -21 -15 -33t-39 -12t-39 12t-15 33z" />
    <glyph glyph-name="Yacute" unicode="&#xdd;" horiz-adv-x="638" 
d="M421 672v28h217v-28q-37 -18 -76 -24l-189 -350v-246q39 -5 76 -24v-28h-248v28q36 18 82 24v245l-202 351q-36 6 -81 24v28h258v-28q-32 -13 -77 -24l166 -297l156 297q-48 11 -82 24zM315 769l147 124q17 2 49.5 -8.5t43.5 -23.5v-20l-224 -91z" />
    <glyph glyph-name="Thorn" unicode="&#xde;" horiz-adv-x="591" 
d="M202 179v-127q54 -8 96 -24v-28h-268v28q30 14 82 24v596q-39 7 -80 24v28h250v-28q-32 -15 -80 -24v-50q60 4 90 4q41 0 77 -6.5t70 -22t58.5 -39t39 -60.5t14.5 -83q0 -106 -79 -161t-193 -55q-58 0 -77 4zM272 552q-48 0 -70 -6v-316q16 -5 73 -5q76 0 126 42.5
t50 124.5q0 77 -47.5 118.5t-131.5 41.5z" />
    <glyph glyph-name="germandbls" unicode="&#xdf;" horiz-adv-x="631" 
d="M431 591q-1 44 -32 81.5t-71 37.5q-31 0 -52.5 -6t-42 -24t-31 -57t-10.5 -98v-525h-150v24q32 18 66 24v404h-76v24q35 22 76 33v35q0 59 21 102t55 65t68 31.5t69 9.5q99 0 145.5 -51.5t48.5 -126.5q-82 -11 -122.5 -42.5t-40.5 -95.5q0 -33 24.5 -61t59.5 -49l70 -45
q36 -24 60.5 -60.5t24.5 -82.5q0 -70 -48 -110t-135 -40q-83 0 -160 28q3 43 24 84h24l64 -62q19 -8 46 -8q48 0 74.5 24t26.5 60q0 27 -13 49.5t-34.5 39t-46.5 32t-50.5 33.5t-47 39t-34.5 52t-13 69q0 57 37.5 97t125.5 66z" />
    <glyph glyph-name="agrave" unicode="&#xe0;" horiz-adv-x="499" 
d="M403 130q0 -13 0.5 -25t1.5 -25.5t1 -21.5l69 -10v-20q-52 -27 -109 -38h-24q-13 31 -15 112h-5q-8 -45 -47 -79.5t-98 -34.5q-61 0 -99 37t-38 96q0 37 12.5 63.5t34 43t59 27.5t77.5 16t100 8q9 92 -10 141.5t-76 49.5q-41 0 -67 -10l-47 -120h-24q-21 65 -25 124
q80 48 184 48q48 0 79.5 -14t46 -39.5t19.5 -49.5t5 -56q0 -41 -2.5 -115.5t-2.5 -107.5zM214 48q44 0 71 29t38 60v105q-113 1 -153 -23.5t-40 -79.5q0 -43 22.5 -67t61.5 -24zM204 768l108 -174l-20 -17l-186 150v19q11 9 46 16.5t52 5.5z" />
    <glyph glyph-name="aacute" unicode="&#xe1;" horiz-adv-x="499" 
d="M403 130q0 -13 0.5 -25t1.5 -25.5t1 -21.5l69 -10v-20q-52 -27 -109 -38h-24q-13 31 -15 112h-5q-8 -45 -47 -79.5t-98 -34.5q-61 0 -99 37t-38 96q0 37 12.5 63.5t34 43t59 27.5t77.5 16t100 8q9 92 -10 141.5t-76 49.5q-41 0 -67 -10l-47 -120h-24q-21 65 -25 124
q80 48 184 48q48 0 79.5 -14t46 -39.5t19.5 -49.5t5 -56q0 -41 -2.5 -115.5t-2.5 -107.5zM214 48q44 0 71 29t38 60v105q-113 1 -153 -23.5t-40 -79.5q0 -43 22.5 -67t61.5 -24zM186 594l118 174q16 2 46.5 -5.5t41.5 -16.5v-19l-186 -150z" />
    <glyph glyph-name="acircumflex" unicode="&#xe2;" horiz-adv-x="499" 
d="M403 130q0 -13 0.5 -25t1.5 -25.5t1 -21.5l69 -10v-20q-52 -27 -109 -38h-24q-13 31 -15 112h-5q-8 -45 -47 -79.5t-98 -34.5q-61 0 -99 37t-38 96q0 37 12.5 63.5t34 43t59 27.5t77.5 16t100 8q9 92 -10 141.5t-76 49.5q-41 0 -67 -10l-47 -120h-24q-21 65 -25 124
q80 48 184 48q48 0 79.5 -14t46 -39.5t19.5 -49.5t5 -56q0 -41 -2.5 -115.5t-2.5 -107.5zM214 48q44 0 71 29t38 60v105q-113 1 -153 -23.5t-40 -79.5q0 -43 22.5 -67t61.5 -24zM244 700l-90 -108l-27 15l110 186q12 6 22 0l114 -185l-26 -16z" />
    <glyph glyph-name="atilde" unicode="&#xe3;" horiz-adv-x="499" 
d="M403 130q0 -13 0.5 -25t1.5 -25.5t1 -21.5l69 -10v-20q-52 -27 -109 -38h-24q-13 31 -15 112h-5q-8 -45 -47 -79.5t-98 -34.5q-61 0 -99 37t-38 96q0 37 12.5 63.5t34 43t59 27.5t77.5 16t100 8q9 92 -10 141.5t-76 49.5q-41 0 -67 -10l-47 -120h-24q-21 65 -25 124
q80 48 184 48q48 0 79.5 -14t46 -39.5t19.5 -49.5t5 -56q0 -41 -2.5 -115.5t-2.5 -107.5zM214 48q44 0 71 29t38 60v105q-113 1 -153 -23.5t-40 -79.5q0 -43 22.5 -67t61.5 -24zM380 699l12 -27q-56 -55 -107 -55q-25 0 -65 17t-59 17q-28 0 -56 -25l-18 27q63 58 117 58
q25 0 63 -16t58 -16q27 0 55 20z" />
    <glyph glyph-name="adieresis" unicode="&#xe4;" horiz-adv-x="499" 
d="M403 130q0 -13 0.5 -25t1.5 -25.5t1 -21.5l69 -10v-20q-52 -27 -109 -38h-24q-13 31 -15 112h-5q-8 -45 -47 -79.5t-98 -34.5q-61 0 -99 37t-38 96q0 37 12.5 63.5t34 43t59 27.5t77.5 16t100 8q9 92 -10 141.5t-76 49.5q-41 0 -67 -10l-47 -120h-24q-21 65 -25 124
q80 48 184 48q48 0 79.5 -14t46 -39.5t19.5 -49.5t5 -56q0 -41 -2.5 -115.5t-2.5 -107.5zM214 48q44 0 71 29t38 60v105q-113 1 -153 -23.5t-40 -79.5q0 -43 22.5 -67t61.5 -24zM77 662q0 23 14.5 37t37.5 14t37.5 -14t14.5 -37q0 -22 -14.5 -35.5t-37.5 -13.5t-37.5 13.5
t-14.5 35.5zM297 662q0 23 14.5 37t37.5 14t37.5 -14t14.5 -37q0 -22 -14.5 -35.5t-37.5 -13.5t-37.5 13.5t-14.5 35.5z" />
    <glyph glyph-name="aring" unicode="&#xe5;" horiz-adv-x="499" 
d="M403 130q0 -13 0.5 -25t1.5 -25.5t1 -21.5l69 -10v-20q-52 -27 -109 -38h-24q-13 31 -15 112h-5q-8 -45 -47 -79.5t-98 -34.5q-61 0 -99 37t-38 96q0 37 12.5 63.5t34 43t59 27.5t77.5 16t100 8q9 92 -10 141.5t-76 49.5q-41 0 -67 -10l-47 -120h-24q-21 65 -25 124
q80 48 184 48q48 0 79.5 -14t46 -39.5t19.5 -49.5t5 -56q0 -41 -2.5 -115.5t-2.5 -107.5zM214 48q44 0 71 29t38 60v105q-113 1 -153 -23.5t-40 -79.5q0 -43 22.5 -67t61.5 -24zM142 684q0 40 28.5 68t69.5 28q39 0 65.5 -25.5t26.5 -67.5q0 -40 -28 -66.5t-65 -26.5
q-43 0 -70 24.5t-27 65.5zM192 686q0 -25 13 -38.5t31 -13.5q21 0 33.5 12.5t12.5 36.5q0 26 -12.5 41.5t-32.5 15.5q-45 0 -45 -54z" />
    <glyph glyph-name="ae" unicode="&#xe6;" horiz-adv-x="773" 
d="M386 452q27 30 59.5 45t93.5 15q42 0 77 -12.5t65 -42.5t39 -80.5t-2 -125.5h-312q1 -91 44 -147t127 -56q35 0 71.5 10.5t53.5 25.5l14 -15q-16 -34 -63.5 -57.5t-98.5 -23.5q-63 0 -120.5 25.5t-84.5 85.5q-16 -48 -63 -79.5t-109 -31.5q-61 0 -99 37t-38 96
q0 37 12.5 63.5t34 43t59 27.5t77.5 16t100 8q9 92 -10 141.5t-76 49.5q-41 0 -67 -10l-47 -120h-24q-21 65 -25 124q80 48 184 48q102 0 128 -60zM214 48q45 0 72 27.5t37 57.5v109q-113 1 -153 -23.5t-40 -79.5q0 -43 22.5 -67t61.5 -24zM535 470q-59 0 -89.5 -41
t-36.5 -136h226q7 81 -18.5 129t-81.5 48z" />
    <glyph glyph-name="ccedilla" unicode="&#xe7;" horiz-adv-x="464" 
d="M411 82l13 -13q-20 -37 -61 -59t-95 -22l-21 -56q101 -3 104 -71q1 -53 -50 -83.5t-110 -27.5v29q42 6 64 21.5t21 45.5q-1 24 -21 35.5t-62 14.5l33 96q-90 14 -137 82t-47 176q0 125 61 193.5t166 68.5q96 0 153 -30q-8 -90 -31 -141h-24l-42 119q-15 10 -47 10
q-73 0 -109.5 -52.5t-36.5 -167.5q0 -81 46 -141.5t128 -60.5q62 0 105 34z" />
    <glyph glyph-name="egrave" unicode="&#xe8;" horiz-adv-x="499" 
d="M428 84l14 -15q-16 -34 -63.5 -57.5t-98.5 -23.5q-115 0 -176.5 70t-61.5 192q0 126 58.5 194t164.5 68q42 0 77 -12.5t65 -42.5t39 -80.5t-2 -125.5h-312q1 -91 44 -147t127 -56q35 0 71.5 10.5t53.5 25.5zM261 470q-59 0 -89.5 -41t-36.5 -136h226q7 81 -18.5 129
t-81.5 48zM214 768l108 -174l-20 -17l-186 150v19q11 9 46 16.5t52 5.5z" />
    <glyph glyph-name="eacute" unicode="&#xe9;" horiz-adv-x="499" 
d="M428 84l14 -15q-16 -34 -63.5 -57.5t-98.5 -23.5q-115 0 -176.5 70t-61.5 192q0 126 58.5 194t164.5 68q42 0 77 -12.5t65 -42.5t39 -80.5t-2 -125.5h-312q1 -91 44 -147t127 -56q35 0 71.5 10.5t53.5 25.5zM261 470q-59 0 -89.5 -41t-36.5 -136h226q7 81 -18.5 129
t-81.5 48zM206 594l118 174q16 2 46.5 -5.5t41.5 -16.5v-19l-186 -150z" />
    <glyph glyph-name="ecircumflex" unicode="&#xea;" horiz-adv-x="499" 
d="M428 84l14 -15q-16 -34 -63.5 -57.5t-98.5 -23.5q-115 0 -176.5 70t-61.5 192q0 126 58.5 194t164.5 68q42 0 77 -12.5t65 -42.5t39 -80.5t-2 -125.5h-312q1 -91 44 -147t127 -56q35 0 71.5 10.5t53.5 25.5zM261 470q-59 0 -89.5 -41t-36.5 -136h226q7 81 -18.5 129
t-81.5 48zM254 700l-90 -108l-27 15l110 186q12 6 22 0l114 -185l-26 -16z" />
    <glyph glyph-name="edieresis" unicode="&#xeb;" horiz-adv-x="499" 
d="M428 84l14 -15q-16 -34 -63.5 -57.5t-98.5 -23.5q-115 0 -176.5 70t-61.5 192q0 126 58.5 194t164.5 68q42 0 77 -12.5t65 -42.5t39 -80.5t-2 -125.5h-312q1 -91 44 -147t127 -56q35 0 71.5 10.5t53.5 25.5zM261 470q-59 0 -89.5 -41t-36.5 -136h226q7 81 -18.5 129
t-81.5 48zM94 662q0 23 14.5 37t37.5 14t37.5 -14t14.5 -37q0 -22 -14.5 -35.5t-37.5 -13.5t-37.5 13.5t-14.5 35.5zM314 662q0 23 14.5 37t37.5 14t37.5 -14t14.5 -37q0 -22 -14.5 -35.5t-37.5 -13.5t-37.5 13.5t-14.5 35.5z" />
    <glyph glyph-name="igrave" unicode="&#xec;" horiz-adv-x="298" 
d="M258 24v-24h-216v24q26 14 66 24v396l-66 8v24q58 24 126 36h24v-464q43 -10 66 -24zM90 768l108 -174l-20 -17l-186 150v19q11 9 46 16.5t52 5.5z" />
    <glyph glyph-name="iacute" unicode="&#xed;" horiz-adv-x="298" 
d="M258 24v-24h-216v24q26 14 66 24v396l-66 8v24q58 24 126 36h24v-464q43 -10 66 -24zM82 594l118 174q16 2 46.5 -5.5t41.5 -16.5v-19l-186 -150z" />
    <glyph glyph-name="icircumflex" unicode="&#xee;" horiz-adv-x="298" 
d="M258 24v-24h-216v24q26 14 66 24v396l-66 8v24q58 24 126 36h24v-464q43 -10 66 -24zM143 700l-90 -108l-27 15l110 186q12 6 22 0l114 -185l-26 -16z" />
    <glyph glyph-name="idieresis" unicode="&#xef;" horiz-adv-x="298" 
d="M258 24v-24h-216v24q26 14 66 24v396l-66 8v24q58 24 126 36h24v-464q43 -10 66 -24zM-14 662q0 23 14.5 37t37.5 14t37.5 -14t14.5 -37q0 -22 -14.5 -35.5t-37.5 -13.5t-37.5 13.5t-14.5 35.5zM206 662q0 23 14.5 37t37.5 14t37.5 -14t14.5 -37q0 -22 -14.5 -35.5
t-37.5 -13.5t-37.5 13.5t-14.5 35.5z" />
    <glyph glyph-name="eth" unicode="&#xf0;" 
d="M175 562l-19 41l116 47q-57 60 -122 84v16h57q64 -18 125 -75l111 46l18 -41l-95 -39q125 -146 125 -352q0 -136 -59.5 -218.5t-172.5 -82.5q-106 0 -168.5 70.5t-62.5 183.5q0 127 64.5 198.5t151.5 71.5t142 -57q-28 86 -83 160zM118 242q0 -86 40.5 -147.5
t107.5 -61.5q65 0 101 65t36 176q0 81 -11 128q-16 27 -50 43.5t-81 16.5q-64 0 -103.5 -57t-39.5 -163z" />
    <glyph glyph-name="ntilde" unicode="&#xf1;" horiz-adv-x="589" 
d="M571 24v-24h-210v24q25 14 60 24v237q0 82 -23.5 124.5t-80.5 42.5q-49 0 -84.5 -32.5t-50.5 -78.5v-293q32 -6 60 -24v-24h-210v24q26 14 66 24v396l-66 8v24q51 22 126 36h24v-113h1q23 50 62.5 81.5t92.5 31.5q86 0 126.5 -46t40.5 -164v-254q40 -7 66 -24zM435 699
l12 -27q-56 -55 -107 -55q-25 0 -65 17t-59 17q-28 0 -56 -25l-18 27q63 58 117 58q25 0 63 -16t58 -16q27 0 55 20z" />
    <glyph glyph-name="ograve" unicode="&#xf2;" horiz-adv-x="548" 
d="M42 250q0 124 62.5 193t169.5 69q118 0 175 -69t57 -193t-62.5 -193t-169.5 -69q-115 0 -173.5 70t-58.5 192zM132 250q0 -98 39 -159t120 -61q56 0 90.5 56t34.5 164q0 98 -37 159t-113 61q-62 0 -98 -55.5t-36 -164.5zM229 768l108 -174l-20 -17l-186 150v19
q11 9 46 16.5t52 5.5z" />
    <glyph glyph-name="oacute" unicode="&#xf3;" horiz-adv-x="548" 
d="M42 250q0 124 62.5 193t169.5 69q118 0 175 -69t57 -193t-62.5 -193t-169.5 -69q-115 0 -173.5 70t-58.5 192zM132 250q0 -98 39 -159t120 -61q56 0 90.5 56t34.5 164q0 98 -37 159t-113 61q-62 0 -98 -55.5t-36 -164.5zM211 594l118 174q16 2 46.5 -5.5t41.5 -16.5v-19
l-186 -150z" />
    <glyph glyph-name="ocircumflex" unicode="&#xf4;" horiz-adv-x="548" 
d="M42 250q0 124 62.5 193t169.5 69q118 0 175 -69t57 -193t-62.5 -193t-169.5 -69q-115 0 -173.5 70t-58.5 192zM132 250q0 -98 39 -159t120 -61q56 0 90.5 56t34.5 164q0 98 -37 159t-113 61q-62 0 -98 -55.5t-36 -164.5zM268 700l-90 -108l-27 15l110 186q12 6 22 0
l114 -185l-26 -16z" />
    <glyph glyph-name="otilde" unicode="&#xf5;" horiz-adv-x="548" 
d="M42 250q0 124 62.5 193t169.5 69q118 0 175 -69t57 -193t-62.5 -193t-169.5 -69q-115 0 -173.5 70t-58.5 192zM132 250q0 -98 39 -159t120 -61q56 0 90.5 56t34.5 164q0 98 -37 159t-113 61q-62 0 -98 -55.5t-36 -164.5zM414 699l12 -27q-56 -55 -107 -55q-25 0 -65 17
t-59 17q-28 0 -56 -25l-18 27q63 58 117 58q25 0 63 -16t58 -16q27 0 55 20z" />
    <glyph glyph-name="odieresis" unicode="&#xf6;" horiz-adv-x="548" 
d="M42 250q0 124 62.5 193t169.5 69q118 0 175 -69t57 -193t-62.5 -193t-169.5 -69q-115 0 -173.5 70t-58.5 192zM132 250q0 -98 39 -159t120 -61q56 0 90.5 56t34.5 164q0 98 -37 159t-113 61q-62 0 -98 -55.5t-36 -164.5zM112 662q0 23 14.5 37t37.5 14t37.5 -14t14.5 -37
q0 -22 -14.5 -35.5t-37.5 -13.5t-37.5 13.5t-14.5 35.5zM332 662q0 23 14.5 37t37.5 14t37.5 -14t14.5 -37q0 -22 -14.5 -35.5t-37.5 -13.5t-37.5 13.5t-14.5 35.5z" />
    <glyph glyph-name="divide" unicode="&#xf7;" 
d="M198 537q0 29 18.5 46.5t47.5 17.5q30 0 48.5 -17.5t18.5 -46.5t-18.5 -46.5t-48.5 -17.5q-29 0 -47.5 17.5t-18.5 46.5zM198 155q0 29 18.5 46.5t47.5 17.5q30 0 48.5 -17.5t18.5 -46.5t-18.5 -46.5t-48.5 -17.5q-29 0 -47.5 17.5t-18.5 46.5zM40 321v50h450v-50h-450z
" />
    <glyph glyph-name="oslash" unicode="&#xf8;" horiz-adv-x="548" 
d="M66 -37l50 78q-74 68 -74 209q0 124 62.5 193t169.5 69q78 0 127 -30l46 71l37 -24l-48 -73q70 -67 70 -206q0 -124 -62.5 -193t-169.5 -69q-71 0 -122 28l-50 -78zM132 250q0 -88 28 -141l205 317q-38 44 -99 44q-62 0 -98 -55.5t-36 -164.5zM416 250q0 80 -25 136
l-204 -316q38 -40 104 -40q56 0 90.5 56t34.5 164z" />
    <glyph glyph-name="ugrave" unicode="&#xf9;" horiz-adv-x="569" 
d="M78 198q0 43 3 124.5t3 121.5l-66 8v24q63 24 126 36h24q0 -50 -3 -149t-3 -148q0 -84 22.5 -125.5t82.5 -41.5q88 0 126 119v277l-65 8v24q62 24 125 36h24v-456l66 -8v-20q-70 -31 -115 -38h-24l-7 119h-4q-10 -45 -52 -83t-98 -38q-85 0 -125 46t-40 164zM239 768
l108 -174l-20 -17l-186 150v19q11 9 46 16.5t52 5.5z" />
    <glyph glyph-name="uacute" unicode="&#xfa;" horiz-adv-x="569" 
d="M78 198q0 43 3 124.5t3 121.5l-66 8v24q63 24 126 36h24q0 -50 -3 -149t-3 -148q0 -84 22.5 -125.5t82.5 -41.5q88 0 126 119v277l-65 8v24q62 24 125 36h24v-456l66 -8v-20q-70 -31 -115 -38h-24l-7 119h-4q-10 -45 -52 -83t-98 -38q-85 0 -125 46t-40 164zM221 594
l118 174q16 2 46.5 -5.5t41.5 -16.5v-19l-186 -150z" />
    <glyph glyph-name="ucircumflex" unicode="&#xfb;" horiz-adv-x="569" 
d="M78 198q0 43 3 124.5t3 121.5l-66 8v24q63 24 126 36h24q0 -50 -3 -149t-3 -148q0 -84 22.5 -125.5t82.5 -41.5q88 0 126 119v277l-65 8v24q62 24 125 36h24v-456l66 -8v-20q-70 -31 -115 -38h-24l-7 119h-4q-10 -45 -52 -83t-98 -38q-85 0 -125 46t-40 164zM278 700
l-90 -108l-27 15l110 186q12 6 22 0l114 -185l-26 -16z" />
    <glyph glyph-name="udieresis" unicode="&#xfc;" horiz-adv-x="569" 
d="M78 198q0 43 3 124.5t3 121.5l-66 8v24q63 24 126 36h24q0 -50 -3 -149t-3 -148q0 -84 22.5 -125.5t82.5 -41.5q88 0 126 119v277l-65 8v24q62 24 125 36h24v-456l66 -8v-20q-70 -31 -115 -38h-24l-7 119h-4q-10 -45 -52 -83t-98 -38q-85 0 -125 46t-40 164zM122 662
q0 23 14.5 37t37.5 14t37.5 -14t14.5 -37q0 -22 -14.5 -35.5t-37.5 -13.5t-37.5 13.5t-14.5 35.5zM342 662q0 23 14.5 37t37.5 14t37.5 -14t14.5 -37q0 -22 -14.5 -35.5t-37.5 -13.5t-37.5 13.5t-14.5 35.5z" />
    <glyph glyph-name="yacute" unicode="&#xfd;" horiz-adv-x="503" 
d="M250 0l-207 452q-21 5 -53 24v24h203v-23q-21 -14 -57 -25l130 -301l20 -62h2l15 63l97 300q-30 6 -55 24v24h168v-24q-21 -14 -57 -24l-155 -452q-31 -83 -60.5 -128.5t-55 -62t-64.5 -24.5q-16 28 -32 83l13 24h102q13 16 21 35.5t25 72.5zM198 594l118 174
q16 2 46.5 -5.5t41.5 -16.5v-19l-186 -150z" />
    <glyph glyph-name="thorn" unicode="&#xfe;" horiz-adv-x="561" 
d="M96 -152v836l-76 8v24q46 21 136 36h24v-352h1q45 112 150 112q186 0 186 -251q0 -126 -63 -199.5t-169 -73.5q-58 0 -105 20v-160q33 -5 66 -24v-24h-216v24q34 16 66 24zM301 452q-95 0 -121 -118v-281q34 -23 101 -23t106.5 65t39.5 166q0 191 -126 191z" />
    <glyph glyph-name="ydieresis" unicode="&#xff;" horiz-adv-x="503" 
d="M250 0l-207 452q-21 5 -53 24v24h203v-23q-21 -14 -57 -25l130 -301l20 -62h2l15 63l97 300q-30 6 -55 24v24h168v-24q-21 -14 -57 -24l-155 -452q-31 -83 -60.5 -128.5t-55 -62t-64.5 -24.5q-16 28 -32 83l13 24h102q13 16 21 35.5t25 72.5zM99 662q0 23 14.5 37
t37.5 14t37.5 -14t14.5 -37q0 -22 -14.5 -35.5t-37.5 -13.5t-37.5 13.5t-14.5 35.5zM319 662q0 23 14.5 37t37.5 14t37.5 -14t14.5 -37q0 -22 -14.5 -35.5t-37.5 -13.5t-37.5 13.5t-14.5 35.5z" />
    <glyph glyph-name="Amacron" unicode="&#x100;" horiz-adv-x="678" 
d="M219 28v-28h-219v28q36 16 72 24l253 660h24l253 -660q51 -10 76 -24v-28h-250v28q48 18 82 24l-69 185h-241l-67 -185q42 -6 86 -24zM298 500l-78 -213h204l-80 215l-19 86h-2zM489 789h-299v50h299v-50z" />
    <glyph glyph-name="amacron" unicode="&#x101;" horiz-adv-x="499" 
d="M403 130q0 -13 0.5 -25t1.5 -25.5t1 -21.5l69 -10v-20q-52 -27 -109 -38h-24q-13 31 -15 112h-5q-8 -45 -47 -79.5t-98 -34.5q-61 0 -99 37t-38 96q0 37 12.5 63.5t34 43t59 27.5t77.5 16t100 8q9 92 -10 141.5t-76 49.5q-41 0 -67 -10l-47 -120h-24q-21 65 -25 124
q80 48 184 48q48 0 79.5 -14t46 -39.5t19.5 -49.5t5 -56q0 -41 -2.5 -115.5t-2.5 -107.5zM214 48q44 0 71 29t38 60v105q-113 1 -153 -23.5t-40 -79.5q0 -43 22.5 -67t61.5 -24zM374 639h-249v50h249v-50z" />
    <glyph glyph-name="Abreve" unicode="&#x102;" horiz-adv-x="678" 
d="M219 28v-28h-219v28q36 16 72 24l253 660h24l253 -660q51 -10 76 -24v-28h-250v28q48 18 82 24l-69 185h-241l-67 -185q42 -6 86 -24zM298 500l-78 -213h204l-80 215l-19 86h-2zM457 882q15 2 31 -13q-18 -46 -58.5 -78t-87.5 -32q-53 0 -93 29.5t-59 82.5q13 18 41 14
q13 -24 46.5 -40.5t65.5 -17.5q77 -2 114 55z" />
    <glyph glyph-name="abreve" unicode="&#x103;" horiz-adv-x="499" 
d="M403 130q0 -13 0.5 -25t1.5 -25.5t1 -21.5l69 -10v-20q-52 -27 -109 -38h-24q-13 31 -15 112h-5q-8 -45 -47 -79.5t-98 -34.5q-61 0 -99 37t-38 96q0 37 12.5 63.5t34 43t59 27.5t77.5 16t100 8q9 92 -10 141.5t-76 49.5q-41 0 -67 -10l-47 -120h-24q-21 65 -25 124
q80 48 184 48q48 0 79.5 -14t46 -39.5t19.5 -49.5t5 -56q0 -41 -2.5 -115.5t-2.5 -107.5zM214 48q44 0 71 29t38 60v105q-113 1 -153 -23.5t-40 -79.5q0 -43 22.5 -67t61.5 -24zM361 729l23 -10q-20 -50 -53.5 -85t-78.5 -35q-93 0 -136 122l27 12q13 -25 46.5 -45t63.5 -21
q67 -2 108 62z" />
    <glyph glyph-name="Aogonek" unicode="&#x104;" horiz-adv-x="678" 
d="M219 28v-28h-219v28q36 16 72 24l253 660h24l253 -660q51 -10 76 -24v-28h-43q-103 -58 -103 -135q0 -28 18.5 -46.5t50.5 -18.5t56 6v-28q-36 -28 -90 -28q-46 0 -79 27.5t-33 70.5q0 48 33 83.5t94 68.5h-154v28q48 18 82 24l-69 185h-241l-67 -185q42 -6 86 -24z
M298 500l-78 -213h204l-80 215l-19 86h-2z" />
    <glyph glyph-name="aogonek" unicode="&#x105;" horiz-adv-x="499" 
d="M403 130q0 -13 0.5 -25t1.5 -25.5t1 -21.5l69 -10v-20q-5 -3 -28 -13q-105 -53 -105 -133q0 -23 15 -42t44 -19q22 0 54 9v-31q-35 -20 -74 -20q-56 0 -87 24t-31 63q0 73 93 124h-7h-7q-13 31 -15 112h-5q-8 -45 -47 -79.5t-98 -34.5q-61 0 -99 37t-38 96
q0 37 12.5 63.5t34 43t59 27.5t77.5 16t100 8q9 92 -10 141.5t-76 49.5q-41 0 -67 -10l-47 -120h-24q-21 65 -25 124q80 48 184 48q48 0 79.5 -14t46 -39.5t19.5 -49.5t5 -56q0 -41 -2.5 -115.5t-2.5 -107.5zM214 48q44 0 71 29t38 60v105q-113 1 -153 -23.5t-40 -79.5
q0 -43 22.5 -67t61.5 -24z" />
    <glyph glyph-name="Cacute" unicode="&#x106;" horiz-adv-x="643" 
d="M501 57l47 122h24q13 -67 10 -150q-53 -41 -172 -41q-172 0 -264 89t-92 273q0 95 26.5 166.5t74 113t106 62t127.5 20.5q118 0 188 -34q2 -81 -14 -170h-24l-52 144q-19 10 -89 10q-108 0 -179.5 -80.5t-71.5 -231.5q0 -143 72 -227.5t198 -84.5q68 0 85 19zM295 769
l147 124q17 2 49.5 -8.5t43.5 -23.5v-20l-224 -91z" />
    <glyph glyph-name="cacute" unicode="&#x107;" horiz-adv-x="464" 
d="M411 82l13 -13q-20 -36 -60 -58.5t-91 -22.5q-113 0 -172 70t-59 192q0 125 61 193.5t166 68.5q96 0 153 -30q-8 -90 -31 -141h-24l-42 119q-15 10 -47 10q-73 0 -109.5 -52.5t-36.5 -167.5q0 -81 46 -141.5t128 -60.5q62 0 105 34zM199 594l118 174q16 2 46.5 -5.5
t41.5 -16.5v-19l-186 -150z" />
    <glyph glyph-name="Ccircumflex" unicode="&#x108;" horiz-adv-x="643" 
d="M501 57l47 122h24q13 -67 10 -150q-53 -41 -172 -41q-172 0 -264 89t-92 273q0 95 26.5 166.5t74 113t106 62t127.5 20.5q118 0 188 -34q2 -81 -14 -170h-24l-52 144q-19 10 -89 10q-108 0 -179.5 -80.5t-71.5 -231.5q0 -143 72 -227.5t198 -84.5q68 0 85 19zM366 810
l-121 -57l-13 18l127 112q12 6 22 0l125 -109l-13 -20z" />
    <glyph glyph-name="ccircumflex" unicode="&#x109;" horiz-adv-x="464" 
d="M411 82l13 -13q-20 -36 -60 -58.5t-91 -22.5q-113 0 -172 70t-59 192q0 125 61 193.5t166 68.5q96 0 153 -30q-8 -90 -31 -141h-24l-42 119q-15 10 -47 10q-73 0 -109.5 -52.5t-36.5 -167.5q0 -81 46 -141.5t128 -60.5q62 0 105 34zM256 700l-90 -108l-27 15l110 186
q12 6 22 0l114 -185l-26 -16z" />
    <glyph glyph-name="Cdotaccent" unicode="&#x10a;" horiz-adv-x="643" 
d="M501 57l47 122h24q13 -67 10 -150q-53 -41 -172 -41q-172 0 -264 89t-92 273q0 95 26.5 166.5t74 113t106 62t127.5 20.5q118 0 188 -34q2 -81 -14 -170h-24l-52 144q-19 10 -89 10q-108 0 -179.5 -80.5t-71.5 -231.5q0 -143 72 -227.5t198 -84.5q68 0 85 19zM318 817
q0 25 17.5 39t44.5 14q26 0 43 -14t17 -39t-17 -39t-43 -14q-27 0 -44.5 14t-17.5 39z" />
    <glyph glyph-name="cdotaccent" unicode="&#x10b;" horiz-adv-x="464" 
d="M411 82l13 -13q-20 -36 -60 -58.5t-91 -22.5q-113 0 -172 70t-59 192q0 125 61 193.5t166 68.5q96 0 153 -30q-8 -90 -31 -141h-24l-42 119q-15 10 -47 10q-73 0 -109.5 -52.5t-36.5 -167.5q0 -81 46 -141.5t128 -60.5q62 0 105 34zM201 671q0 26 17 41.5t44 15.5
q28 0 44.5 -15.5t16.5 -41.5t-16.5 -41.5t-44.5 -15.5q-27 0 -44 15.5t-17 41.5z" />
    <glyph glyph-name="Ccaron" unicode="&#x10c;" horiz-adv-x="643" 
d="M501 57l47 122h24q13 -67 10 -150q-53 -41 -172 -41q-172 0 -264 89t-92 273q0 95 26.5 166.5t74 113t106 62t127.5 20.5q118 0 188 -34q2 -81 -14 -170h-24l-52 144q-19 10 -89 10q-108 0 -179.5 -80.5t-71.5 -231.5q0 -143 72 -227.5t198 -84.5q68 0 85 19zM387 832
l110 55q16 0 24 -16l-127 -112q-12 -6 -22 0l-125 109q11 19 24 19z" />
    <glyph glyph-name="ccaron" unicode="&#x10d;" horiz-adv-x="464" 
d="M411 82l13 -13q-20 -36 -60 -58.5t-91 -22.5q-113 0 -172 70t-59 192q0 125 61 193.5t166 68.5q96 0 153 -30q-8 -90 -31 -141h-24l-42 119q-15 10 -47 10q-73 0 -109.5 -52.5t-36.5 -167.5q0 -81 46 -141.5t128 -60.5q62 0 105 34zM258 689l100 108q20 0 27 -15
l-123 -186q-12 -6 -22 0l-121 185q9 16 33 16z" />
    <glyph glyph-name="Dcaron" unicode="&#x10e;" horiz-adv-x="705" 
d="M124 0h-94v28q35 16 82 24v596q-49 11 -82 24v28h100q23 0 87 4t83 4q168 0 259.5 -91.5t91.5 -257.5t-94 -267t-278 -101q-18 0 -73.5 4.5t-81.5 4.5zM286 658q-68 0 -90 -5v-608q26 -4 97 -4q89 0 149 46t84.5 115t24.5 157q0 41 -8.5 81t-28 80t-49 70t-76 49
t-103.5 19zM297 832l110 55q16 0 24 -16l-127 -112q-12 -6 -22 0l-125 109q11 19 24 19z" />
    <glyph glyph-name="dcaron" unicode="&#x10f;" horiz-adv-x="550" 
d="M377 99h-4q-11 -46 -47.5 -78.5t-86.5 -32.5q-197 0 -197 260q0 125 61 193t168 68q61 0 105 -16v191l-76 8v24q50 21 136 36h24v-696l66 -8v-20q-67 -32 -116 -38h-24zM255 48q96 0 121 117v284q-33 18 -101 18q-67 0 -105 -60t-38 -160q0 -87 31 -143t92 -56zM521 534
l-19 10q43 92 43 191l11 15q15 2 41 -5.5t37 -16.5q-8 -51 -42 -105t-71 -89z" />
    <glyph glyph-name="Dcroat" unicode="&#x110;" horiz-adv-x="705" 
d="M22 332v50h90v266q-49 11 -82 24v28h100q23 0 87 4t83 4q168 0 259.5 -91.5t91.5 -257.5t-94 -267t-278 -101q-18 0 -73.5 4.5t-81.5 4.5h-94v28q35 16 82 24v280h-90zM286 658q-68 0 -90 -5v-271h168v-50h-168v-287q26 -4 97 -4q89 0 149 46t84.5 115t24.5 157
q0 41 -8.5 81t-28 80t-49 70t-76 49t-103.5 19z" />
    <glyph glyph-name="dcroat" unicode="&#x111;" horiz-adv-x="550" 
d="M222 572v50h154v62l-76 8v24q50 21 136 36h24v-130h94v-50h-94v-516l66 -8v-20q-67 -32 -116 -38h-24l-9 109h-4q-11 -46 -47.5 -78.5t-86.5 -32.5q-197 0 -197 260q0 125 61 193t168 68q61 0 105 -16v79h-154zM255 48q96 0 121 117v284q-33 18 -101 18q-67 0 -105 -60
t-38 -160q0 -87 31 -143t92 -56z" />
    <glyph glyph-name="Emacron" unicode="&#x112;" horiz-adv-x="579" 
d="M30 700h468q-2 -97 -10 -160h-24l-41 110h-221v-268h167l39 74h24q6 -99 0 -200h-24l-39 76h-167v-282h234l48 120h24q14 -97 10 -170h-488v28q35 16 82 24v596q-42 8 -82 24v28zM451 789h-299v50h299v-50z" />
    <glyph glyph-name="emacron" unicode="&#x113;" horiz-adv-x="499" 
d="M428 84l14 -15q-16 -34 -63.5 -57.5t-98.5 -23.5q-115 0 -176.5 70t-61.5 192q0 126 58.5 194t164.5 68q42 0 77 -12.5t65 -42.5t39 -80.5t-2 -125.5h-312q1 -91 44 -147t127 -56q35 0 71.5 10.5t53.5 25.5zM261 470q-59 0 -89.5 -41t-36.5 -136h226q7 81 -18.5 129
t-81.5 48zM384 639h-249v50h249v-50z" />
    <glyph glyph-name="Ebreve" unicode="&#x114;" horiz-adv-x="579" 
d="M30 700h468q-2 -97 -10 -160h-24l-41 110h-221v-268h167l39 74h24q6 -99 0 -200h-24l-39 76h-167v-282h234l48 120h24q14 -97 10 -170h-488v28q35 16 82 24v596q-42 8 -82 24v28zM424 882q15 2 31 -13q-18 -46 -58.5 -78t-87.5 -32q-53 0 -93 29.5t-59 82.5q13 18 41 14
q13 -24 46.5 -40.5t65.5 -17.5q77 -2 114 55z" />
    <glyph glyph-name="ebreve" unicode="&#x115;" horiz-adv-x="499" 
d="M428 84l14 -15q-16 -34 -63.5 -57.5t-98.5 -23.5q-115 0 -176.5 70t-61.5 192q0 126 58.5 194t164.5 68q42 0 77 -12.5t65 -42.5t39 -80.5t-2 -125.5h-312q1 -91 44 -147t127 -56q35 0 71.5 10.5t53.5 25.5zM261 470q-59 0 -89.5 -41t-36.5 -136h226q7 81 -18.5 129
t-81.5 48zM362 729l23 -10q-20 -50 -53.5 -85t-78.5 -35q-93 0 -136 122l27 12q13 -25 46.5 -45t63.5 -21q67 -2 108 62z" />
    <glyph glyph-name="Edotaccent" unicode="&#x116;" horiz-adv-x="579" 
d="M30 700h468q-2 -97 -10 -160h-24l-41 110h-221v-268h167l39 74h24q6 -99 0 -200h-24l-39 76h-167v-282h234l48 120h24q14 -97 10 -170h-488v28q35 16 82 24v596q-42 8 -82 24v28zM228 817q0 25 17.5 39t44.5 14q26 0 43 -14t17 -39t-17 -39t-43 -14q-27 0 -44.5 14
t-17.5 39z" />
    <glyph glyph-name="edotaccent" unicode="&#x117;" horiz-adv-x="499" 
d="M428 84l14 -15q-16 -34 -63.5 -57.5t-98.5 -23.5q-115 0 -176.5 70t-61.5 192q0 126 58.5 194t164.5 68q42 0 77 -12.5t65 -42.5t39 -80.5t-2 -125.5h-312q1 -91 44 -147t127 -56q35 0 71.5 10.5t53.5 25.5zM261 470q-59 0 -89.5 -41t-36.5 -136h226q7 81 -18.5 129
t-81.5 48zM198 671q0 26 17 41.5t44 15.5q28 0 44.5 -15.5t16.5 -41.5t-16.5 -41.5t-44.5 -15.5q-27 0 -44 15.5t-17 41.5z" />
    <glyph glyph-name="Eogonek" unicode="&#x118;" horiz-adv-x="579" 
d="M30 700h468q-2 -97 -10 -160h-24l-41 110h-221v-268h167l39 74h24q6 -99 0 -200h-24l-39 76h-167v-282h234l48 120h24q13 -57 10 -170h-45q-103 -58 -103 -135q0 -28 18.5 -46.5t50.5 -18.5t56 6v-28q-36 -28 -90 -28q-46 0 -79 27.5t-33 70.5q0 48 33 83.5t94 68.5h-390
v28q35 16 82 24v596q-42 8 -82 24v28z" />
    <glyph glyph-name="eogonek" unicode="&#x119;" horiz-adv-x="499" 
d="M428 84l14 -15q-19 -40 -79 -65q-86 -48 -86 -122q0 -23 14.5 -42t44.5 -19q22 0 54 9v-31q-35 -20 -74 -20q-56 0 -87 24t-31 63q0 71 89 122q-120 0 -182.5 68.5t-62.5 193.5q0 126 58.5 194t164.5 68q42 0 77 -12.5t65 -42.5t39 -80.5t-2 -125.5h-312q1 -91 44 -147
t127 -56q35 0 71.5 10.5t53.5 25.5zM261 470q-59 0 -89.5 -41t-36.5 -136h226q7 81 -18.5 129t-81.5 48z" />
    <glyph glyph-name="Ecaron" unicode="&#x11a;" horiz-adv-x="579" 
d="M30 700h468q-2 -97 -10 -160h-24l-41 110h-221v-268h167l39 74h24q6 -99 0 -200h-24l-39 76h-167v-282h234l48 120h24q14 -97 10 -170h-488v28q35 16 82 24v596q-42 8 -82 24v28zM297 832l110 55q16 0 24 -16l-127 -112q-12 -6 -22 0l-125 109q11 19 24 19z" />
    <glyph glyph-name="ecaron" unicode="&#x11b;" horiz-adv-x="499" 
d="M428 84l14 -15q-16 -34 -63.5 -57.5t-98.5 -23.5q-115 0 -176.5 70t-61.5 192q0 126 58.5 194t164.5 68q42 0 77 -12.5t65 -42.5t39 -80.5t-2 -125.5h-312q1 -91 44 -147t127 -56q35 0 71.5 10.5t53.5 25.5zM261 470q-59 0 -89.5 -41t-36.5 -136h226q7 81 -18.5 129
t-81.5 48zM256 689l100 108q20 0 27 -15l-123 -186q-12 -6 -22 0l-121 185q9 16 33 16z" />
    <glyph glyph-name="Gcircumflex" unicode="&#x11c;" horiz-adv-x="686" 
d="M606 278v-229q-42 -24 -100.5 -42.5t-105.5 -18.5q-164 0 -255 89.5t-91 272.5q0 95 28 166.5t76.5 113t106 62t123.5 20.5q118 0 188 -34q2 -86 -14 -170h-24l-52 144q-19 10 -89 10q-108 0 -179.5 -80.5t-71.5 -231.5q0 -140 74 -226t186 -86q36 0 71 13t45 23v204
q-38 3 -96 24v28h242v-28q-25 -17 -62 -24zM366 810l-121 -57l-13 18l127 112q12 6 22 0l125 -109l-13 -20z" />
    <glyph glyph-name="gcircumflex" unicode="&#x11d;" horiz-adv-x="522" 
d="M245 512q103 0 151 -42q59 38 125 56q12 -21 12 -55l-13 -24h-105q25 -37 25 -96q0 -73 -51.5 -117t-143.5 -44q-38 0 -58 4q-2 -4 -7.5 -13t-8.5 -16.5t-3 -15.5q0 -22 31.5 -36t77 -24.5t91.5 -24.5t78.5 -45.5t33.5 -78.5q1 -70 -63 -111t-168 -41q-103 0 -160 36
t-57 94q0 52 30 81t95 50q-47 22 -47 69q0 21 17 43.5t38 37.5q-55 15 -85 57t-30 95q0 71 51 116t144 45zM396 -81q0 24 -13.5 42.5t-39.5 30t-50 18.5t-60 15.5t-54 14.5q-63 -38 -63 -103q0 -107 151 -107q129 0 129 89zM134 351q0 -119 111 -119q56 0 83.5 33t27.5 86
q0 119 -111 119t-111 -119zM237 700l-90 -108l-27 15l110 186q12 6 22 0l114 -185l-26 -16z" />
    <glyph glyph-name="Gbreve" unicode="&#x11e;" horiz-adv-x="686" 
d="M606 278v-229q-42 -24 -100.5 -42.5t-105.5 -18.5q-164 0 -255 89.5t-91 272.5q0 95 28 166.5t76.5 113t106 62t123.5 20.5q118 0 188 -34q2 -86 -14 -170h-24l-52 144q-19 10 -89 10q-108 0 -179.5 -80.5t-71.5 -231.5q0 -140 74 -226t186 -86q36 0 71 13t45 23v204
q-38 3 -96 24v28h242v-28q-25 -17 -62 -24zM513 882q15 2 31 -13q-18 -46 -58.5 -78t-87.5 -32q-53 0 -93 29.5t-59 82.5q13 18 41 14q13 -24 46.5 -40.5t65.5 -17.5q77 -2 114 55z" />
    <glyph glyph-name="gbreve" unicode="&#x11f;" horiz-adv-x="522" 
d="M245 512q103 0 151 -42q59 38 125 56q12 -21 12 -55l-13 -24h-105q25 -37 25 -96q0 -73 -51.5 -117t-143.5 -44q-38 0 -58 4q-2 -4 -7.5 -13t-8.5 -16.5t-3 -15.5q0 -22 31.5 -36t77 -24.5t91.5 -24.5t78.5 -45.5t33.5 -78.5q1 -70 -63 -111t-168 -41q-103 0 -160 36
t-57 94q0 52 30 81t95 50q-47 22 -47 69q0 21 17 43.5t38 37.5q-55 15 -85 57t-30 95q0 71 51 116t144 45zM396 -81q0 24 -13.5 42.5t-39.5 30t-50 18.5t-60 15.5t-54 14.5q-63 -38 -63 -103q0 -107 151 -107q129 0 129 89zM134 351q0 -119 111 -119q56 0 83.5 33t27.5 86
q0 119 -111 119t-111 -119zM352 729l23 -10q-20 -50 -53.5 -85t-78.5 -35q-93 0 -136 122l27 12q13 -25 46.5 -45t63.5 -21q67 -2 108 62z" />
    <glyph glyph-name="Gdotaccent" unicode="&#x120;" horiz-adv-x="686" 
d="M606 278v-229q-42 -24 -100.5 -42.5t-105.5 -18.5q-164 0 -255 89.5t-91 272.5q0 95 28 166.5t76.5 113t106 62t123.5 20.5q118 0 188 -34q2 -86 -14 -170h-24l-52 144q-19 10 -89 10q-108 0 -179.5 -80.5t-71.5 -231.5q0 -140 74 -226t186 -86q36 0 71 13t45 23v204
q-38 3 -96 24v28h242v-28q-25 -17 -62 -24zM335 817q0 25 17.5 39t44.5 14q26 0 43 -14t17 -39t-17 -39t-43 -14q-27 0 -44.5 14t-17.5 39z" />
    <glyph glyph-name="gdotaccent" unicode="&#x121;" horiz-adv-x="522" 
d="M245 512q103 0 151 -42q59 38 125 56q12 -21 12 -55l-13 -24h-105q25 -37 25 -96q0 -73 -51.5 -117t-143.5 -44q-38 0 -58 4q-2 -4 -7.5 -13t-8.5 -16.5t-3 -15.5q0 -22 31.5 -36t77 -24.5t91.5 -24.5t78.5 -45.5t33.5 -78.5q1 -70 -63 -111t-168 -41q-103 0 -160 36
t-57 94q0 52 30 81t95 50q-47 22 -47 69q0 21 17 43.5t38 37.5q-55 15 -85 57t-30 95q0 71 51 116t144 45zM396 -81q0 24 -13.5 42.5t-39.5 30t-50 18.5t-60 15.5t-54 14.5q-63 -38 -63 -103q0 -107 151 -107q129 0 129 89zM134 351q0 -119 111 -119q56 0 83.5 33t27.5 86
q0 119 -111 119t-111 -119zM182 671q0 26 17 41.5t44 15.5q28 0 44.5 -15.5t16.5 -41.5t-16.5 -41.5t-44.5 -15.5q-27 0 -44 15.5t-17 41.5z" />
    <glyph glyph-name="Gcommaaccent" unicode="&#x122;" horiz-adv-x="686" 
d="M606 278v-229q-42 -24 -100.5 -42.5t-105.5 -18.5q-164 0 -255 89.5t-91 272.5q0 95 28 166.5t76.5 113t106 62t123.5 20.5q118 0 188 -34q2 -86 -14 -170h-24l-52 144q-19 10 -89 10q-108 0 -179.5 -80.5t-71.5 -231.5q0 -140 74 -226t186 -86q36 0 71 13t45 23v204
q-38 3 -96 24v28h242v-28q-25 -17 -62 -24zM337 -271l-16 33q22 10 37.5 30t12.5 47q-22 16 -65 32q-8 29 12 55t43 27q35 -4 59.5 -27.5t24.5 -62.5q0 -48 -28.5 -83.5t-79.5 -50.5z" />
    <glyph glyph-name="gcommaaccent" unicode="&#x123;" horiz-adv-x="522" 
d="M245 512q103 0 151 -42q59 38 125 56q12 -21 12 -55l-13 -24h-105q25 -37 25 -96q0 -73 -51.5 -117t-143.5 -44q-38 0 -58 4q-2 -4 -7.5 -13t-8.5 -16.5t-3 -15.5q0 -22 31.5 -36t77 -24.5t91.5 -24.5t78.5 -45.5t33.5 -78.5q1 -70 -63 -111t-168 -41q-103 0 -160 36
t-57 94q0 52 30 81t95 50q-47 22 -47 69q0 21 17 43.5t38 37.5q-55 15 -85 57t-30 95q0 71 51 116t144 45zM396 -81q0 24 -13.5 42.5t-39.5 30t-50 18.5t-60 15.5t-54 14.5q-63 -38 -63 -103q0 -107 151 -107q129 0 129 89zM134 351q0 -119 111 -119q56 0 83.5 33t27.5 86
q0 119 -111 119t-111 -119zM298 813l16 -33q-55 -23 -55 -75q22 -16 65 -32q8 -29 -12 -55t-43 -27q-34 4 -55 27t-21 63q0 47 30 84t75 48z" />
    <glyph glyph-name="Hcircumflex" unicode="&#x124;" horiz-adv-x="724" 
d="M278 28v-28h-248v28q40 16 82 24v596q-49 8 -82 24v28h248v-28q-36 -18 -76 -24v-264h320v264q-35 6 -76 24v28h248v-28q-27 -14 -82 -24v-596q48 -8 82 -24v-28h-248v28q35 16 76 24v282h-320v-282q41 -8 76 -24zM359 810l-121 -57l-13 18l127 112q12 6 22 0l125 -109
l-13 -20z" />
    <glyph glyph-name="hcircumflex" unicode="&#x125;" horiz-adv-x="581" 
d="M563 24v-24h-210v24q24 14 60 24v237q0 82 -23.5 124.5t-80.5 42.5q-49 0 -84.5 -32.5t-50.5 -78.5v-293q40 -10 60 -24v-24h-210v24q32 16 66 24v636l-76 8v24q51 21 136 36h24v-353h1q23 50 62.5 81.5t92.5 31.5q86 0 126.5 -46t40.5 -164v-254q44 -9 66 -24zM146 810
l-121 -57l-13 18l127 112q12 6 22 0l125 -109l-13 -20z" />
    <glyph glyph-name="Hbar" unicode="&#x126;" horiz-adv-x="724" 
d="M31 507v50h81v91q-49 8 -82 24v28h248v-28q-36 -18 -76 -24v-91h320v91q-35 6 -76 24v28h248v-28q-27 -14 -82 -24v-91h81v-50h-81v-455q48 -8 82 -24v-28h-248v28q35 16 76 24v282h-320v-282q41 -8 76 -24v-28h-248v28q40 16 82 24v455h-81zM202 384h320v123h-320v-123z
" />
    <glyph glyph-name="hbar" unicode="&#x127;" horiz-adv-x="581" 
d="M2 572v50h88v62l-76 8v24q51 21 136 36h24v-130h160v-50h-160v-173h1q23 50 62.5 81.5t92.5 31.5q86 0 126.5 -46t40.5 -164v-254q44 -9 66 -24v-24h-210v24q24 14 60 24v237q0 82 -23.5 124.5t-80.5 42.5q-49 0 -84.5 -32.5t-50.5 -78.5v-293q40 -10 60 -24v-24h-210v24
q32 16 66 24v524h-88z" />
    <glyph glyph-name="Itilde" unicode="&#x128;" horiz-adv-x="350" 
d="M300 28v-28h-250v28q39 18 80 24v596q-39 7 -80 24v28h250v-28q-32 -15 -80 -24v-596q42 -8 80 -24zM321 849l12 -27q-56 -55 -109 -55q-26 0 -68 17t-62 17q-29 0 -58 -25l-18 27q64 58 120 58q25 0 66 -16t61 -16q28 0 56 20z" />
    <glyph glyph-name="itilde" unicode="&#x129;" horiz-adv-x="298" 
d="M258 24v-24h-216v24q26 14 66 24v396l-66 8v24q58 24 126 36h24v-464q43 -10 66 -24zM289 699l12 -27q-56 -55 -107 -55q-25 0 -65 17t-59 17q-28 0 -56 -25l-18 27q63 58 117 58q25 0 63 -16t58 -16q27 0 55 20z" />
    <glyph glyph-name="Imacron" unicode="&#x12a;" horiz-adv-x="350" 
d="M300 28v-28h-250v28q39 18 80 24v596q-39 7 -80 24v28h250v-28q-32 -15 -80 -24v-596q42 -8 80 -24zM325 789h-299v50h299v-50z" />
    <glyph glyph-name="imacron" unicode="&#x12b;" horiz-adv-x="298" 
d="M258 24v-24h-216v24q26 14 66 24v396l-66 8v24q58 24 126 36h24v-464q43 -10 66 -24zM273 639h-249v50h249v-50z" />
    <glyph glyph-name="Ibreve" unicode="&#x12c;" horiz-adv-x="350" 
d="M300 28v-28h-250v28q39 18 80 24v596q-39 7 -80 24v28h250v-28q-32 -15 -80 -24v-596q42 -8 80 -24zM293 882q15 2 31 -13q-18 -46 -58.5 -78t-87.5 -32q-53 0 -93 29.5t-59 82.5q13 18 41 14q13 -24 46.5 -40.5t65.5 -17.5q77 -2 114 55z" />
    <glyph glyph-name="ibreve" unicode="&#x12d;" horiz-adv-x="298" 
d="M258 24v-24h-216v24q26 14 66 24v396l-66 8v24q58 24 126 36h24v-464q43 -10 66 -24zM260 729l23 -10q-20 -50 -53.5 -85t-78.5 -35q-93 0 -136 122l27 12q13 -25 46.5 -45t63.5 -21q67 -2 108 62z" />
    <glyph glyph-name="Iogonek" unicode="&#x12e;" horiz-adv-x="350" 
d="M300 28v-28h-41q-103 -58 -103 -135q0 -28 18.5 -46.5t50.5 -18.5t56 6v-28q-36 -28 -90 -28q-46 0 -79 27.5t-33 70.5q0 48 33 83.5t94 68.5h-156v28q39 18 80 24v596q-39 7 -80 24v28h250v-28q-32 -15 -80 -24v-596q42 -8 80 -24z" />
    <glyph glyph-name="iogonek" unicode="&#x12f;" horiz-adv-x="298" 
d="M258 24v-24h-39q-78 -49 -78 -118q0 -23 14.5 -42t44.5 -19q22 0 54 9v-31q-35 -20 -74 -20q-56 0 -87 24t-31 63q0 81 112 134h-132v24q26 14 66 24v396l-66 8v24q58 24 126 36h24v-464q43 -10 66 -24zM89 671q0 26 17 41.5t44 15.5q28 0 44.5 -15.5t16.5 -41.5
t-16.5 -41.5t-44.5 -15.5q-27 0 -44 15.5t-17 41.5z" />
    <glyph glyph-name="Idotaccent" unicode="&#x130;" horiz-adv-x="350" 
d="M300 28v-28h-250v28q39 18 80 24v596q-39 7 -80 24v28h250v-28q-32 -15 -80 -24v-596q42 -8 80 -24zM114 817q0 25 17.5 39t44.5 14q26 0 43 -14t17 -39t-17 -39t-43 -14q-27 0 -44.5 14t-17.5 39z" />
    <glyph glyph-name="dotlessi" unicode="&#x131;" horiz-adv-x="298" 
d="M258 24v-24h-216v24q26 14 66 24v396l-66 8v24q58 24 126 36h24v-464q43 -10 66 -24z" />
    <glyph glyph-name="Jcircumflex" unicode="&#x134;" horiz-adv-x="338" 
d="M40 672v28h248v-28q-35 -16 -76 -24v-566q0 -206 -148 -242l-10 14q34 29 51 75.5t17 141.5v577q-54 11 -82 24zM163 810l-121 -57l-13 18l127 112q12 6 22 0l125 -109l-13 -20z" />
    <glyph glyph-name="jcircumflex" unicode="&#x135;" horiz-adv-x="284" 
d="M106 24v420l-66 8v24q53 24 126 36h24v-469q0 -66 -16 -117t-42 -78.5t-46 -40.5t-40 -19l-11 18q28 14 49.5 68.5t21.5 149.5zM140 700l-90 -108l-27 15l110 186q12 6 22 0l114 -185l-26 -16z" />
    <glyph glyph-name="Kcommaaccent" unicode="&#x136;" horiz-adv-x="639" 
d="M380 672v28h216v-28q-38 -18 -76 -24l-202 -269q184 -235 273 -331l48 -24v-24h-120l-33 24q-107 122 -234 312h-50v-284q45 -8 76 -24v-28h-248v28q40 16 82 24v596q-48 6 -82 24v28h248v-28q-31 -13 -76 -24v-280l60 14l190 266q-32 6 -72 24zM277 -271l-16 33
q22 10 37.5 30t12.5 47q-22 16 -65 32q-8 29 12 55t43 27q35 -4 59.5 -27.5t24.5 -62.5q0 -48 -28.5 -83.5t-79.5 -50.5z" />
    <glyph glyph-name="kcommaaccent" unicode="&#x137;" horiz-adv-x="508" 
d="M297 476v24h189v-24q-38 -17 -77 -24q-86 -109 -145 -168q96 -131 188 -236l56 -24v-24h-119l-27 24q-71 89 -155 215l-33 10v-201q34 -6 66 -24v-24h-216v24q33 16 66 24v636l-76 8v24q34 16 136 36h24v-479h26q80 86 147 179q-24 7 -50 24zM214 -269l-16 33
q55 23 55 75q-22 16 -65 32q-8 29 12 55t43 27q34 -4 55 -27t21 -63q0 -47 -30 -84t-75 -48z" />
    <glyph glyph-name="kgreenlandic" unicode="&#x138;" horiz-adv-x="535" 
d="M323 476v24h189v-24q-18 -14 -67 -29q-75 -90 -154 -169q30 -32 97.5 -114t99.5 -116l47 -24v-24h-112l-32 23q-36 42 -96 125l-65 90h-40v-190q47 -12 66 -24v-24h-216v24q27 16 66 24v404q-34 8 -66 24v24h200v-24q-20 -14 -50 -24v-190l46 10l49 54q36 40 57.5 66.5
t40.5 54.5q-41 17 -60 29z" />
    <glyph glyph-name="Lacute" unicode="&#x139;" horiz-adv-x="545" 
d="M30 672v28h268v-28q-48 -18 -96 -24v-598h234l58 160h24q15 -107 10 -210h-498v28q34 16 82 24v596q-48 8 -82 24zM145 769l147 124q17 2 49.5 -8.5t43.5 -23.5v-20l-224 -91z" />
    <glyph glyph-name="lacute" unicode="&#x13a;" horiz-adv-x="298" 
d="M258 24v-24h-216v24q33 16 66 24v636l-76 8v24q46 21 136 36h24v-704q33 -8 66 -24zM85 769l147 124q17 2 49.5 -8.5t43.5 -23.5v-20l-224 -91z" />
    <glyph glyph-name="Lcommaaccent" unicode="&#x13b;" horiz-adv-x="545" 
d="M30 672v28h268v-28q-48 -18 -96 -24v-598h234l58 160h24q15 -107 10 -210h-498v28q34 16 82 24v596q-48 8 -82 24zM237 -271l-16 33q22 10 37.5 30t12.5 47q-22 16 -65 32q-8 29 12 55t43 27q35 -4 59.5 -27.5t24.5 -62.5q0 -48 -28.5 -83.5t-79.5 -50.5z" />
    <glyph glyph-name="lcommaaccent" unicode="&#x13c;" horiz-adv-x="298" 
d="M258 24v-24h-216v24q33 16 66 24v636l-76 8v24q46 21 136 36h24v-704q33 -8 66 -24zM114 -269l-16 33q55 23 55 75q-22 16 -65 32q-8 29 12 55t43 27q34 -4 55 -27t21 -63q0 -47 -30 -84t-75 -48z" />
    <glyph glyph-name="Lcaron" unicode="&#x13d;" horiz-adv-x="545" 
d="M30 672v28h268v-28q-48 -18 -96 -24v-598h234l58 160h24q15 -107 10 -210h-498v28q34 16 82 24v596q-48 8 -82 24zM357 496l-19 10q43 92 43 191l11 15q17 2 46 -8t42 -24q-8 -51 -46.5 -104.5t-76.5 -79.5z" />
    <glyph glyph-name="lcaron" unicode="&#x13e;" horiz-adv-x="298" 
d="M258 24v-24h-216v24q33 16 66 24v636l-76 8v24q46 21 136 36h24v-704q33 -8 66 -24zM257 534l-19 10q43 92 43 191l11 15q15 2 41 -5.5t37 -16.5q-8 -51 -42 -105t-71 -89z" />
    <glyph glyph-name="Ldot" unicode="&#x13f;" horiz-adv-x="545" 
d="M30 672v28h268v-28q-48 -18 -96 -24v-598h234l58 160h24q15 -107 10 -210h-498v28q34 16 82 24v596q-48 8 -82 24zM350 386q0 29 18.5 46.5t47.5 17.5q30 0 48.5 -17.5t18.5 -46.5t-18.5 -46.5t-48.5 -17.5q-29 0 -47.5 17.5t-18.5 46.5z" />
    <glyph glyph-name="ldot" unicode="&#x140;" horiz-adv-x="298" 
d="M258 24v-24h-216v24q33 16 66 24v636l-76 8v24q46 21 136 36h24v-704q33 -8 66 -24zM232 356q0 29 18.5 46.5t47.5 17.5q30 0 48.5 -17.5t18.5 -46.5t-18.5 -46.5t-48.5 -17.5q-29 0 -47.5 17.5t-18.5 46.5z" />
    <glyph glyph-name="Lslash" unicode="&#x141;" horiz-adv-x="545" 
d="M30 672v28h268v-28q-48 -18 -96 -24v-259l137 85v-64l-137 -85v-275h234l58 160h24q15 -107 10 -210h-498v28q34 16 82 24v217l-95 -58v64l95 58v315q-48 8 -82 24z" />
    <glyph glyph-name="lslash" unicode="&#x142;" horiz-adv-x="322" 
d="M24 231v64l96 59v330l-76 8v24q46 21 136 36h24v-346l94 58v-64l-94 -58v-294q33 -8 66 -24v-24h-216v24q33 16 66 24v242z" />
    <glyph glyph-name="Nacute" unicode="&#x143;" horiz-adv-x="729" 
d="M487 672v28h212v-28q-40 -26 -82 -39v-645h-53l-365 556l-39 78h-3l9 -78v-481q44 -13 76 -35v-28h-212v28q32 20 82 35v576q-43 16 -76 34v27h164l318 -482l46 -86h4l-5 86v415q-40 17 -76 39zM325 769l147 124q17 2 49.5 -8.5t43.5 -23.5v-20l-224 -91z" />
    <glyph glyph-name="nacute" unicode="&#x144;" horiz-adv-x="589" 
d="M571 24v-24h-210v24q25 14 60 24v237q0 82 -23.5 124.5t-80.5 42.5q-49 0 -84.5 -32.5t-50.5 -78.5v-293q32 -6 60 -24v-24h-210v24q26 14 66 24v396l-66 8v24q51 22 126 36h24v-113h1q23 50 62.5 81.5t92.5 31.5q86 0 126.5 -46t40.5 -164v-254q40 -7 66 -24zM261 594
l118 174q16 2 46.5 -5.5t41.5 -16.5v-19l-186 -150z" />
    <glyph glyph-name="Ncommaaccent" unicode="&#x145;" horiz-adv-x="729" 
d="M487 672v28h212v-28q-40 -26 -82 -39v-645h-53l-365 556l-39 78h-3l9 -78v-481q44 -13 76 -35v-28h-212v28q32 20 82 35v576q-43 16 -76 34v27h164l318 -482l46 -86h4l-5 86v415q-40 17 -76 39zM326 -271l-16 33q22 10 37.5 30t12.5 47q-22 16 -65 32q-8 29 12 55t43 27
q35 -4 59.5 -27.5t24.5 -62.5q0 -48 -28.5 -83.5t-79.5 -50.5z" />
    <glyph glyph-name="ncommaaccent" unicode="&#x146;" horiz-adv-x="589" 
d="M571 24v-24h-210v24q25 14 60 24v237q0 82 -23.5 124.5t-80.5 42.5q-49 0 -84.5 -32.5t-50.5 -78.5v-293q32 -6 60 -24v-24h-210v24q26 14 66 24v396l-66 8v24q51 22 126 36h24v-113h1q23 50 62.5 81.5t92.5 31.5q86 0 126.5 -46t40.5 -164v-254q40 -7 66 -24zM264 -269
l-16 33q55 23 55 75q-22 16 -65 32q-8 29 12 55t43 27q34 -4 55 -27t21 -63q0 -47 -30 -84t-75 -48z" />
    <glyph glyph-name="Ncaron" unicode="&#x147;" horiz-adv-x="729" 
d="M487 672v28h212v-28q-40 -26 -82 -39v-645h-53l-365 556l-39 78h-3l9 -78v-481q44 -13 76 -35v-28h-212v28q32 20 82 35v576q-43 16 -76 34v27h164l318 -482l46 -86h4l-5 86v415q-40 17 -76 39zM367 832l110 55q16 0 24 -16l-127 -112q-12 -6 -22 0l-125 109q11 19 24 19
z" />
    <glyph glyph-name="ncaron" unicode="&#x148;" horiz-adv-x="589" 
d="M571 24v-24h-210v24q25 14 60 24v237q0 82 -23.5 124.5t-80.5 42.5q-49 0 -84.5 -32.5t-50.5 -78.5v-293q32 -6 60 -24v-24h-210v24q26 14 66 24v396l-66 8v24q51 22 126 36h24v-113h1q23 50 62.5 81.5t92.5 31.5q86 0 126.5 -46t40.5 -164v-254q40 -7 66 -24zM301 689
l100 108q19 0 27 -15l-123 -186q-12 -6 -22 0l-121 185q9 16 33 16z" />
    <glyph glyph-name="napostrophe" unicode="&#x149;" horiz-adv-x="639" 
d="M621 24v-24h-210v24q25 14 60 24v237q0 82 -23.5 124.5t-80.5 42.5q-49 0 -84.5 -32.5t-50.5 -78.5v-293q32 -6 60 -24v-24h-210v24q26 14 66 24v396l-66 8v24q51 22 126 36h24v-113h1q23 50 62.5 81.5t92.5 31.5q86 0 126.5 -46t40.5 -164v-254q40 -7 66 -24zM-47 442
l-16 33q40 13 64.5 43t20.5 67q-22 16 -65 32q-8 29 12 55t43 27q35 -4 59.5 -27.5t24.5 -62.5q0 -51 -39.5 -100.5t-103.5 -66.5z" />
    <glyph glyph-name="Eng" unicode="&#x14a;" horiz-adv-x="729" 
d="M545 1l-346 543l-39 78h-3l9 -78v-481q44 -13 76 -35v-28h-212v28q32 20 82 35v576q-43 16 -76 34v27h164l318 -496l46 -86h4l-5 86v429q-40 17 -76 39v28h212v-28q-40 -26 -82 -39v-645q-1 -63 -12.5 -102.5t-36 -60.5t-54.5 -28.5t-77 -7.5l-6 25q38 9 60.5 25t38 56
t15.5 106z" />
    <glyph glyph-name="eng" unicode="&#x14b;" horiz-adv-x="589" 
d="M421 1v284q0 82 -23.5 124.5t-80.5 42.5q-49 0 -84.5 -32.5t-50.5 -78.5v-293q32 -6 60 -24v-24h-210v24q26 14 66 24v396l-66 8v24q51 22 126 36h24v-113h1q23 50 62.5 81.5t92.5 31.5q86 0 126.5 -46t40.5 -164v-302q0 -80 -21.5 -126.5t-56.5 -64t-94 -21.5l-5 26
q56 17 74.5 51.5t18.5 135.5z" />
    <glyph glyph-name="Omacron" unicode="&#x14c;" horiz-adv-x="738" 
d="M54 350q0 160 84.5 261t230.5 101t230.5 -101t84.5 -261t-84.5 -261t-230.5 -101t-230.5 101t-84.5 261zM154 350q0 -135 58 -223.5t166 -88.5q100 0 153 88t53 224t-57 224t-166 88q-105 0 -156 -87t-51 -225zM519 789h-299v50h299v-50z" />
    <glyph glyph-name="omacron" unicode="&#x14d;" horiz-adv-x="548" 
d="M42 250q0 124 62.5 193t169.5 69q118 0 175 -69t57 -193t-62.5 -193t-169.5 -69q-115 0 -173.5 70t-58.5 192zM132 250q0 -98 39 -159t120 -61q56 0 90.5 56t34.5 164q0 98 -37 159t-113 61q-62 0 -98 -55.5t-36 -164.5zM399 639h-249v50h249v-50z" />
    <glyph glyph-name="Obreve" unicode="&#x14e;" horiz-adv-x="738" 
d="M54 350q0 160 84.5 261t230.5 101t230.5 -101t84.5 -261t-84.5 -261t-230.5 -101t-230.5 101t-84.5 261zM154 350q0 -135 58 -223.5t166 -88.5q100 0 153 88t53 224t-57 224t-166 88q-105 0 -156 -87t-51 -225zM487 882q15 2 31 -13q-18 -46 -58.5 -78t-87.5 -32
q-53 0 -93 29.5t-59 82.5q13 18 41 14q13 -24 46.5 -40.5t65.5 -17.5q77 -2 114 55z" />
    <glyph glyph-name="obreve" unicode="&#x14f;" horiz-adv-x="548" 
d="M42 250q0 124 62.5 193t169.5 69q118 0 175 -69t57 -193t-62.5 -193t-169.5 -69q-115 0 -173.5 70t-58.5 192zM132 250q0 -98 39 -159t120 -61q56 0 90.5 56t34.5 164q0 98 -37 159t-113 61q-62 0 -98 -55.5t-36 -164.5zM385 729l23 -10q-20 -50 -53.5 -85t-78.5 -35
q-93 0 -136 122l27 12q13 -25 46.5 -45t63.5 -21q67 -2 108 62z" />
    <glyph glyph-name="Ohungarumlaut" unicode="&#x150;" horiz-adv-x="738" 
d="M54 350q0 160 84.5 261t230.5 101t230.5 -101t84.5 -261t-84.5 -261t-230.5 -101t-230.5 101t-84.5 261zM154 350q0 -135 58 -223.5t166 -88.5q100 0 153 88t53 224t-57 224t-166 88q-105 0 -156 -87t-51 -225zM257 777l70 111q14 2 42.5 -5.5t34.5 -17.5v-14l-130 -92z
M383 775l115 113q15 2 44 -6.5t38 -19.5l-1 -10l-177 -95z" />
    <glyph glyph-name="ohungarumlaut" unicode="&#x151;" horiz-adv-x="548" 
d="M42 250q0 124 62.5 193t169.5 69q118 0 175 -69t57 -193t-62.5 -193t-169.5 -69q-115 0 -173.5 70t-58.5 192zM132 250q0 -98 39 -159t120 -61q56 0 90.5 56t34.5 164q0 98 -37 159t-113 61q-62 0 -98 -55.5t-36 -164.5zM169 615l78 153q14 2 44.5 -5.5t36.5 -15.5v-14
l-138 -133zM285 617l133 151q16 2 44 -6.5t38 -21.5v-12l-198 -128z" />
    <glyph glyph-name="OE" unicode="&#x152;" horiz-adv-x="951" 
d="M890 0h-404q-60 -12 -117 -12q-146 0 -230.5 101t-84.5 261t84.5 261t230.5 101q57 0 115 -12h386q-2 -97 -10 -160h-24l-41 110h-221v-268h167l39 74h24q6 -99 0 -200h-24l-39 76h-167v-282h234l48 120h24q14 -97 10 -170zM378 38q60 0 106 19v581q-58 24 -123 24
q-105 0 -156 -87t-51 -225q0 -135 58 -223.5t166 -88.5z" />
    <glyph glyph-name="oe" unicode="&#x153;" horiz-adv-x="872" 
d="M132 250q0 -98 39 -159t120 -61q56 0 90.5 56t34.5 164q0 98 -37 159t-113 61q-62 0 -98 -55.5t-36 -164.5zM461 77q-32 -46 -82.5 -67.5t-104.5 -21.5q-115 0 -173.5 70t-58.5 192q0 124 62.5 193t169.5 69q130 0 185 -87q23 41 74.5 64t104.5 23q42 0 77 -12.5
t65 -42.5t39 -80.5t-2 -125.5h-312q1 -91 44 -147t127 -56q35 0 71.5 10.5t53.5 25.5l14 -15q-16 -34 -63.5 -57.5t-98.5 -23.5q-56 0 -113.5 25.5t-78.5 63.5zM634 470q-59 0 -89.5 -41t-36.5 -136h226q7 81 -18.5 129t-81.5 48z" />
    <glyph glyph-name="Racute" unicode="&#x154;" horiz-adv-x="630" 
d="M202 311v-259q53 -11 86 -24v-28h-258v28q32 14 82 24v596q-50 10 -82 24v28h86q26 0 86.5 4t89.5 4q104 0 166.5 -48.5t62.5 -147.5q0 -71 -38.5 -119.5t-105.5 -70.5q73 -117 189 -269l54 -29v-24h-115l-38 28q-97 121 -169 283h-96zM272 658q-48 0 -70 -6v-301h73
q71 0 112.5 44.5t41.5 117.5q0 72 -42.5 108.5t-114.5 36.5zM235 769l147 124q17 2 49.5 -8.5t43.5 -23.5v-20l-224 -91z" />
    <glyph glyph-name="racute" unicode="&#x155;" horiz-adv-x="379" 
d="M371 430h-132q-37 -24 -57 -81v-301q43 -5 80 -24v-24h-230v24q27 15 66 24v396l-66 8v24q58 24 126 36h24v-103h4q21 44 66.5 76.5t96.5 26.5q13 -24 22 -58v-24zM156 594l118 174q16 2 46.5 -5.5t41.5 -16.5v-19l-186 -150z" />
    <glyph glyph-name="Rcommaaccent" unicode="&#x156;" horiz-adv-x="630" 
d="M202 311v-259q53 -11 86 -24v-28h-258v28q32 14 82 24v596q-50 10 -82 24v28h86q26 0 86.5 4t89.5 4q104 0 166.5 -48.5t62.5 -147.5q0 -71 -38.5 -119.5t-105.5 -70.5q73 -117 189 -269l54 -29v-24h-115l-38 28q-97 121 -169 283h-96zM272 658q-48 0 -70 -6v-301h73
q71 0 112.5 44.5t41.5 117.5q0 72 -42.5 108.5t-114.5 36.5zM277 -271l-16 33q22 10 37.5 30t12.5 47q-22 16 -65 32q-8 29 12 55t43 27q35 -4 59.5 -27.5t24.5 -62.5q0 -48 -28.5 -83.5t-79.5 -50.5z" />
    <glyph glyph-name="rcommaaccent" unicode="&#x157;" horiz-adv-x="379" 
d="M371 430h-132q-37 -24 -57 -81v-301q43 -5 80 -24v-24h-230v24q27 15 66 24v396l-66 8v24q58 24 126 36h24v-103h4q21 44 66.5 76.5t96.5 26.5q13 -24 22 -58v-24zM124 -269l-16 33q55 23 55 75q-22 16 -65 32q-8 29 12 55t43 27q34 -4 55 -27t21 -63q0 -47 -30 -84
t-75 -48z" />
    <glyph glyph-name="Rcaron" unicode="&#x158;" horiz-adv-x="630" 
d="M202 311v-259q53 -11 86 -24v-28h-258v28q32 14 82 24v596q-50 10 -82 24v28h86q26 0 86.5 4t89.5 4q104 0 166.5 -48.5t62.5 -147.5q0 -71 -38.5 -119.5t-105.5 -70.5q73 -117 189 -269l54 -29v-24h-115l-38 28q-97 121 -169 283h-96zM272 658q-48 0 -70 -6v-301h73
q71 0 112.5 44.5t41.5 117.5q0 72 -42.5 108.5t-114.5 36.5zM287 832l110 55q16 0 24 -16l-127 -112q-12 -6 -22 0l-125 109q11 19 24 19z" />
    <glyph glyph-name="rcaron" unicode="&#x159;" horiz-adv-x="379" 
d="M371 430h-132q-37 -24 -57 -81v-301q43 -5 80 -24v-24h-230v24q27 15 66 24v396l-66 8v24q58 24 126 36h24v-103h4q21 44 66.5 76.5t96.5 26.5q13 -24 22 -58v-24zM223 689l100 108q19 0 27 -15l-123 -186q-12 -6 -22 0l-121 185q9 16 33 16z" />
    <glyph glyph-name="Sacute" unicode="&#x15a;" horiz-adv-x="534" 
d="M108 215l41 -147q30 -30 89 -30q67 0 111 35t44 95q0 44 -34 77t-82.5 56t-97.5 49.5t-83 73t-34 110.5q0 81 56 129.5t149 48.5q124 0 190 -33q-4 -78 -24 -170h-24l-40 137q-36 16 -106 16q-52 0 -83 -30t-31 -81q0 -34 18.5 -61t47.5 -46t64 -36.5t70.5 -37.5
t64.5 -43.5t47.5 -59.5t18.5 -81q0 -91 -64 -144.5t-175 -53.5q-59 0 -108 14t-73 33q4 91 24 180h24zM217 769l147 124q17 2 49.5 -8.5t43.5 -23.5v-20l-224 -91z" />
    <glyph glyph-name="sacute" unicode="&#x15b;" horiz-adv-x="431" 
d="M297 114q0 31 -24.5 55.5t-59.5 43t-70.5 40t-60 56t-24.5 79.5q0 53 44.5 88.5t107.5 35.5q90 0 152 -22q-10 -80 -24 -130h-24l-37 102q-21 8 -59 8q-34 0 -55 -22.5t-21 -51.5q0 -30 24.5 -54t59.5 -43l70 -39q36 -21 60.5 -52.5t24.5 -72.5q0 -66 -53 -106.5
t-130 -40.5q-73 0 -150 28q4 71 24 134h24l44 -109q14 -11 56 -11q44 0 72.5 24.5t28.5 59.5zM162 594l118 174q16 2 46.5 -5.5t41.5 -16.5v-19l-186 -150z" />
    <glyph glyph-name="Scircumflex" unicode="&#x15c;" horiz-adv-x="534" 
d="M108 215l41 -147q30 -30 89 -30q67 0 111 35t44 95q0 44 -34 77t-82.5 56t-97.5 49.5t-83 73t-34 110.5q0 81 56 129.5t149 48.5q124 0 190 -33q-4 -78 -24 -170h-24l-40 137q-36 16 -106 16q-52 0 -83 -30t-31 -81q0 -34 18.5 -61t47.5 -46t64 -36.5t70.5 -37.5
t64.5 -43.5t47.5 -59.5t18.5 -81q0 -91 -64 -144.5t-175 -53.5q-59 0 -108 14t-73 33q4 91 24 180h24zM280 810l-121 -57l-13 18l127 112q12 6 22 0l125 -109l-13 -20z" />
    <glyph glyph-name="scircumflex" unicode="&#x15d;" horiz-adv-x="431" 
d="M297 114q0 31 -24.5 55.5t-59.5 43t-70.5 40t-60 56t-24.5 79.5q0 53 44.5 88.5t107.5 35.5q90 0 152 -22q-10 -80 -24 -130h-24l-37 102q-21 8 -59 8q-34 0 -55 -22.5t-21 -51.5q0 -30 24.5 -54t59.5 -43l70 -39q36 -21 60.5 -52.5t24.5 -72.5q0 -66 -53 -106.5
t-130 -40.5q-73 0 -150 28q4 71 24 134h24l44 -109q14 -11 56 -11q44 0 72.5 24.5t28.5 59.5zM210 700l-90 -108l-27 15l110 186q12 6 22 0l114 -185l-26 -16z" />
    <glyph glyph-name="Scedilla" unicode="&#x15e;" horiz-adv-x="534" 
d="M108 215l41 -147q30 -30 89 -30q67 0 111 35t44 95q0 44 -34 77t-82.5 56t-97.5 49.5t-83 73t-34 110.5q0 81 56 129.5t149 48.5q124 0 190 -33q-4 -78 -24 -170h-24l-40 137q-36 16 -106 16q-52 0 -83 -30t-31 -81q0 -34 18.5 -61t47.5 -46t64 -36.5t70.5 -37.5
t64.5 -43.5t47.5 -59.5t18.5 -81q0 -84 -55.5 -136.5t-152.5 -59.5l-25 -65q115 -3 115 -79q0 -54 -55.5 -85t-121.5 -31v31q43 6 69 23t25 45q-1 50 -91 56l35 103q-53 2 -97.5 16t-65.5 31q4 91 24 180h24z" />
    <glyph glyph-name="scedilla" unicode="&#x15f;" horiz-adv-x="451" 
d="M317 114q0 27 -14.5 47t-37 33t-50 24.5t-55.5 25.5t-50.5 31.5t-37 46t-14.5 66.5q0 54 45 89t117 35q100 0 162 -22q-10 -80 -24 -130h-24l-37 102q-21 8 -69 8q-41 0 -63.5 -22t-22.5 -52q0 -33 26.5 -57t65 -39.5t76.5 -33.5t64.5 -50t26.5 -78q0 -66 -48.5 -106
t-130.5 -43l-21 -57q101 -3 104 -71q1 -53 -50 -83.5t-110 -27.5v29q42 6 64 21.5t21 45.5q-1 24 -21 35.5t-62 14.5l32 93q-71 5 -131 27q4 71 24 134h24l44 -109q14 -11 66 -11q49 0 80 24.5t31 59.5z" />
    <glyph glyph-name="Scaron" unicode="&#x160;" horiz-adv-x="534" 
d="M108 215l41 -147q30 -30 89 -30q67 0 111 35t44 95q0 44 -34 77t-82.5 56t-97.5 49.5t-83 73t-34 110.5q0 81 56 129.5t149 48.5q124 0 190 -33q-4 -78 -24 -170h-24l-40 137q-36 16 -106 16q-52 0 -83 -30t-31 -81q0 -34 18.5 -61t47.5 -46t64 -36.5t70.5 -37.5
t64.5 -43.5t47.5 -59.5t18.5 -81q0 -91 -64 -144.5t-175 -53.5q-59 0 -108 14t-73 33q4 91 24 180h24zM277 832l110 55q16 0 24 -16l-127 -112q-12 -6 -22 0l-125 109q11 19 24 19z" />
    <glyph glyph-name="scaron" unicode="&#x161;" horiz-adv-x="431" 
d="M297 114q0 31 -24.5 55.5t-59.5 43t-70.5 40t-60 56t-24.5 79.5q0 53 44.5 88.5t107.5 35.5q90 0 152 -22q-10 -80 -24 -130h-24l-37 102q-21 8 -59 8q-34 0 -55 -22.5t-21 -51.5q0 -30 24.5 -54t59.5 -43l70 -39q36 -21 60.5 -52.5t24.5 -72.5q0 -66 -53 -106.5
t-130 -40.5q-73 0 -150 28q4 71 24 134h24l44 -109q14 -11 56 -11q44 0 72.5 24.5t28.5 59.5zM222 689l100 108q20 0 27 -15l-123 -186q-12 -6 -22 0l-121 185q9 16 33 16z" />
    <glyph glyph-name="Tcedilla" unicode="&#x162;" horiz-adv-x="614" 
d="M444 28v-28h-118l-29 -75q115 -3 115 -79q0 -54 -55.5 -85t-121.5 -31v31q43 6 69 23t25 45q-1 50 -91 56l39 115h-107v28q53 18 92 24v598h-157l-51 -140h-24q-7 57 -10 190h574q-3 -133 -10 -190h-24l-51 140h-157v-598q61 -11 92 -24z" />
    <glyph glyph-name="tcedilla" unicode="&#x163;" horiz-adv-x="368" 
d="M16 452v24q38 24 80 34v86q41 36 72 36h12v-132h152v-48h-152v-294q0 -59 18.5 -84.5t58.5 -25.5q59 0 92 12l7 -13q-19 -21 -58.5 -40t-79.5 -19q-9 0 -13 1l-21 -57q101 -3 104 -71q1 -53 -50 -83.5t-110 -27.5v29q42 6 64 21.5t21 45.5q-1 24 -21 35.5t-62 14.5
l34 101q-68 24 -68 135v320h-80z" />
    <glyph glyph-name="Tcaron" unicode="&#x164;" horiz-adv-x="614" 
d="M444 28v-28h-274v28q53 18 92 24v598h-157l-51 -140h-24q-7 57 -10 190h574q-3 -133 -10 -190h-24l-51 140h-157v-598q61 -11 92 -24zM310 832l110 55q16 0 24 -16l-127 -112q-12 -6 -22 0l-125 109q11 19 24 19z" />
    <glyph glyph-name="tcaron" unicode="&#x165;" horiz-adv-x="368" 
d="M16 452v24q38 24 80 34v86q18 16 60 36h24v-132h152v-48h-152v-294q0 -59 18.5 -84.5t58.5 -25.5q59 0 92 12l7 -13q-19 -21 -58.5 -40t-79.5 -19q-122 0 -122 144v320h-80zM247 534l-19 10q43 92 43 191l11 15q15 2 41 -5.5t37 -16.5q-8 -51 -42 -105t-71 -89z" />
    <glyph glyph-name="Tbar" unicode="&#x166;" horiz-adv-x="634" 
d="M66 359v50h206v241h-157l-51 -140h-24q-7 57 -10 190h574q-3 -133 -10 -190h-24l-51 140h-157v-241h206v-50h-206v-307q61 -11 92 -24v-28h-274v28q53 18 92 24v307h-206z" />
    <glyph glyph-name="tbar" unicode="&#x167;" horiz-adv-x="370" 
d="M24 452v24q38 24 80 34v76q18 16 60 36h24v-122h142v-48h-142v-150h143v-50h-143v-94q0 -61 14.5 -85.5t52.5 -24.5q59 0 92 12l7 -13q-19 -21 -58.5 -40t-79.5 -19q-59 0 -85.5 34t-26.5 110v120h-78v50h78v150h-80z" />
    <glyph glyph-name="Utilde" unicode="&#x168;" horiz-adv-x="667" 
d="M10 672v28h248v-28q-29 -13 -76 -24v-412q0 -102 44 -145t131 -43q168 0 168 188v402q-40 13 -78 34v28h210v-28q-40 -24 -78 -34v-404q0 -123 -61.5 -183t-170.5 -60q-125 0 -190 57t-65 170v430q-42 6 -82 24zM500 849l12 -27q-56 -55 -109 -55q-26 0 -68 17t-62 17
q-29 0 -58 -25l-18 27q64 58 120 58q25 0 66 -16t61 -16q28 0 56 20z" />
    <glyph glyph-name="utilde" unicode="&#x169;" horiz-adv-x="569" 
d="M78 198q0 43 3 124.5t3 121.5l-66 8v24q63 24 126 36h24q0 -50 -3 -149t-3 -148q0 -84 22.5 -125.5t82.5 -41.5q88 0 126 119v277l-65 8v24q62 24 125 36h24v-456l66 -8v-20q-70 -31 -115 -38h-24l-7 119h-4q-10 -45 -52 -83t-98 -38q-85 0 -125 46t-40 164zM425 699
l12 -27q-56 -55 -107 -55q-25 0 -65 17t-59 17q-28 0 -56 -25l-18 27q63 58 117 58q25 0 63 -16t58 -16q27 0 55 20z" />
    <glyph glyph-name="Umacron" unicode="&#x16a;" horiz-adv-x="667" 
d="M10 672v28h248v-28q-29 -13 -76 -24v-412q0 -102 44 -145t131 -43q168 0 168 188v402q-40 13 -78 34v28h210v-28q-40 -24 -78 -34v-404q0 -123 -61.5 -183t-170.5 -60q-125 0 -190 57t-65 170v430q-42 6 -82 24zM501 789h-299v50h299v-50z" />
    <glyph glyph-name="umacron" unicode="&#x16b;" horiz-adv-x="569" 
d="M78 198q0 43 3 124.5t3 121.5l-66 8v24q63 24 126 36h24q0 -50 -3 -149t-3 -148q0 -84 22.5 -125.5t82.5 -41.5q88 0 126 119v277l-65 8v24q62 24 125 36h24v-456l66 -8v-20q-70 -31 -115 -38h-24l-7 119h-4q-10 -45 -52 -83t-98 -38q-85 0 -125 46t-40 164zM409 639
h-249v50h249v-50z" />
    <glyph glyph-name="Ubreve" unicode="&#x16c;" horiz-adv-x="667" 
d="M10 672v28h248v-28q-29 -13 -76 -24v-412q0 -102 44 -145t131 -43q168 0 168 188v402q-40 13 -78 34v28h210v-28q-40 -24 -78 -34v-404q0 -123 -61.5 -183t-170.5 -60q-125 0 -190 57t-65 170v430q-42 6 -82 24zM461 882q15 2 31 -13q-18 -46 -58.5 -78t-87.5 -32
q-53 0 -93 29.5t-59 82.5q13 18 41 14q13 -24 46.5 -40.5t65.5 -17.5q77 -2 114 55z" />
    <glyph glyph-name="ubreve" unicode="&#x16d;" horiz-adv-x="569" 
d="M78 198q0 43 3 124.5t3 121.5l-66 8v24q63 24 126 36h24q0 -50 -3 -149t-3 -148q0 -84 22.5 -125.5t82.5 -41.5q88 0 126 119v277l-65 8v24q62 24 125 36h24v-456l66 -8v-20q-70 -31 -115 -38h-24l-7 119h-4q-10 -45 -52 -83t-98 -38q-85 0 -125 46t-40 164zM394 729
l23 -10q-20 -50 -53.5 -85t-78.5 -35q-93 0 -136 122l27 12q13 -25 46.5 -45t63.5 -21q67 -2 108 62z" />
    <glyph glyph-name="Uring" unicode="&#x16e;" horiz-adv-x="667" 
d="M10 672v28h248v-28q-29 -13 -76 -24v-412q0 -102 44 -145t131 -43q168 0 168 188v402q-40 13 -78 34v28h210v-28q-40 -24 -78 -34v-404q0 -123 -61.5 -183t-170.5 -60q-125 0 -190 57t-65 170v430q-42 6 -82 24zM243 788q0 39 32.5 62t80.5 23q42 0 74.5 -21t32.5 -61
q0 -37 -32 -59.5t-76 -22.5q-50 0 -81 21t-31 58zM296 788q0 -19 16.5 -29t38.5 -10q59 0 59 38q0 24 -17 35t-39 11q-58 0 -58 -45z" />
    <glyph glyph-name="uring" unicode="&#x16f;" horiz-adv-x="569" 
d="M78 198q0 43 3 124.5t3 121.5l-66 8v24q63 24 126 36h24q0 -50 -3 -149t-3 -148q0 -84 22.5 -125.5t82.5 -41.5q88 0 126 119v277l-65 8v24q62 24 125 36h24v-456l66 -8v-20q-70 -31 -115 -38h-24l-7 119h-4q-10 -45 -52 -83t-98 -38q-85 0 -125 46t-40 164zM189 684
q0 40 28.5 68t69.5 28q39 0 65.5 -25.5t26.5 -67.5q0 -40 -28 -66.5t-65 -26.5q-43 0 -70 24.5t-27 65.5zM239 686q0 -25 13 -38.5t31 -13.5q21 0 33.5 12.5t12.5 36.5q0 26 -12.5 41.5t-32.5 15.5q-45 0 -45 -54z" />
    <glyph glyph-name="Uhungarumlaut" unicode="&#x170;" horiz-adv-x="667" 
d="M10 672v28h248v-28q-29 -13 -76 -24v-412q0 -102 44 -145t131 -43q168 0 168 188v402q-40 13 -78 34v28h210v-28q-40 -24 -78 -34v-404q0 -123 -61.5 -183t-170.5 -60q-125 0 -190 57t-65 170v430q-42 6 -82 24zM237 777l70 111q14 2 42.5 -5.5t34.5 -17.5v-14l-130 -92z
M363 775l115 113q15 2 44 -6.5t38 -19.5l-1 -10l-177 -95z" />
    <glyph glyph-name="uhungarumlaut" unicode="&#x171;" horiz-adv-x="569" 
d="M78 198q0 43 3 124.5t3 121.5l-66 8v24q63 24 126 36h24q0 -50 -3 -149t-3 -148q0 -84 22.5 -125.5t82.5 -41.5q88 0 126 119v277l-65 8v24q62 24 125 36h24v-456l66 -8v-20q-70 -31 -115 -38h-24l-7 119h-4q-10 -45 -52 -83t-98 -38q-85 0 -125 46t-40 164zM169 615
l78 153q14 2 44.5 -5.5t36.5 -15.5v-14l-138 -133zM285 617l133 151q16 2 44 -6.5t38 -21.5v-12l-198 -128z" />
    <glyph glyph-name="Uogonek" unicode="&#x172;" horiz-adv-x="667" 
d="M10 672v28h248v-28q-29 -13 -76 -24v-412q0 -102 44 -145t131 -43q168 0 168 188v402q-40 13 -78 34v28h210v-28q-40 -24 -78 -34v-404q0 -176 -128 -226q-118 -60 -118 -143q0 -28 18.5 -46.5t50.5 -18.5t56 6v-28q-36 -28 -90 -28q-46 0 -79 27.5t-33 70.5
q0 80 112 144q-7 -1 -21 -1q-125 0 -190 57t-65 170v430q-42 6 -82 24z" />
    <glyph glyph-name="uogonek" unicode="&#x173;" horiz-adv-x="569" 
d="M78 198q0 43 3 124.5t3 121.5l-66 8v24q97 36 138 36h12q0 -50 -3 -149t-3 -148q0 -84 22.5 -125.5t82.5 -41.5q88 0 126 119v277l-65 8v24q62 24 125 36h24v-456l66 -8v-20l-47 -20q-93 -51 -93 -126q0 -23 15 -42t44 -19q22 0 54 9v-31q-35 -20 -74 -20q-56 0 -87 24
t-31 63q0 73 93 124h-7h-6l-7 119h-4q-10 -45 -52 -83t-98 -38q-26 0 -38 2q-65 9 -96 56.5t-31 151.5z" />
    <glyph glyph-name="Wcircumflex" unicode="&#x174;" horiz-adv-x="923" 
d="M695 242l93 406q-40 6 -86 24v28h221v-28q-36 -16 -72 -24l-166 -648l-57 -12l-162 551l-159 -539l-56 -12l-175 660q-33 6 -76 24v28h253v-28q-47 -17 -82 -24l100 -409l22 -130h2l35 132l135 459h31l146 -460l28 -130h2zM478 810l-121 -57l-13 18l127 112q12 6 22 0
l125 -109l-13 -20z" />
    <glyph glyph-name="wcircumflex" unicode="&#x175;" horiz-adv-x="722" 
d="M248 0l-48 -12l-157 464q-33 11 -53 24v24h203v-23q-35 -20 -57 -25l89 -296l13 -72h2l15 73l108 332l28 11l115 -344l18 -72h2l15 73l78 295q-26 5 -55 24v24h168v-24q-21 -14 -57 -24l-142 -452l-49 -12l-100 287l-19 83h-3l-23 -83zM365 700l-90 -108l-27 15l110 186
q12 6 22 0l114 -185l-26 -16z" />
    <glyph glyph-name="Ycircumflex" unicode="&#x176;" horiz-adv-x="638" 
d="M421 672v28h217v-28q-37 -18 -76 -24l-189 -350v-246q39 -5 76 -24v-28h-248v28q36 18 82 24v245l-202 351q-36 6 -81 24v28h258v-28q-32 -13 -77 -24l166 -297l156 297q-48 11 -82 24zM332 810l-121 -57l-13 18l127 112q12 6 22 0l125 -109l-13 -20z" />
    <glyph glyph-name="ycircumflex" unicode="&#x177;" horiz-adv-x="503" 
d="M250 0l-207 452q-21 5 -53 24v24h203v-23q-21 -14 -57 -25l130 -301l20 -62h2l15 63l97 300q-30 6 -55 24v24h168v-24q-21 -14 -57 -24l-155 -452q-31 -83 -60.5 -128.5t-55 -62t-64.5 -24.5q-16 28 -32 83l13 24h102q13 16 21 35.5t25 72.5zM268 700l-90 -108l-27 15
l110 186q12 6 22 0l114 -185l-26 -16z" />
    <glyph glyph-name="Ydieresis" unicode="&#x178;" horiz-adv-x="638" 
d="M421 672v28h217v-28q-37 -18 -76 -24l-189 -350v-246q39 -5 76 -24v-28h-248v28q36 18 82 24v245l-202 351q-36 6 -81 24v28h258v-28q-32 -13 -77 -24l166 -297l156 297q-48 11 -82 24zM176 788q0 23 15 35t39 12t39 -12t15 -35q0 -21 -15 -33t-39 -12t-39 12t-15 33z
M396 788q0 23 15 35t39 12t39 -12t15 -35q0 -21 -15 -33t-39 -12t-39 12t-15 33z" />
    <glyph glyph-name="Zacute" unicode="&#x179;" horiz-adv-x="607" 
d="M472 50l61 140h24q13 -103 10 -190h-527v50l418 600h-314l-61 -140h-24q-12 92 -10 190h508v-50l-417 -600h332zM255 769l147 124q17 2 49.5 -8.5t43.5 -23.5v-20l-224 -91z" />
    <glyph glyph-name="zacute" unicode="&#x17a;" horiz-adv-x="485" 
d="M396 170h24q14 -97 10 -170h-386v24l285 434h-191l-44 -118h-24q-10 57 -10 160h370v-24l-286 -434h198zM179 594l118 174q16 2 46.5 -5.5t41.5 -16.5v-19l-186 -150z" />
    <glyph glyph-name="Zdotaccent" unicode="&#x17b;" horiz-adv-x="607" 
d="M472 50l61 140h24q13 -103 10 -190h-527v50l418 600h-314l-61 -140h-24q-12 92 -10 190h508v-50l-417 -600h332zM238 817q0 25 17.5 39t44.5 14q26 0 43 -14t17 -39t-17 -39t-43 -14q-27 0 -44.5 14t-17.5 39z" />
    <glyph glyph-name="zdotaccent" unicode="&#x17c;" horiz-adv-x="485" 
d="M396 170h24q14 -97 10 -170h-386v24l285 434h-191l-44 -118h-24q-10 57 -10 160h370v-24l-286 -434h198zM181 671q0 26 17 41.5t44 15.5q28 0 44.5 -15.5t16.5 -41.5t-16.5 -41.5t-44.5 -15.5q-27 0 -44 15.5t-17 41.5z" />
    <glyph glyph-name="Zcaron" unicode="&#x17d;" horiz-adv-x="607" 
d="M472 50l61 140h24q13 -103 10 -190h-527v50l418 600h-314l-61 -140h-24q-12 92 -10 190h508v-50l-417 -600h332zM307 832l110 55q16 0 24 -16l-127 -112q-12 -6 -22 0l-125 109q11 19 24 19z" />
    <glyph glyph-name="zcaron" unicode="&#x17e;" horiz-adv-x="485" 
d="M396 170h24q14 -97 10 -170h-386v24l285 434h-191l-44 -118h-24q-10 57 -10 160h370v-24l-286 -434h198zM249 689l100 108q19 0 27 -15l-123 -186q-12 -6 -22 0l-121 185q9 16 33 16z" />
    <glyph glyph-name="longs" unicode="&#x17f;" horiz-adv-x="339" 
d="M304 752q58 0 89 -12q-6 -66 -21 -111h-24l-44 85q-62 0 -87 -32t-25 -132v-502q52 -6 96 -24v-24h-246v24q32 18 66 24v404h-76v24q35 22 76 33v35q0 116 51.5 162t144.5 46z" />
    <glyph glyph-name="uni018F" unicode="&#x18f;" horiz-adv-x="709" 
d="M361 -12q-145 0 -226 82.5t-81 241.5q0 27 3 59h506q-5 137 -70.5 214t-189.5 77q-83 0 -109 -14l-52 -144h-24q-17 90 -13 168q82 40 201 40q173 0 261 -91.5t88 -270.5q0 -174 -80 -268t-214 -94zM358 38q94 0 147.5 71t57.5 212h-411q-2 -28 -2 -41q0 -104 57.5 -173
t150.5 -69z" />
    <glyph glyph-name="florin" unicode="&#x192;" 
d="M132 24l65 428h-73v24q35 20 85 33l7 35q25 116 83 162t147 46q42 0 75 -15q-4 -55 -37 -84l-76 61q-30 -8 -45.5 -17.5t-34 -44.5t-32.5 -102l-10 -50h111q5 -23 -10 -48h-111l-64 -409q-9 -54 -28 -98t-39.5 -70t-46 -46t-42 -28t-31.5 -13l-7 18q31 15 65 71.5
t49 146.5z" />
    <glyph glyph-name="uni01DD" unicode="&#x1dd;" horiz-adv-x="515" 
d="M253 470q-41 0 -67 -10l-47 -120h-24q-21 65 -25 124q80 48 175 48q221 0 221 -262q0 -126 -58.5 -194t-164.5 -68q-42 0 -80 15t-69.5 46t-45 86t-0.5 127h331q-1 97 -33 152.5t-113 55.5zM267 30q117 0 129 190h-245q-7 -85 25.5 -137.5t90.5 -52.5z" />
    <glyph glyph-name="Gcaron" unicode="&#x1e6;" horiz-adv-x="686" 
d="M606 278v-229q-42 -24 -100.5 -42.5t-105.5 -18.5q-164 0 -255 89.5t-91 272.5q0 95 28 166.5t76.5 113t106 62t123.5 20.5q118 0 188 -34q2 -86 -14 -170h-24l-52 144q-19 10 -89 10q-108 0 -179.5 -80.5t-71.5 -231.5q0 -140 74 -226t186 -86q36 0 71 13t45 23v204
q-38 3 -96 24v28h242v-28q-25 -17 -62 -24zM377 832l110 55q16 0 24 -16l-127 -112q-12 -6 -22 0l-125 109q11 19 24 19z" />
    <glyph glyph-name="gcaron" unicode="&#x1e7;" horiz-adv-x="522" 
d="M245 512q103 0 151 -42q59 38 125 56q12 -21 12 -55l-13 -24h-105q25 -37 25 -96q0 -73 -51.5 -117t-143.5 -44q-38 0 -58 4q-2 -4 -7.5 -13t-8.5 -16.5t-3 -15.5q0 -22 31.5 -36t77 -24.5t91.5 -24.5t78.5 -45.5t33.5 -78.5q1 -70 -63 -111t-168 -41q-103 0 -160 36
t-57 94q0 52 30 81t95 50q-47 22 -47 69q0 21 17 43.5t38 37.5q-55 15 -85 57t-30 95q0 71 51 116t144 45zM396 -81q0 24 -13.5 42.5t-39.5 30t-50 18.5t-60 15.5t-54 14.5q-63 -38 -63 -103q0 -107 151 -107q129 0 129 89zM134 351q0 -119 111 -119q56 0 83.5 33t27.5 86
q0 119 -111 119t-111 -119zM249 689l100 108q19 0 27 -15l-123 -186q-12 -6 -22 0l-121 185q9 16 33 16z" />
    <glyph glyph-name="uni01F4" unicode="&#x1f4;" horiz-adv-x="686" 
d="M606 278v-229q-42 -24 -100.5 -42.5t-105.5 -18.5q-164 0 -255 89.5t-91 272.5q0 95 28 166.5t76.5 113t106 62t123.5 20.5q118 0 188 -34q2 -86 -14 -170h-24l-52 144q-19 10 -89 10q-108 0 -179.5 -80.5t-71.5 -231.5q0 -140 74 -226t186 -86q36 0 71 13t45 23v204
q-38 3 -96 24v28h242v-28q-25 -17 -62 -24zM325 769l147 124q17 2 49.5 -8.5t43.5 -23.5v-20l-224 -91z" />
    <glyph glyph-name="uni01F5" unicode="&#x1f5;" horiz-adv-x="522" 
d="M245 512q103 0 151 -42q59 38 125 56q12 -21 12 -55l-13 -24h-105q25 -37 25 -96q0 -73 -51.5 -117t-143.5 -44q-38 0 -58 4q-2 -4 -7.5 -13t-8.5 -16.5t-3 -15.5q0 -22 31.5 -36t77 -24.5t91.5 -24.5t78.5 -45.5t33.5 -78.5q1 -70 -63 -111t-168 -41q-103 0 -160 36
t-57 94q0 52 30 81t95 50q-47 22 -47 69q0 21 17 43.5t38 37.5q-55 15 -85 57t-30 95q0 71 51 116t144 45zM396 -81q0 24 -13.5 42.5t-39.5 30t-50 18.5t-60 15.5t-54 14.5q-63 -38 -63 -103q0 -107 151 -107q129 0 129 89zM134 351q0 -119 111 -119q56 0 83.5 33t27.5 86
q0 119 -111 119t-111 -119zM218 594l118 174q16 2 46.5 -5.5t41.5 -16.5v-19l-186 -150z" />
    <glyph glyph-name="Aringacute" unicode="&#x1fa;" horiz-adv-x="678" 
d="M233 788q0 39 32.5 62t80.5 23q42 0 74.5 -21t32.5 -61q0 -37 -30 -59t-73 -23l252 -657q51 -10 76 -24v-28h-250v28q48 18 82 24l-69 185h-241l-67 -185q42 -6 86 -24v-28h-219v28q36 16 72 24l252 658q-41 4 -66 24.5t-25 53.5zM305 909l147 109q18 0 50 -9.5t43 -22.5
v-20l-224 -76zM298 500l-78 -213h204l-80 215l-19 86h-2zM286 788q0 -19 16.5 -29t38.5 -10q59 0 59 38q0 24 -17 35t-39 11q-58 0 -58 -45z" />
    <glyph glyph-name="aringacute" unicode="&#x1fb;" horiz-adv-x="499" 
d="M403 130q0 -13 0.5 -25t1.5 -25.5t1 -21.5l69 -10v-20q-52 -27 -109 -38h-24q-13 31 -15 112h-5q-8 -45 -47 -79.5t-98 -34.5q-61 0 -99 37t-38 96q0 37 12.5 63.5t34 43t59 27.5t77.5 16t100 8q9 92 -10 141.5t-76 49.5q-41 0 -67 -10l-47 -120h-24q-21 65 -25 124
q80 48 184 48q48 0 79.5 -14t46 -39.5t19.5 -49.5t5 -56q0 -41 -2.5 -115.5t-2.5 -107.5zM214 48q44 0 71 29t38 60v105q-113 1 -153 -23.5t-40 -79.5q0 -43 22.5 -67t61.5 -24zM142 644q0 40 28.5 68t69.5 28q39 0 65.5 -25.5t26.5 -67.5q0 -40 -28 -66.5t-65 -26.5
q-43 0 -70 24.5t-27 65.5zM192 646q0 -25 13 -38.5t31 -13.5q21 0 33.5 12.5t12.5 36.5q0 26 -12.5 41.5t-32.5 15.5q-45 0 -45 -54zM185 769l147 124q17 2 49.5 -8.5t43.5 -23.5v-20l-224 -91z" />
    <glyph glyph-name="AEacute" unicode="&#x1fc;" horiz-adv-x="917" 
d="M836 700q-2 -97 -10 -160h-24l-41 110h-221v-268h167l39 74h24q6 -99 0 -200h-24l-39 76h-167v-282h234l48 120h24q14 -97 10 -170h-488v28q35 16 82 24v205h-197l-118 -205q42 -6 86 -24v-28h-221v28q36 16 72 24l354 601q-34 9 -58 19v28h468zM406 520l-124 -213h168
v306h-2zM465 769l147 124q17 2 49.5 -8.5t43.5 -23.5v-20l-224 -91z" />
    <glyph glyph-name="aeacute" unicode="&#x1fd;" horiz-adv-x="773" 
d="M386 452q27 30 59.5 45t93.5 15q42 0 77 -12.5t65 -42.5t39 -80.5t-2 -125.5h-312q1 -91 44 -147t127 -56q35 0 71.5 10.5t53.5 25.5l14 -15q-16 -34 -63.5 -57.5t-98.5 -23.5q-63 0 -120.5 25.5t-84.5 85.5q-16 -48 -63 -79.5t-109 -31.5q-61 0 -99 37t-38 96
q0 37 12.5 63.5t34 43t59 27.5t77.5 16t100 8q9 92 -10 141.5t-76 49.5q-41 0 -67 -10l-47 -120h-24q-21 65 -25 124q80 48 184 48q102 0 128 -60zM214 48q45 0 72 27.5t37 57.5v109q-113 1 -153 -23.5t-40 -79.5q0 -43 22.5 -67t61.5 -24zM535 470q-59 0 -89.5 -41
t-36.5 -136h226q7 81 -18.5 129t-81.5 48zM344 594l118 174q16 2 46.5 -5.5t41.5 -16.5v-19l-186 -150z" />
    <glyph glyph-name="Oslashacute" unicode="&#x1fe;" horiz-adv-x="738" 
d="M54 350q0 160 84.5 261t230.5 101q94 0 167 -46l29 47l49 -28l-34 -54q104 -101 104 -281q0 -160 -84.5 -261t-230.5 -101q-94 0 -166 44l-28 -45l-46 28l31 50q-106 100 -106 285zM154 350q0 -129 51 -213l294 471q-56 54 -138 54q-105 0 -156 -87t-51 -225zM584 350
q0 128 -49 210l-294 -469q55 -53 137 -53q100 0 153 88t53 224zM335 769l147 124q17 2 49.5 -8.5t43.5 -23.5v-20l-224 -91z" />
    <glyph glyph-name="oslashacute" unicode="&#x1ff;" horiz-adv-x="548" 
d="M66 -37l50 78q-74 68 -74 209q0 124 62.5 193t169.5 69q78 0 127 -30l46 71l37 -24l-48 -73q70 -67 70 -206q0 -124 -62.5 -193t-169.5 -69q-71 0 -122 28l-50 -78zM132 250q0 -88 28 -141l205 317q-38 44 -99 44q-62 0 -98 -55.5t-36 -164.5zM416 250q0 80 -25 136
l-204 -316q38 -40 104 -40q56 0 90.5 56t34.5 164zM234 594l118 174q16 2 46.5 -5.5t41.5 -16.5v-19l-186 -150z" />
    <glyph glyph-name="Scommaaccent" unicode="&#x218;" horiz-adv-x="534" 
d="M108 215l41 -147q30 -30 89 -30q67 0 111 35t44 95q0 44 -34 77t-82.5 56t-97.5 49.5t-83 73t-34 110.5q0 81 56 129.5t149 48.5q124 0 190 -33q-4 -78 -24 -170h-24l-40 137q-36 16 -106 16q-52 0 -83 -30t-31 -81q0 -34 18.5 -61t47.5 -46t64 -36.5t70.5 -37.5
t64.5 -43.5t47.5 -59.5t18.5 -81q0 -91 -64 -144.5t-175 -53.5q-59 0 -108 14t-73 33q4 91 24 180h24zM227 -271l-16 33q22 10 37.5 30t12.5 47q-22 16 -65 32q-8 29 12 55t43 27q35 -4 59.5 -27.5t24.5 -62.5q0 -48 -28.5 -83.5t-79.5 -50.5z" />
    <glyph glyph-name="scommaaccent" unicode="&#x219;" horiz-adv-x="431" 
d="M297 114q0 31 -24.5 55.5t-59.5 43t-70.5 40t-60 56t-24.5 79.5q0 53 44.5 88.5t107.5 35.5q90 0 152 -22q-10 -80 -24 -130h-24l-37 102q-21 8 -59 8q-34 0 -55 -22.5t-21 -51.5q0 -30 24.5 -54t59.5 -43l70 -39q36 -21 60.5 -52.5t24.5 -72.5q0 -66 -53 -106.5
t-130 -40.5q-73 0 -150 28q4 71 24 134h24l44 -109q14 -11 56 -11q44 0 72.5 24.5t28.5 59.5zM164 -269l-16 33q55 23 55 75q-22 16 -65 32q-8 29 12 55t43 27q34 -4 55 -27t21 -63q0 -47 -30 -84t-75 -48z" />
    <glyph glyph-name="Tcommaaccent" unicode="&#x21a;" horiz-adv-x="614" 
d="M444 28v-28h-274v28q53 18 92 24v598h-157l-51 -140h-24q-7 57 -10 190h574q-3 -133 -10 -190h-24l-51 140h-157v-598q61 -11 92 -24zM275 -271l-16 33q22 10 37.5 30t12.5 47q-22 16 -65 32q-8 29 12 55t43 27q35 -4 59.5 -27.5t24.5 -62.5q0 -48 -28.5 -83.5
t-79.5 -50.5z" />
    <glyph glyph-name="tcommaaccent" unicode="&#x21b;" horiz-adv-x="368" 
d="M16 452v24q38 24 80 34v86q18 16 60 36h24v-132h152v-48h-152v-294q0 -59 18.5 -84.5t58.5 -25.5q59 0 92 12l7 -13q-19 -21 -58.5 -40t-79.5 -19q-122 0 -122 144v320h-80zM154 -269l-16 33q55 23 55 75q-22 16 -65 32q-8 29 12 55t43 27q34 -4 55 -27t21 -63
q0 -47 -30 -84t-75 -48z" />
    <glyph glyph-name="uni0237" unicode="&#x237;" horiz-adv-x="284" 
d="M106 24v420l-66 8v24q53 24 126 36h24v-469q0 -66 -16 -117t-42 -78.5t-46 -40.5t-40 -19l-11 18q28 14 49.5 68.5t21.5 149.5z" />
    <glyph glyph-name="uni0259" unicode="&#x259;" horiz-adv-x="515" 
d="M253 470q-41 0 -67 -10l-47 -120h-24q-21 65 -25 124q80 48 175 48q221 0 221 -262q0 -126 -58.5 -194t-164.5 -68q-42 0 -80 15t-69.5 46t-45 86t-0.5 127h331q-1 97 -33 152.5t-113 55.5zM267 30q117 0 129 190h-245q-7 -85 25.5 -137.5t90.5 -52.5z" />
    <glyph glyph-name="afii57929" unicode="&#x2bc;" horiz-adv-x="290" 
d="M73 442l-16 33q40 13 64.5 43t20.5 67q-22 16 -65 32q-8 29 12 55t43 27q35 -4 59.5 -27.5t24.5 -62.5q0 -51 -39.5 -100.5t-103.5 -66.5z" />
    <glyph glyph-name="circumflex" unicode="&#x2c6;" horiz-adv-x="366" 
d="M177 700l-90 -108l-27 15l110 186q12 6 22 0l114 -185l-26 -16z" />
    <glyph glyph-name="caron" unicode="&#x2c7;" horiz-adv-x="386" 
d="M199 689l100 108q19 0 27 -15l-123 -186q-12 -6 -22 0l-121 185q9 16 33 16z" />
    <glyph glyph-name="breve" unicode="&#x2d8;" horiz-adv-x="388" 
d="M305 729l23 -10q-20 -50 -53.5 -85t-78.5 -35q-93 0 -136 122l27 12q13 -25 46.5 -45t63.5 -21q67 -2 108 62z" />
    <glyph glyph-name="dotaccent" unicode="&#x2d9;" horiz-adv-x="242" 
d="M60 671q0 26 17 41.5t44 15.5q28 0 44.5 -15.5t16.5 -41.5t-16.5 -41.5t-44.5 -15.5q-27 0 -44 15.5t-17 41.5z" />
    <glyph glyph-name="ring" unicode="&#x2da;" horiz-adv-x="310" 
d="M60 684q0 40 28.5 68t69.5 28q39 0 65.5 -25.5t26.5 -67.5q0 -40 -28 -66.5t-65 -26.5q-43 0 -70 24.5t-27 65.5zM110 686q0 -25 13 -38.5t31 -13.5q21 0 33.5 12.5t12.5 36.5q0 26 -12.5 41.5t-32.5 15.5q-45 0 -45 -54z" />
    <glyph glyph-name="ogonek" unicode="&#x2db;" horiz-adv-x="315" 
d="M219 20h36q-116 -54 -116 -138q0 -23 14.5 -42t44.5 -19q22 0 54 9v-31q-35 -20 -74 -20q-56 0 -87 24t-31 63q0 96 159 154z" />
    <glyph glyph-name="tilde" unicode="&#x2dc;" horiz-adv-x="425" 
d="M353 699l12 -27q-56 -55 -107 -55q-25 0 -65 17t-59 17q-28 0 -56 -25l-18 27q63 58 117 58q25 0 63 -16t58 -16q27 0 55 20z" />
    <glyph glyph-name="hungarumlaut" unicode="&#x2dd;" horiz-adv-x="451" 
d="M60 615l78 153q14 2 44.5 -5.5t36.5 -15.5v-14l-138 -133zM176 617l133 151q16 2 44 -6.5t38 -21.5v-12l-198 -128z" />
    <glyph glyph-name="uni02EE" unicode="&#x2ee;" horiz-adv-x="470" 
d="M73 442l-16 33q40 13 64.5 43t20.5 67q-22 16 -65 32q-8 29 12 55t43 27q35 -4 59.5 -27.5t24.5 -62.5q0 -51 -39.5 -100.5t-103.5 -66.5zM253 442l-16 33q40 13 64.5 43t20.5 67q-22 16 -65 32q-8 29 12 55t43 27q35 -4 59.5 -27.5t24.5 -62.5q0 -51 -39.5 -100.5
t-103.5 -66.5z" />
    <glyph glyph-name="gravecomb" unicode="&#x300;" horiz-adv-x="2" 
d="M-354 768l108 -174l-20 -17l-186 150v19q11 9 46 16.5t52 5.5z" />
    <glyph glyph-name="acutecomb" unicode="&#x301;" horiz-adv-x="2" 
d="M-302 594l118 174q16 2 46.5 -5.5t41.5 -16.5v-19l-186 -150z" />
    <glyph glyph-name="uni0394" unicode="&#x394;" horiz-adv-x="647" 
d="M627 0h-607v30l293 670h27l287 -670v-30zM516 60l-209 509l-218 -509h427z" />
    <glyph glyph-name="uni0394" unicode="&#x2206;" horiz-adv-x="647" 
d="M627 0h-607v30l293 670h27l287 -670v-30zM516 60l-209 509l-218 -509h427z" />
    <glyph glyph-name="uni03A9" unicode="&#x3a9;" horiz-adv-x="797" 
d="M348 0h-288q0 74 10 190h24l44 -118h158q-95 35 -157 114t-62 188q0 153 89 245.5t240 92.5q152 0 234.5 -88.5t82.5 -238.5q0 -115 -64.5 -198.5t-148.5 -114.5h148l45 118h24q10 -116 10 -190h-278v79q59 24 111.5 103t52.5 192q0 124 -56 206t-161 82
q-59 0 -104.5 -22.5t-72 -61.5t-39.5 -87.5t-13 -105.5q0 -114 55.5 -198.5t115.5 -107.5v-79z" />
    <glyph glyph-name="uni03A9" unicode="&#x2126;" horiz-adv-x="797" 
d="M348 0h-288q0 74 10 190h24l44 -118h158q-95 35 -157 114t-62 188q0 153 89 245.5t240 92.5q152 0 234.5 -88.5t82.5 -238.5q0 -115 -64.5 -198.5t-148.5 -114.5h148l45 118h24q10 -116 10 -190h-278v79q59 24 111.5 103t52.5 192q0 124 -56 206t-161 82
q-59 0 -104.5 -22.5t-72 -61.5t-39.5 -87.5t-13 -105.5q0 -114 55.5 -198.5t115.5 -107.5v-79z" />
    <glyph glyph-name="pi" unicode="&#x3c0;" horiz-adv-x="608" 
d="M485 57l66 -8v-20q-62 -28 -132 -38h-24v449h-196v-198q0 -144 -40 -242q-11 -5 -35 -5.5t-42.5 1.5t-18.5 4l-5 8q42 64 68.5 195t26.5 237h-17q-60 0 -104 -59l-12 8q6 28 13.5 46t22.5 36.5t41.5 27t64.5 7.5q174 -6 278 -6q67 0 91.5 4.5t43.5 21.5l13 -9
q-4 -33 -27.5 -55t-63.5 -22h-12v-383z" />
    <glyph glyph-name="afii10023" unicode="&#x401;" horiz-adv-x="579" 
d="M30 700h468q-2 -97 -10 -160h-24l-41 110h-221v-268h167l39 74h24q6 -99 0 -200h-24l-39 76h-167v-282h234l48 120h24q14 -97 10 -170h-488v28q35 16 82 24v596q-42 8 -82 24v28zM129 788q0 23 15 35t39 12t39 -12t15 -35q0 -21 -15 -33t-39 -12t-39 12t-15 33zM349 788
q0 23 15 35t39 12t39 -12t15 -35q0 -21 -15 -33t-39 -12t-39 12t-15 33z" />
    <glyph glyph-name="afii10051" unicode="&#x402;" horiz-adv-x="745" 
d="M705 238q0 -73 -14.5 -122t-43 -74t-62 -35t-80.5 -10l-6 25q38 9 61 26t39 62t16 121q0 153 -124 153q-81 0 -149 -42v-290q38 -10 72 -24v-28h-254v28q53 18 92 24v598h-157l-51 -140h-24q-7 57 -10 190h574q-3 -133 -10 -190h-24l-51 140h-157v-261q81 45 173 45
q93 0 141.5 -42t48.5 -154z" />
    <glyph glyph-name="afii10052" unicode="&#x403;" horiz-adv-x="503" 
d="M202 650v-598q50 -8 96 -24v-28h-268v28q40 16 82 24v596q-42 8 -82 24v28h463q-3 -141 -10 -198h-24l-51 148h-206zM223 769l147 124q17 2 49.5 -8.5t43.5 -23.5v-20l-224 -91z" />
    <glyph glyph-name="afii10053" unicode="&#x404;" horiz-adv-x="643" 
d="M501 57l47 122h24q13 -67 10 -150q-53 -41 -172 -41q-172 0 -264 89t-92 273q0 95 26.5 166.5t74 113t106 62t127.5 20.5q118 0 188 -34q2 -81 -14 -170h-24l-52 144q-19 10 -89 10q-103 0 -174 -74t-77 -214l335 14q11 -38 4 -75q-172 14 -339 16q6 -135 77.5 -213
t192.5 -78q68 0 85 19z" />
    <glyph glyph-name="afii10054" unicode="&#x405;" horiz-adv-x="534" 
d="M108 215l41 -147q30 -30 89 -30q67 0 111 35t44 95q0 44 -34 77t-82.5 56t-97.5 49.5t-83 73t-34 110.5q0 81 56 129.5t149 48.5q124 0 190 -33q-4 -78 -24 -170h-24l-40 137q-36 16 -106 16q-52 0 -83 -30t-31 -81q0 -34 18.5 -61t47.5 -46t64 -36.5t70.5 -37.5
t64.5 -43.5t47.5 -59.5t18.5 -81q0 -91 -64 -144.5t-175 -53.5q-59 0 -108 14t-73 33q4 91 24 180h24z" />
    <glyph glyph-name="afii10055" unicode="&#x406;" horiz-adv-x="350" 
d="M300 28v-28h-250v28q39 18 80 24v596q-39 7 -80 24v28h250v-28q-32 -15 -80 -24v-596q42 -8 80 -24z" />
    <glyph glyph-name="afii10056" unicode="&#x407;" horiz-adv-x="350" 
d="M34 788q0 23 15 35t39 12t39 -12t15 -35q0 -21 -15 -33t-39 -12t-39 12t-15 33zM208 788q0 23 15 35t39 12t39 -12t15 -35q0 -21 -15 -33t-39 -12t-39 12t-15 33zM300 28v-28h-250v28q39 18 80 24v596q-39 7 -80 24v28h250v-28q-32 -15 -80 -24v-596q42 -8 80 -24z" />
    <glyph glyph-name="afii10057" unicode="&#x408;" horiz-adv-x="338" 
d="M40 672v28h248v-28q-35 -16 -76 -24v-566q0 -206 -148 -242l-10 14q34 29 51 75.5t17 141.5v577q-54 11 -82 24z" />
    <glyph glyph-name="afii10058" unicode="&#x409;" horiz-adv-x="915" 
d="M491 0h-119v28q38 18 76 24v598h-190q-5 -200 -23 -327.5t-40 -182.5t-59 -102q-39 -50 -105 -50q-14 18 -27 53.5t-14 59.5l13 24l115 -20q82 133 83 538q-63 11 -101 29v28h526v-28q-43 -17 -88 -24v-231q56 7 90 7q247 0 247 -206q0 -75 -39.5 -126.5t-96.5 -73
t-124 -21.5q-3 0 -51.5 1.5t-72.5 1.5zM608 374q-48 0 -70 -6v-316q16 -5 73 -5q74 0 119 44.5t45 127.5q0 76 -42 115.5t-125 39.5z" />
    <glyph glyph-name="afii10059" unicode="&#x40a;" horiz-adv-x="989" 
d="M565 0h-119v28q41 19 76 24v295h-320v-295q41 -8 76 -24v-28h-248v28q40 16 82 24v596q-49 8 -82 24v28h248v-28q-36 -18 -76 -24v-251h320v251q-31 6 -76 24v28h254v-28q-43 -17 -88 -24v-252q42 7 90 7q247 0 247 -199q0 -55 -22.5 -96.5t-60.5 -65t-82.5 -34.5
t-94.5 -11q-3 0 -51.5 1.5t-72.5 1.5zM682 353q-48 0 -70 -6v-295q16 -5 73 -5q75 0 119.5 39t44.5 119q0 70 -42.5 109t-124.5 39z" />
    <glyph glyph-name="afii10060" unicode="&#x40b;" horiz-adv-x="767" 
d="M499 650h-157v-261q81 45 163 45q91 0 135.5 -40t44.5 -146v-196q36 -6 72 -24v-28h-162v231q0 75 -25.5 114t-88.5 39q-71 0 -139 -42v-290q38 -10 72 -24v-28h-254v28q53 18 92 24v598h-157l-51 -140h-24q-7 57 -10 190h574q-3 -133 -10 -190h-24z" />
    <glyph glyph-name="afii10061" unicode="&#x40c;" horiz-adv-x="639" 
d="M380 672v28h216v-28q-38 -18 -76 -24l-202 -269q184 -235 273 -331l48 -24v-24h-120l-33 24q-107 122 -234 312h-50v-284q45 -8 76 -24v-28h-248v28q40 16 82 24v596q-48 6 -82 24v28h248v-28q-31 -13 -76 -24v-280l60 14l190 266q-32 6 -72 24zM274 769l147 124
q17 2 49.5 -8.5t43.5 -23.5v-20l-224 -91z" />
    <glyph glyph-name="afii10062" unicode="&#x40e;" horiz-adv-x="657" 
d="M388 312l134 336q-48 7 -86 24v28h221v-28q-25 -12 -72 -24l-196 -447q-46 -117 -87 -167t-97 -39q-22 35 -29 106l13 24l101 -26q19 17 33 69l-247 480q-47 11 -76 24v28h258v-28q-33 -13 -82 -24l169 -338l21 -64h2zM350 731q-87 0 -130.5 35t-43.5 92q17 18 72 22
l24 -13v-86q28 -14 79 -14t79 11v89l24 13q39 0 68 -22q0 -57 -41.5 -92t-130.5 -35z" />
    <glyph glyph-name="afii10145" unicode="&#x40f;" horiz-adv-x="714" 
d="M278 700v-28q-35 -16 -76 -24v-598h310v598q-54 10 -76 24v28h248v-28q-42 -19 -82 -24v-596q55 -10 82 -24v-28h-283q-13 -103 -32 -190h-24q-11 58 -32 190h-283v28q40 16 82 24v596q-47 7 -82 24v28h248z" />
    <glyph glyph-name="afii10017" unicode="&#x410;" horiz-adv-x="678" 
d="M219 28v-28h-219v28q36 16 72 24l253 660h24l253 -660q51 -10 76 -24v-28h-250v28q48 18 82 24l-69 185h-241l-67 -185q42 -6 86 -24zM298 500l-78 -213h204l-80 215l-19 86h-2z" />
    <glyph glyph-name="afii10018" unicode="&#x411;" horiz-adv-x="595" 
d="M112 52v596q-38 6 -82 24v28h473q2 -86 -10 -178h-24l-51 128h-216v-243q56 7 90 7q51 0 94 -10.5t79 -33.5t56 -64.5t20 -97.5q0 -104 -75 -157.5t-187 -53.5q-3 0 -51.5 1.5t-72.5 1.5h-125v28q39 18 82 24zM272 364q-48 0 -70 -6v-306q16 -5 73 -5q75 0 120.5 41
t45.5 121q0 75 -43 115t-126 40z" />
    <glyph glyph-name="afii10019" unicode="&#x412;" horiz-adv-x="611" 
d="M124 0h-94v28q40 19 82 24v596q-42 8 -82 24v28h100q22 0 73 3t93 3q230 0 230 -166q0 -55 -34 -102t-98 -63v-4q69 -12 116 -54t47 -118q0 -69 -41.5 -117t-101 -68t-129.5 -20q-21 0 -76.5 3t-84.5 3zM293 44q75 0 124.5 42.5t49.5 107.5q0 137 -193 137h-78v-278
q32 -9 97 -9zM196 381h52q46 0 81 5q48 16 77.5 52.5t29.5 83.5q0 65 -40 99.5t-108 34.5q-60 0 -92 -5v-270z" />
    <glyph glyph-name="afii10020" unicode="&#x413;" horiz-adv-x="503" 
d="M202 650v-598q50 -8 96 -24v-28h-268v28q40 16 82 24v596q-42 8 -82 24v28h463q-3 -141 -10 -198h-24l-51 148h-206z" />
    <glyph glyph-name="afii10021" unicode="&#x414;" horiz-adv-x="680" 
d="M550 50h114q-2 -93 -20 -200h-24l-41 150h-494l-41 -150h-24q-18 82 -20 200h83q52 83 87.5 253t36.5 340q-56 11 -101 29v28h526v-28q-34 -14 -82 -24v-598zM143 50h317v600h-196q-11 -221 -46 -370.5t-75 -229.5z" />
    <glyph glyph-name="afii10022" unicode="&#x415;" horiz-adv-x="579" 
d="M30 700h468q-2 -97 -10 -160h-24l-41 110h-221v-268h167l39 74h24q6 -99 0 -200h-24l-39 76h-167v-282h234l48 120h24q14 -97 10 -170h-488v28q35 16 82 24v596q-42 8 -82 24v28z" />
    <glyph glyph-name="afii10024" unicode="&#x416;" horiz-adv-x="939" 
d="M422 376v272q-42 10 -72 24v28h228v-28q-22 -11 -66 -24v-280l70 14l170 266q-26 8 -72 24v28h216v-28q-29 -13 -76 -24l-182 -269l102 -140q93 -128 151 -191l48 -24v-24h-120l-33 24q-36 41 -70 90l-78 119l-66 103h-60v-284q43 -11 66 -24v-28h-228v28q30 16 72 24
v292l-60 -14l-65 -102l-75 -115q-33 -48 -69 -89l-33 -24h-120v24l48 24q114 123 251 322l-190 278q-38 10 -71 24v28h216v-28q-30 -14 -68 -24l172 -272h64z" />
    <glyph glyph-name="afii10025" unicode="&#x417;" horiz-adv-x="551" 
d="M241 -12q-109 0 -189 39q-1 48 24 165h24l42 -139q28 -15 99 -15q73 0 120 45t47 111q0 75 -43 108.5t-110 33.5l-77 -11q-6 30 -1 56h32q46 0 81 5q46 16 71.5 52t25.5 84q0 66 -38.5 103t-105.5 37q-63 0 -80 -19l-52 -122h-24q-12 69 -10 150q53 41 172 41
q43 0 80 -7.5t72 -25.5t55.5 -53.5t20.5 -85.5q0 -53 -30.5 -97t-91.5 -68v-4q143 -25 143 -172q0 -103 -74.5 -157t-182.5 -54z" />
    <glyph glyph-name="afii10026" unicode="&#x418;" horiz-adv-x="734" 
d="M278 28v-28h-248v28q40 18 82 24v596q-51 11 -82 24v28h248v-28q-39 -18 -76 -24v-440l-10 -75l48 79l297 412v24q-47 10 -81 24v28h248v-28q-28 -13 -82 -24v-596q47 -8 82 -24v-28h-248v28q43 18 76 24v439l10 74l-44 -74l-301 -417v-22q41 -7 81 -24z" />
    <glyph glyph-name="afii10027" unicode="&#x419;" horiz-adv-x="734" 
d="M278 28v-28h-248v28q40 18 82 24v596q-51 11 -82 24v28h248v-28q-39 -18 -76 -24v-440l-10 -75l48 79l297 412v24q-47 10 -81 24v28h248v-28q-28 -13 -82 -24v-596q47 -8 82 -24v-28h-248v28q43 18 76 24v439l10 74l-44 -74l-301 -417v-22q41 -7 81 -24zM373 731
q-87 0 -130.5 35t-43.5 92q17 18 72 22l24 -13v-86q28 -14 79 -14t79 11v89l24 13q39 0 68 -22q0 -57 -41.5 -92t-130.5 -35z" />
    <glyph glyph-name="afii10028" unicode="&#x41a;" horiz-adv-x="639" 
d="M380 672v28h216v-28q-38 -18 -76 -24l-202 -269q184 -235 273 -331l48 -24v-24h-120l-33 24q-107 122 -234 312h-50v-284q45 -8 76 -24v-28h-248v28q40 16 82 24v596q-48 6 -82 24v28h248v-28q-31 -13 -76 -24v-280l60 14l190 266q-32 6 -72 24z" />
    <glyph glyph-name="afii10029" unicode="&#x41b;" horiz-adv-x="650" 
d="M201 643q-63 11 -101 29v28h520v-28q-33 -16 -82 -24v-596q47 -8 82 -24v-28h-248v28q28 13 76 24v598h-190q-5 -200 -23 -327.5t-40 -182.5t-59 -102q-39 -50 -105 -50q-14 18 -27 53.5t-14 59.5l13 24l115 -20q82 133 83 538z" />
    <glyph glyph-name="afii10030" unicode="&#x41c;" horiz-adv-x="860" 
d="M829 28v-28h-242v28q32 13 81 24v453l4 117h-8l-33 -107l-207 -515h-24l-195 516l-36 117h-9l1 -127v-455q35 -7 75 -23v-28h-205v28q39 16 81 24v596q-44 8 -82 24v28h197l177 -463l34 -103h1l35 105l182 461h174v-28q-35 -16 -76 -24v-597q45 -8 75 -23z" />
    <glyph glyph-name="afii10031" unicode="&#x41d;" horiz-adv-x="724" 
d="M278 28v-28h-248v28q40 16 82 24v596q-49 8 -82 24v28h248v-28q-36 -18 -76 -24v-264h320v264q-35 6 -76 24v28h248v-28q-27 -14 -82 -24v-596q48 -8 82 -24v-28h-248v28q35 16 76 24v282h-320v-282q41 -8 76 -24z" />
    <glyph glyph-name="afii10032" unicode="&#x41e;" horiz-adv-x="738" 
d="M54 350q0 160 84.5 261t230.5 101t230.5 -101t84.5 -261t-84.5 -261t-230.5 -101t-230.5 101t-84.5 261zM154 350q0 -135 58 -223.5t166 -88.5q100 0 153 88t53 224t-57 224t-166 88q-105 0 -156 -87t-51 -225z" />
    <glyph glyph-name="afii10033" unicode="&#x41f;" horiz-adv-x="714" 
d="M278 28v-28h-248v28q35 17 82 24v596q-42 8 -82 24v28h654v-28q-27 -14 -82 -24v-596q40 -5 82 -24v-28h-248v28q22 14 76 24v598h-310v-598q41 -8 76 -24z" />
    <glyph glyph-name="afii10034" unicode="&#x420;" horiz-adv-x="591" 
d="M202 275v-223q54 -8 96 -24v-28h-268v28q30 14 82 24v596q-38 6 -82 24v28h86q26 0 86.5 4t89.5 4q52 0 96 -11t82 -34.5t59.5 -67t21.5 -103.5q0 -110 -79 -165.5t-193 -55.5q-58 0 -77 4zM272 658q-48 0 -70 -6v-326q16 -5 73 -5q77 0 126.5 43t49.5 129q0 81 -47 123
t-132 42z" />
    <glyph glyph-name="afii10035" unicode="&#x421;" horiz-adv-x="643" 
d="M501 57l47 122h24q13 -67 10 -150q-53 -41 -172 -41q-172 0 -264 89t-92 273q0 95 26.5 166.5t74 113t106 62t127.5 20.5q118 0 188 -34q2 -81 -14 -170h-24l-52 144q-19 10 -89 10q-108 0 -179.5 -80.5t-71.5 -231.5q0 -143 72 -227.5t198 -84.5q68 0 85 19z" />
    <glyph glyph-name="afii10036" unicode="&#x422;" horiz-adv-x="614" 
d="M444 28v-28h-274v28q53 18 92 24v598h-157l-51 -140h-24q-7 57 -10 190h574q-3 -133 -10 -190h-24l-51 140h-157v-598q61 -11 92 -24z" />
    <glyph glyph-name="afii10037" unicode="&#x423;" horiz-adv-x="657" 
d="M388 312l134 336q-48 7 -86 24v28h221v-28q-25 -12 -72 -24l-196 -447q-46 -117 -87 -167t-97 -39q-22 35 -29 106l13 24l101 -26q19 17 33 69l-247 480q-47 11 -76 24v28h258v-28q-33 -13 -82 -24l169 -338l21 -64h2z" />
    <glyph glyph-name="afii10038" unicode="&#x424;" horiz-adv-x="779" 
d="M277 672v28h220v-28q-25 -14 -66 -24v-51q28 7 83 7q98 0 161.5 -66.5t63.5 -177.5q0 -120 -72.5 -186.5t-169.5 -66.5q-45 0 -66 7v-62q43 -10 66 -24v-28h-220v28q29 15 71 23v61q-30 -5 -83 -5q-91 0 -158 61.5t-67 181.5q0 116 71.5 185t173.5 69q43 0 63 -4v48
q-42 9 -71 24zM486 558q-34 0 -56 -6v-396q13 -3 49 -3q73 0 122.5 52.5t49.5 154.5q0 93 -43.5 145.5t-121.5 52.5zM300 153q30 0 49 5v397q-24 3 -49 3q-71 0 -121.5 -53.5t-50.5 -154.5q0 -92 48 -144.5t124 -52.5z" />
    <glyph glyph-name="afii10039" unicode="&#x425;" horiz-adv-x="664" 
d="M391 672v28h228v-28q-33 -13 -76 -24l-176 -273l205 -323q48 -8 82 -24v-28h-259v28q36 18 76 24l-160 254l-154 -255q54 -8 81 -23v-28h-228v28q27 14 75 24l195 300l-188 296q-36 9 -80 24v28h259v-28q-36 -14 -77 -24l142 -229l138 229q-45 10 -83 24z" />
    <glyph glyph-name="afii10040" unicode="&#x426;" horiz-adv-x="727" 
d="M626 0h-596v28q28 13 82 24v596q-42 6 -82 24v28h248v-28q-31 -14 -76 -24v-598h305v598q-39 6 -76 24v28h248v-28q-38 -16 -82 -24v-598h114q-2 -93 -20 -200h-24z" />
    <glyph glyph-name="afii10041" unicode="&#x427;" horiz-adv-x="631" 
d="M601 28v-28h-248v28q44 19 92 24v259q-81 -45 -173 -45t-141 40.5t-49 145.5v196q-36 6 -72 24v28h228v-28q-37 -18 -66 -24v-179q0 -153 124 -153q81 0 149 42v290q-37 10 -72 24v28h228v-28q-29 -14 -66 -24v-596q35 -7 66 -24z" />
    <glyph glyph-name="afii10042" unicode="&#x428;" horiz-adv-x="922" 
d="M351 672v28h222v-28q-33 -16 -66 -24v-598h225v598q-33 7 -68 24v28h228v-28q-29 -13 -70 -24v-596q41 -8 70 -24v-28h-862v28q38 18 72 24v596q-38 8 -72 24v28h228v-28q-27 -14 -66 -24v-598h225v598q-38 11 -66 24z" />
    <glyph glyph-name="afii10043" unicode="&#x429;" horiz-adv-x="952" 
d="M851 0h-821v28q38 18 72 24v596q-38 6 -72 24v28h228v-28q-27 -14 -66 -24v-598h225v598q-46 13 -66 24v28h222v-28q-20 -14 -66 -24v-598h225v598q-34 7 -68 24v28h228v-28q-27 -16 -70 -24v-598h114q-2 -93 -20 -200h-24z" />
    <glyph glyph-name="afii10044" unicode="&#x42a;" horiz-adv-x="716" 
d="M20 700h395v-28q-36 -13 -88 -24v-231q56 7 90 7q259 0 259 -206q0 -110 -79 -165.5t-193 -55.5q-3 0 -51.5 1.5t-72.5 1.5h-125v28q35 16 82 24v598h-132l-51 -140h-24q-7 57 -10 190zM397 374q-48 0 -70 -6v-316q16 -5 73 -5q77 0 126.5 43t49.5 129q0 155 -179 155z
" />
    <glyph glyph-name="afii10045" unicode="&#x42b;" horiz-adv-x="834" 
d="M804 28v-28h-248v28q29 15 78 24v596q-46 9 -78 24v28h248v-28q-35 -17 -80 -24v-596q41 -6 80 -24zM155 0h-125v28q39 18 82 24v596q-42 8 -82 24v28h260v-28q-43 -17 -88 -24v-231q56 7 90 7q247 0 247 -206q0 -75 -39.5 -126.5t-96.5 -73t-124 -21.5q-3 0 -51.5 1.5
t-72.5 1.5zM272 374q-48 0 -70 -6v-316q16 -5 73 -5q74 0 119 44.5t45 127.5q0 76 -42 115.5t-125 39.5z" />
    <glyph glyph-name="afii10046" unicode="&#x42c;" horiz-adv-x="591" 
d="M155 0h-125v28q39 18 82 24v596q-42 8 -82 24v28h260v-28q-43 -17 -88 -24v-231q56 7 90 7q259 0 259 -206q0 -110 -79 -165.5t-193 -55.5q-3 0 -51.5 1.5t-72.5 1.5zM272 374q-48 0 -70 -6v-316q16 -5 73 -5q77 0 126.5 43t49.5 129q0 155 -179 155z" />
    <glyph glyph-name="afii10047" unicode="&#x42d;" horiz-adv-x="631" 
d="M484 345l-295 -30q-10 36 0 75h295q-7 134 -73 203t-180 69q-63 0 -80 -19l-52 -122h-24q-12 69 -10 150q53 41 172 41q166 0 253 -86.5t87 -275.5q0 -91 -27.5 -162.5t-74.5 -114t-104.5 -64t-122.5 -21.5q-118 0 -188 34q4 90 14 170h24l52 -144q19 -10 89 -10
q98 0 171 81.5t74 225.5z" />
    <glyph glyph-name="afii10048" unicode="&#x42e;" horiz-adv-x="961" 
d="M278 28v-28h-248v28q44 18 82 24v596q-42 6 -82 24v28h248v-28q-36 -16 -76 -24v-264h120q8 146 82 237t207 91q144 0 220 -99.5t76 -262.5q0 -161 -77 -261.5t-219 -100.5q-140 0 -213.5 94t-76.5 252h-119v-282q41 -7 76 -24zM417 350q0 -90 18.5 -157.5t65.5 -111
t119 -43.5q98 0 142.5 86t44.5 226q0 67 -10.5 121.5t-33.5 98.5t-63.5 68t-96.5 24q-54 0 -91.5 -24t-57.5 -68.5t-28.5 -97.5t-8.5 -122z" />
    <glyph glyph-name="afii10049" unicode="&#x42f;" horiz-adv-x="630" 
d="M475 700h125v-28q-36 -16 -82 -24v-596q50 -7 82 -24v-28h-260v28q37 18 88 24v243h-103q-13 -21 -66.5 -121.5t-95.5 -149.5l-33 -24h-120v24l48 24q38 41 69 83.5t65.5 95.5t49.5 74q-65 19 -106.5 68t-41.5 128q0 70 41.5 118t101 68t131.5 20q12 0 48.5 -1.5
t58.5 -1.5zM358 337q45 0 70 7v304q-16 5 -62 5q-172 0 -172 -157q0 -76 41 -117.5t123 -41.5z" />
    <glyph glyph-name="afii10065" unicode="&#x430;" horiz-adv-x="499" 
d="M403 130q0 -13 0.5 -25t1.5 -25.5t1 -21.5l69 -10v-20q-52 -27 -109 -38h-24q-13 31 -15 112h-5q-8 -45 -47 -79.5t-98 -34.5q-61 0 -99 37t-38 96q0 37 12.5 63.5t34 43t59 27.5t77.5 16t100 8q9 92 -10 141.5t-76 49.5q-41 0 -67 -10l-47 -120h-24q-21 65 -25 124
q80 48 184 48q48 0 79.5 -14t46 -39.5t19.5 -49.5t5 -56q0 -41 -2.5 -115.5t-2.5 -107.5zM214 48q44 0 71 29t38 60v105q-113 1 -153 -23.5t-40 -79.5q0 -43 22.5 -67t61.5 -24z" />
    <glyph glyph-name="afii10066" unicode="&#x431;" horiz-adv-x="536" 
d="M42 261q0 170 38 269.5t110.5 140.5t191.5 41l65 50h24q-1 -33 -11 -72.5t-17 -53.5q-97 0 -154.5 -9t-102 -38t-65 -82t-27.5 -142h5q24 54 79.5 93.5t114.5 39.5q201 0 201 -245q0 -118 -63 -191.5t-170 -73.5q-99 0 -159 73t-60 200zM130 262q0 -118 41.5 -175
t106.5 -57q60 0 92 55t32 155q0 99 -39.5 148.5t-111.5 49.5q-27 0 -58.5 -17t-52.5 -44q-10 -49 -10 -115z" />
    <glyph glyph-name="afii10067" unicode="&#x432;" horiz-adv-x="523" 
d="M474 146q0 -75 -62.5 -112.5t-157.5 -37.5q-49 0 -82 2t-41 2h-91v24q32 16 66 24v404q-38 8 -66 24v24h85q33 0 72 2t62 2q91 0 138 -28t47 -91q0 -44 -33 -73.5t-77 -39.5q61 -5 100.5 -37t39.5 -89zM190 237v-195q15 -4 72 -4q59 0 89.5 26t30.5 74t-35 73.5t-93 25.5
h-64zM190 458v-193l114 10q22 11 39 37t17 63q0 48 -29.5 67.5t-89.5 19.5q-37 0 -51 -4z" />
    <glyph glyph-name="afii10068" unicode="&#x433;" horiz-adv-x="427" 
d="M40 500h367q-2 -97 -10 -160h-24l-44 118h-139v-410q57 -10 90 -24v-24h-240v24q25 15 66 24v405q-37 6 -66 23v24z" />
    <glyph glyph-name="afii10069" unicode="&#x434;" horiz-adv-x="570" 
d="M461 0h-373l-44 -148h-24q-10 108 -10 196h68q32 38 59.5 137t28.5 257q-32 9 -69 34v24h420v-24q-27 -18 -66 -24v-404h88q1 -90 -10 -196h-24zM367 452h-148q-1 -254 -82 -404h230v404z" />
    <glyph glyph-name="afii10070" unicode="&#x435;" horiz-adv-x="499" 
d="M428 84l14 -15q-16 -34 -63.5 -57.5t-98.5 -23.5q-115 0 -176.5 70t-61.5 192q0 126 58.5 194t164.5 68q42 0 77 -12.5t65 -42.5t39 -80.5t-2 -125.5h-312q1 -91 44 -147t127 -56q35 0 71.5 10.5t53.5 25.5zM261 470q-59 0 -89.5 -41t-36.5 -136h226q7 81 -18.5 129
t-81.5 48z" />
    <glyph glyph-name="afii10072" unicode="&#x436;" horiz-adv-x="713" 
d="M525 476v24h169v-24q-16 -12 -57 -24l-135 -173l66 -92q65 -92 104 -139l41 -24v-24h-102l-28 23q-27 36 -80 122.5t-57 92.5h-49v-190q31 -8 60 -24v-24h-196v24q29 15 56 24v196l-55 -10q-3 -4 -53 -91.5t-79 -119.5l-30 -23h-100v24l47 24q39 46 98 130l65 94
q-80 93 -141 180q-26 6 -50 24v24h169v-24q-19 -14 -50 -24q34 -59 127 -184h52v184q-33 7 -56 24v24h190v-24q-23 -17 -54 -24v-190l56 10q77 103 122 180q-32 11 -50 24z" />
    <glyph glyph-name="afii10073" unicode="&#x437;" horiz-adv-x="471" 
d="M205 33q59 0 89.5 34.5t30.5 81.5q0 46 -18.5 64t-58.5 25l-94 -15q-8 28 0 52h102q21 10 39 37t18 65q0 47 -26 70t-72 23q-42 0 -58 -7l-45 -113h-24q-18 53 -20 130q66 32 162 32q80 0 123.5 -30t43.5 -87q0 -44 -32 -76.5t-75 -47.5q56 -5 91.5 -37t35.5 -85
q0 -78 -53.5 -119.5t-144.5 -41.5q-106 0 -171 60l17 64h19l60 -71q21 -8 61 -8z" />
    <glyph glyph-name="afii10074" unicode="&#x438;" horiz-adv-x="606" 
d="M40 476v24h206v-24q-23 -13 -60 -24v-280l-11 -93h5l39 75l218 346h129v-24q-32 -18 -66 -24v-404q48 -13 66 -24v-24h-206v24q28 16 60 24v291l10 79h-5l-38 -75l-216 -343h-131v24q26 13 66 24v404q-39 6 -66 24z" />
    <glyph glyph-name="afii10075" unicode="&#x439;" horiz-adv-x="606" 
d="M40 476v24h206v-24q-23 -13 -60 -24v-280l-11 -93h5l39 75l218 346h129v-24q-32 -18 -66 -24v-404q48 -13 66 -24v-24h-206v24q28 16 60 24v291l10 79h-5l-38 -75l-216 -343h-131v24q26 13 66 24v404q-39 6 -66 24zM313 561q-164 0 -164 122q29 22 72 27l24 -13v-89
q25 -11 69 -11q40 0 69 8v92l24 13q43 -6 68 -27q0 -52 -37.5 -87t-124.5 -35z" />
    <glyph glyph-name="afii10076" unicode="&#x43a;" horiz-adv-x="535" 
d="M323 476v24h189v-24q-18 -14 -67 -29q-75 -90 -154 -169q30 -32 97.5 -114t99.5 -116l47 -24v-24h-112l-32 23q-36 42 -96 125l-65 90h-40v-190q47 -12 66 -24v-24h-216v24q27 16 66 24v404q-34 8 -66 24v24h200v-24q-20 -14 -50 -24v-190l46 10l49 54q36 40 57.5 66.5
t40.5 54.5q-41 17 -60 29z" />
    <glyph glyph-name="afii10077" unicode="&#x43b;" horiz-adv-x="538" 
d="M17 103l84 -20q27 44 43 148t17 211q-33 10 -66 34v24h403v-24q-32 -18 -66 -24v-404q39 -10 66 -24v-24h-210v24q24 16 60 24v410h-135q-7 -307 -85 -424q-18 -27 -40 -39.5t-42 -8.5q-38 48 -42 93z" />
    <glyph glyph-name="afii10078" unicode="&#x43c;" horiz-adv-x="727" 
d="M206 24v-24h-174v24q33 16 66 24l15 394q-34 13 -66 34v24h189l104 -297l19 -69h3l21 70l110 296h182v-24q-30 -18 -66 -24l20 -404q33 -6 66 -24v-24h-206v24q24 13 60 24l-20 410h-8l-166 -458h-24l-162 458h-8l-15 -410q36 -10 60 -24z" />
    <glyph glyph-name="afii10079" unicode="&#x43d;" horiz-adv-x="606" 
d="M250 24v-24h-210v24q23 13 66 24v404q-43 11 -66 24v24h210v-24q-22 -14 -60 -24v-178h226v178q-35 6 -60 24v24h210v-24q-27 -16 -66 -24v-404q44 -9 66 -24v-24h-210v24q26 18 60 24v184h-226v-184q34 -6 60 -24z" />
    <glyph glyph-name="afii10080" unicode="&#x43e;" horiz-adv-x="548" 
d="M42 250q0 124 62.5 193t169.5 69q118 0 175 -69t57 -193t-62.5 -193t-169.5 -69q-115 0 -173.5 70t-58.5 192zM132 250q0 -98 39 -159t120 -61q56 0 90.5 56t34.5 164q0 98 -37 159t-113 61q-62 0 -98 -55.5t-36 -164.5z" />
    <glyph glyph-name="afii10081" unicode="&#x43f;" horiz-adv-x="606" 
d="M250 24v-24h-210v24q34 19 66 24v404q-45 11 -66 24v24h526v-24q-31 -20 -66 -24v-404q34 -6 66 -24v-24h-210v24q21 15 60 24v410h-226v-410q37 -11 60 -24z" />
    <glyph glyph-name="afii10082" unicode="&#x440;" horiz-adv-x="561" 
d="M248 -176v-24h-216v24q34 16 66 24v596l-66 8v24q57 25 126 36h24v-112h1q45 112 150 112q186 0 186 -251q0 -126 -63 -199.5t-169 -73.5q-58 0 -105 20v-160q33 -5 66 -24zM303 452q-95 0 -121 -118v-281q34 -23 101 -23t106.5 65t39.5 166q0 191 -126 191z" />
    <glyph glyph-name="afii10083" unicode="&#x441;" horiz-adv-x="464" 
d="M411 82l13 -13q-20 -36 -60 -58.5t-91 -22.5q-113 0 -172 70t-59 192q0 125 61 193.5t166 68.5q96 0 153 -30q-8 -90 -31 -141h-24l-42 119q-15 10 -47 10q-73 0 -109.5 -52.5t-36.5 -167.5q0 -81 46 -141.5t128 -60.5q62 0 105 34z" />
    <glyph glyph-name="afii10084" unicode="&#x442;" horiz-adv-x="492" 
d="M354 24v-24h-216v24q32 16 66 24v410h-96l-44 -118h-24q-8 78 -10 160h432q-2 -83 -10 -160h-24l-44 118h-96v-410q49 -13 66 -24z" />
    <glyph glyph-name="afii10085" unicode="&#x443;" horiz-adv-x="503" 
d="M250 0l-207 452q-21 5 -53 24v24h203v-23q-21 -14 -57 -25l130 -301l20 -62h2l15 63l97 300q-30 6 -55 24v24h168v-24q-21 -14 -57 -24l-155 -452q-31 -83 -60.5 -128.5t-55 -62t-64.5 -24.5q-16 28 -32 83l13 24h102q13 16 21 35.5t25 72.5z" />
    <glyph glyph-name="afii10086" unicode="&#x444;" horiz-adv-x="716" 
d="M464 -176v-24h-212v24q28 16 66 24v178q-35 -38 -87 -38q-88 0 -138.5 61t-50.5 183q0 140 53 210t147 70q55 0 76 -32v204l-76 8v24q58 26 132 36h24v-278q33 38 93 38q86 0 134.5 -58.5t48.5 -173.5q0 -146 -53 -219t-143 -73q-54 0 -80 31v-171q38 -6 66 -24zM251 36
q44 0 67 23v388q-25 17 -68 17q-55 0 -87.5 -48t-32.5 -145q0 -235 121 -235zM469 464q-47 0 -71 -21v-389q22 -18 68 -18q52 0 86 51.5t34 157.5q0 120 -28.5 169.5t-88.5 49.5z" />
    <glyph glyph-name="afii10087" unicode="&#x445;" horiz-adv-x="515" 
d="M430 452l-137 -184l158 -220q35 -11 54 -24v-24h-200v23q37 21 51 25l-113 167l-114 -167q24 -9 50 -24v-24h-169v24q27 16 57 24l149 200l-150 204q-29 10 -50 24v24h196v-23q-27 -19 -50 -25l106 -153l104 153q-34 11 -50 24v24h165v-24q-18 -13 -57 -24z" />
    <glyph glyph-name="afii10088" unicode="&#x446;" horiz-adv-x="608" 
d="M500 0h-460v24q27 16 66 24v404q-38 6 -66 24v24h210v-24q-22 -14 -60 -24v-410h216v410q-28 6 -60 24v24h210v-24q-27 -14 -66 -24v-410h88q-2 -65 -10 -190h-24z" />
    <glyph glyph-name="afii10089" unicode="&#x447;" horiz-adv-x="553" 
d="M16 476v24h210v-24q-25 -17 -60 -24v-122q0 -105 90 -105q54 0 107 32v195q-31 6 -60 24v24h210v-24q-27 -16 -66 -24v-404q43 -10 66 -24v-24h-230v24q41 17 80 24v181q-54 -59 -139 -59q-67 0 -104.5 38t-37.5 103v141q-38 8 -66 24z" />
    <glyph glyph-name="afii10090" unicode="&#x448;" horiz-adv-x="824" 
d="M454 42h180v410q-33 8 -55 24v24h205v-24q-31 -17 -66 -24v-404q38 -8 66 -24v-24h-744v24q28 16 66 24v404q-36 5 -66 24v24h205v-24q-25 -16 -55 -24v-410h180v410q-39 11 -61 24v24h200v-24q-17 -13 -55 -24v-410z" />
    <glyph glyph-name="afii10091" unicode="&#x449;" horiz-adv-x="836" 
d="M728 0h-688v24q28 16 66 24v404q-35 7 -66 24v24h205v-24q-23 -16 -55 -24v-410h180v410q-31 6 -61 24v24h200v-24q-22 -16 -55 -24v-410h180v410q-33 8 -55 24v24h205v-24q-23 -14 -66 -24v-410h88q-1 -46 -10 -190h-24z" />
    <glyph glyph-name="afii10092" unicode="&#x44a;" horiz-adv-x="571" 
d="M258 257v-215q6 0 25 -2t29 -2q61 0 94 30.5t33 91.5q0 53 -32 77.5t-83 24.5q-40 0 -66 -5zM16 500h302v-24q-21 -14 -60 -24v-156q59 8 98 8q175 0 175 -145q0 -78 -56.5 -120.5t-148.5 -42.5q-16 0 -57 2t-68 2h-93v24q28 16 66 24v410h-80l-44 -118h-24
q-8 68 -10 160z" />
    <glyph glyph-name="afii10093" unicode="&#x44b;" horiz-adv-x="737" 
d="M190 452v-156q59 8 98 8q78 0 121.5 -36t43.5 -109q0 -78 -53.5 -120.5t-141.5 -42.5q-16 0 -57 2t-68 2h-93v24q25 15 66 24v404q-29 3 -66 24v24h210v-24q-22 -14 -60 -24zM190 257v-215q6 0 25 -2t29 -2q117 0 117 122q0 53 -30.5 77.5t-78.5 24.5q-36 0 -62 -5z
M697 24v-24h-210v24q35 17 60 24v404q-37 8 -60 24v24h210v-24q-20 -14 -66 -24v-404q40 -11 66 -24z" />
    <glyph glyph-name="afii10094" unicode="&#x44c;" horiz-adv-x="503" 
d="M190 452v-156q59 8 98 8q175 0 175 -145q0 -78 -56.5 -120.5t-148.5 -42.5q-16 0 -57 2t-68 2h-93v24q23 13 66 24v404q-30 6 -66 24v24h210v-24q-24 -14 -60 -24zM190 257v-215q6 0 25 -2t29 -2q61 0 94 30.5t33 91.5q0 53 -32 77.5t-83 24.5q-40 0 -66 -5z" />
    <glyph glyph-name="afii10095" unicode="&#x44d;" horiz-adv-x="489" 
d="M219 -12q-106 0 -171 60l17 64h19l60 -71q21 -8 62 -8q67 0 108.5 55t42.5 148l-200 -15q-11 26 0 52h199q-8 197 -148 197q-41 0 -51 -7l-44 -123h-24q-17 56 -25 133q74 39 161 39q222 0 222 -252q0 -134 -66 -203t-162 -69z" />
    <glyph glyph-name="afii10096" unicode="&#x44e;" horiz-adv-x="777" 
d="M250 24v-24h-210v24q23 13 66 24v404q-40 11 -66 24v24h210v-24q-24 -14 -60 -24v-178h101q5 112 64.5 175t155.5 63q111 0 167.5 -67.5t56.5 -197.5q0 -121 -58.5 -190t-165.5 -69q-97 0 -156.5 61.5t-63.5 182.5h-101v-184q34 -6 60 -24zM379 250q0 -103 40.5 -161.5
t99.5 -58.5q126 0 126 220t-138 220q-59 0 -93.5 -59.5t-34.5 -160.5z" />
    <glyph glyph-name="afii10097" unicode="&#x44f;" horiz-adv-x="524" 
d="M65 354q0 71 46.5 111.5t145.5 40.5q16 0 79.5 -3t81.5 -3h66v-24q-21 -17 -66 -24v-404q38 -10 66 -24v-24h-210v24q20 13 60 24v171l-74 -10q-7 -11 -28 -50t-43 -72.5t-49 -63.5l-31 -23h-109v24l57 24q36 37 83 102.5t51 70.5q-52 10 -89 43t-37 90zM334 243v215
q-36 6 -70 6q-111 3 -111 -108q0 -51 39 -82t115 -31h27z" />
    <glyph glyph-name="afii10071" unicode="&#x451;" horiz-adv-x="499" 
d="M428 84l14 -15q-16 -34 -63.5 -57.5t-98.5 -23.5q-115 0 -176.5 70t-61.5 192q0 126 58.5 194t164.5 68q42 0 77 -12.5t65 -42.5t39 -80.5t-2 -125.5h-312q1 -91 44 -147t127 -56q35 0 71.5 10.5t53.5 25.5zM261 470q-59 0 -89.5 -41t-36.5 -136h226q7 81 -18.5 129
t-81.5 48zM97 662q0 23 14.5 37t37.5 14t37.5 -14t14.5 -37q0 -22 -14.5 -35.5t-37.5 -13.5t-37.5 13.5t-14.5 35.5zM317 662q0 23 14.5 37t37.5 14t37.5 -14t14.5 -37q0 -22 -14.5 -35.5t-37.5 -13.5t-37.5 13.5t-14.5 35.5z" />
    <glyph glyph-name="afii10099" unicode="&#x452;" horiz-adv-x="569" 
d="M22 547v50h68v87l-76 8v24q51 21 136 36h24v-155h210v-50h-210v-185h1q23 50 62.5 81.5t92.5 31.5q86 0 126.5 -46t40.5 -164v-264q0 -117 -42 -162t-131 -51l-5 26q56 17 75 51.5t19 135.5v247q0 82 -23.5 124.5t-80.5 42.5q-49 0 -84.5 -32.5t-50.5 -78.5v-256
q40 -10 60 -24v-24h-210v24q32 16 66 24v499h-68z" />
    <glyph glyph-name="afii10100" unicode="&#x453;" horiz-adv-x="427" 
d="M40 500h367q-2 -97 -10 -160h-24l-44 118h-139v-410q57 -10 90 -24v-24h-240v24q25 15 66 24v405q-37 6 -66 23v24zM181 594l118 174q16 2 46.5 -5.5t41.5 -16.5v-19l-186 -150z" />
    <glyph glyph-name="afii10101" unicode="&#x454;" horiz-adv-x="474" 
d="M421 82l13 -13q-20 -36 -60 -58.5t-91 -22.5q-114 0 -177.5 71t-63.5 191q0 123 65 192.5t172 69.5q96 0 153 -30q-8 -90 -31 -141h-24l-42 119q-15 10 -47 10q-150 0 -156 -205l197 15q11 -26 0 -52h-196q7 -74 56.5 -127t126.5 -53q62 0 105 34z" />
    <glyph glyph-name="afii10102" unicode="&#x455;" horiz-adv-x="431" 
d="M297 114q0 31 -24.5 55.5t-59.5 43t-70.5 40t-60 56t-24.5 79.5q0 53 44.5 88.5t107.5 35.5q90 0 152 -22q-10 -80 -24 -130h-24l-37 102q-21 8 -59 8q-34 0 -55 -22.5t-21 -51.5q0 -30 24.5 -54t59.5 -43l70 -39q36 -21 60.5 -52.5t24.5 -72.5q0 -66 -53 -106.5
t-130 -40.5q-73 0 -150 28q4 71 24 134h24l44 -109q14 -11 56 -11q44 0 72.5 24.5t28.5 59.5z" />
    <glyph glyph-name="afii10103" unicode="&#x456;" horiz-adv-x="298" 
d="M258 24v-24h-216v24q26 14 66 24v396l-66 8v24q58 24 126 36h24v-464q43 -10 66 -24zM89 671q0 26 17 41.5t44 15.5q28 0 44.5 -15.5t16.5 -41.5t-16.5 -41.5t-44.5 -15.5q-27 0 -44 15.5t-17 41.5z" />
    <glyph glyph-name="afii10104" unicode="&#x457;" horiz-adv-x="344" 
d="M40 670q0 25 14.5 41t37.5 16t37.5 -16t14.5 -41q0 -24 -14.5 -39.5t-37.5 -15.5t-37.5 15.5t-14.5 39.5zM200 670q0 25 14.5 41t37.5 16t37.5 -16t14.5 -41q0 -24 -14.5 -39.5t-37.5 -15.5t-37.5 15.5t-14.5 39.5zM281 24v-24h-216v24q26 14 66 24v396l-66 8v24
q59 24 126 36h24v-464q43 -10 66 -24z" />
    <glyph glyph-name="afii10105" unicode="&#x458;" horiz-adv-x="284" 
d="M106 24v420l-66 8v24q53 24 126 36h24v-469q0 -66 -16 -117t-42 -78.5t-46 -40.5t-40 -19l-11 18q28 14 49.5 68.5t21.5 149.5zM87 671q0 26 17 41.5t44 15.5q28 0 44.5 -15.5t16.5 -41.5t-16.5 -41.5t-44.5 -15.5q-27 0 -44 15.5t-17 41.5z" />
    <glyph glyph-name="afii10106" unicode="&#x459;" horiz-adv-x="735" 
d="M498 500v-24q-17 -10 -66 -24v-156q59 8 98 8q78 0 121.5 -36t43.5 -109q0 -78 -53.5 -120.5t-141.5 -42.5q-16 0 -57 2t-68 2h-87v24q24 16 60 24v410h-135q-7 -307 -85 -424q-18 -27 -40 -39.5t-42 -8.5q-38 48 -42 93l13 24l84 -20q27 44 43 148t17 211q-33 10 -66 34
v24h403zM432 257v-215q6 0 25 -2t29 -2q117 0 117 122q0 53 -30.5 77.5t-78.5 24.5q-36 0 -62 -5z" />
    <glyph glyph-name="afii10107" unicode="&#x45a;" horiz-adv-x="803" 
d="M356 0v24q26 18 60 24v184h-226v-184q34 -6 60 -24v-24h-210v24q23 13 66 24v404q-43 11 -66 24v24h210v-24q-22 -14 -60 -24v-178h226v178q-35 6 -60 24v24h210v-24q-17 -10 -66 -24v-156q59 8 98 8q78 0 121.5 -36t43.5 -109q0 -78 -53.5 -120.5t-141.5 -42.5
q-16 0 -57 2t-68 2h-87zM500 257v-215q6 0 25 -2t29 -2q117 0 117 122q0 53 -30.5 77.5t-78.5 24.5q-36 0 -62 -5z" />
    <glyph glyph-name="afii10108" unicode="&#x45b;" horiz-adv-x="579" 
d="M22 547v50h68v87l-76 8v24q51 21 136 36h24v-155h210v-50h-210v-185h1q23 50 62.5 81.5t92.5 31.5q86 0 126.5 -46t40.5 -164v-209l63 -8v-20q-66 -30 -123 -38h-24v258q0 82 -23.5 124.5t-80.5 42.5q-49 0 -84.5 -32.5t-50.5 -78.5v-256q40 -10 60 -24v-24h-210v24
q32 16 66 24v499h-68z" />
    </font>
</defs>
</svg>
